<ttFont>
<head>
    <!-- Most of this table will be recalculated by the compiler -->
    <tableVersion value="1.0"/>
    <fontRevision value="2.09997558594"/>
    <checkSumAdjustment value="0xCA96B635"/>
    <magicNumber value="0x5F0F3CF5"/>
    <flags value="00000000 00011011"/>
    <unitsPerEm value="2048"/>
    <created value="Tue Jan  2 08:36:17 1996"/>
    <modified value="Thu Mar 21 17:28:18 1996"/>
    <xMin value="-284"/>
    <yMin value="-628"/>
    <xMax value="2177"/>
    <yMax value="2020"/>
    <macStyle value="00000000 00000000"/>
    <lowestRecPPEM value="9"/>
    <fontDirectionHint value="1"/>
    <indexToLocFormat value="1"/>
    <glyphDataFormat value="0"/>
  </head>
    <TTGlyph name=".notdef" xMin="0" yMin="0" xMax="1024" yMax="1280">
      <contour>
        <pt x="0" y="0" on="1"/>
        <pt x="0" y="1280" on="1"/>
        <pt x="1024" y="1280" on="1"/>
        <pt x="1024" y="0" on="1"/>
      </contour>
      <contour>
        <pt x="32" y="32" on="1"/>
        <pt x="992" y="32" on="1"/>
        <pt x="992" y="1248" on="1"/>
        <pt x="32" y="1248" on="1"/>
      </contour>
    </TTGlyph>
    <TTGlyph name="A" xMin="-15" yMin="0" xMax="1371" yMax="1343">
      <contour>
        <pt x="-11" y="32" on="1"/>
        <pt x="3" y="40" on="0"/>
        <pt x="14" y="40" on="1"/>
        <pt x="37" y="40" on="1"/>
        <pt x="44" y="40" on="0"/>
        <pt x="61" y="41" on="1"/>
        <pt x="138" y="48" on="0"/>
        <pt x="152" y="55" on="1"/>
        <pt x="187" y="74" on="0"/>
        <pt x="212" y="121" on="1"/>
        <pt x="264" y="223" on="0"/>
        <pt x="329" y="410" on="1"/>
        <pt x="360" y="499" on="0"/>
        <pt x="368" y="518" on="1"/>
        <pt x="393" y="578" on="0"/>
        <pt x="416" y="644" on="1"/>
        <pt x="510" y="907" on="1"/>
        <pt x="532" y="969" on="0"/>
        <pt x="616" y="1191" on="1"/>
        <pt x="637" y="1247" on="0"/>
        <pt x="667" y="1341" on="1"/>
        <pt x="696" y="1343" on="1"/>
        <pt x="731" y="1342" on="1"/>
        <pt x="774" y="1257" on="0"/>
        <pt x="807" y="1159" on="1"/>
        <pt x="825" y="1107" on="0"/>
        <pt x="866" y="1004" on="1"/>
        <pt x="1018" y="593" on="1"/>
        <pt x="1099" y="370" on="1"/>
        <pt x="1163" y="180" on="0"/>
        <pt x="1203" y="93" on="0"/>
        <pt x="1220" y="79" on="1"/>
        <pt x="1225" y="75" on="0"/>
        <pt x="1290" y="59" on="0"/>
        <pt x="1303" y="55" on="1"/>
        <pt x="1349" y="42" on="0"/>
        <pt x="1367" y="33" on="1"/>
        <pt x="1371" y="22" on="0"/>
        <pt x="1371" y="16" on="1"/>
        <pt x="1371" y="11" on="0"/>
        <pt x="1368" y="1" on="1"/>
        <pt x="1336" y="0" on="0"/>
        <pt x="1323" y="0" on="1"/>
        <pt x="1272" y="0" on="0"/>
        <pt x="1143" y="3" on="1"/>
        <pt x="1043" y="6" on="1"/>
        <pt x="922" y="4" on="1"/>
        <pt x="910" y="4" on="0"/>
        <pt x="885" y="7" on="0"/>
        <pt x="876" y="7" on="1"/>
        <pt x="854" y="7" on="1"/>
        <pt x="843" y="8" on="0"/>
        <pt x="834" y="13" on="1"/>
        <pt x="834" y="27" on="0"/>
        <pt x="839" y="40" on="1"/>
        <pt x="851" y="46" on="0"/>
        <pt x="861" y="47" on="1"/>
        <pt x="966" y="54" on="1"/>
        <pt x="1007" y="56" on="0"/>
        <pt x="1028" y="65" on="1"/>
        <pt x="1034" y="83" on="0"/>
        <pt x="1034" y="92" on="1"/>
        <pt x="1034" y="110" on="0"/>
        <pt x="1008" y="185" on="1"/>
        <pt x="990" y="235" on="0"/>
        <pt x="963" y="325" on="0"/>
        <pt x="870" y="576" on="1"/>
        <pt x="829" y="583" on="0"/>
        <pt x="798" y="583" on="1"/>
        <pt x="584" y="581" on="1"/>
        <pt x="521" y="582" on="1"/>
        <pt x="487" y="582" on="0"/>
        <pt x="446" y="577" on="1"/>
        <pt x="433" y="547" on="0"/>
        <pt x="429" y="534" on="1"/>
        <pt x="341" y="259" on="1"/>
        <pt x="285" y="102" on="0"/>
        <pt x="285" y="86" on="1"/>
        <pt x="285" y="77" on="0"/>
        <pt x="294" y="56" on="1"/>
        <pt x="315" y="50" on="0"/>
        <pt x="350" y="45" on="1"/>
        <pt x="486" y="33" on="1"/>
        <pt x="497" y="24" on="0"/>
        <pt x="497" y="17" on="1"/>
        <pt x="497" y="12" on="0"/>
        <pt x="494" y="2" on="1"/>
        <pt x="449" y="1" on="0"/>
        <pt x="425" y="1" on="1"/>
        <pt x="345" y="1" on="0"/>
        <pt x="239" y="6" on="1"/>
        <pt x="190" y="8" on="0"/>
        <pt x="169" y="8" on="1"/>
        <pt x="148" y="8" on="0"/>
        <pt x="96" y="6" on="1"/>
        <pt x="62" y="4" on="0"/>
        <pt x="47" y="4" on="1"/>
        <pt x="23" y="4" on="0"/>
        <pt x="-15" y="7" on="1"/>
        <pt x="-15" y="13" on="1"/>
        <pt x="-15" y="20" on="0"/>
      </contour>
      <contour>
        <pt x="466" y="632" on="1"/>
        <pt x="573" y="626" on="0"/>
        <pt x="710" y="626" on="1"/>
        <pt x="788" y="626" on="0"/>
        <pt x="847" y="631" on="1"/>
        <pt x="837" y="670" on="0"/>
        <pt x="824" y="704" on="1"/>
        <pt x="759" y="878" on="0"/>
        <pt x="752" y="896" on="1"/>
        <pt x="661" y="1127" on="1"/>
        <pt x="651" y="1145" on="1"/>
        <pt x="645" y="1133" on="0"/>
        <pt x="607" y="1042" on="1"/>
        <pt x="543" y="886" on="0"/>
        <pt x="515" y="799" on="1"/>
        <pt x="502" y="760" on="0"/>
        <pt x="474" y="683" on="0"/>
        <pt x="467" y="652" on="0"/>
        <pt x="460" y="636" on="1"/>
      </contour>
    </TTGlyph>
    <TTGlyph name="AE" xMin="-127" yMin="-10" xMax="1697" yMax="1286">
      <contour>
        <pt x="645" y="1234" on="1"/>
        <pt x="624" y="1237" on="0"/>
        <pt x="563" y="1241" on="1"/>
        <pt x="454" y="1248" on="1"/>
        <pt x="439" y="1252" on="0"/>
        <pt x="436" y="1272" on="1"/>
        <pt x="443" y="1280" on="0"/>
        <pt x="448" y="1280" on="1"/>
        <pt x="486" y="1286" on="0"/>
        <pt x="556" y="1286" on="1"/>
        <pt x="563" y="1286" on="0"/>
        <pt x="572" y="1285" on="1"/>
        <pt x="644" y="1282" on="0"/>
        <pt x="678" y="1282" on="1"/>
        <pt x="1022" y="1281" on="1"/>
        <pt x="1033" y="1279" on="1"/>
        <pt x="1040" y="1278" on="0"/>
        <pt x="1057" y="1278" on="1"/>
        <pt x="1316" y="1280" on="1"/>
        <pt x="1488" y="1280" on="0"/>
        <pt x="1561" y="1271" on="1"/>
        <pt x="1569" y="1231" on="0"/>
        <pt x="1569" y="1094" on="1"/>
        <pt x="1569" y="1035" on="0"/>
        <pt x="1565" y="991" on="1"/>
        <pt x="1541" y="993" on="1"/>
        <pt x="1532" y="1010" on="0"/>
        <pt x="1515" y="1053" on="1"/>
        <pt x="1469" y="1175" on="0"/>
        <pt x="1427" y="1210" on="1"/>
        <pt x="1403" y="1230" on="0"/>
        <pt x="1351" y="1232" on="1"/>
        <pt x="1137" y="1239" on="0"/>
        <pt x="1087" y="1239" on="1"/>
        <pt x="1030" y="1239" on="0"/>
        <pt x="960" y="1232" on="0"/>
        <pt x="946" y="1224" on="1"/>
        <pt x="940" y="1116" on="0"/>
        <pt x="940" y="1054" on="1"/>
        <pt x="940" y="1031" on="0"/>
        <pt x="944" y="908" on="1"/>
        <pt x="949" y="677" on="1"/>
        <pt x="1005" y="682" on="0"/>
        <pt x="1028" y="683" on="1"/>
        <pt x="1224" y="685" on="1"/>
        <pt x="1282" y="684" on="1"/>
        <pt x="1304" y="684" on="0"/>
        <pt x="1341" y="689" on="1"/>
        <pt x="1382" y="773" on="0"/>
        <pt x="1395" y="871" on="1"/>
        <pt x="1408" y="872" on="1"/>
        <pt x="1413" y="872" on="0"/>
        <pt x="1424" y="871" on="1"/>
        <pt x="1426" y="815" on="0"/>
        <pt x="1426" y="793" on="1"/>
        <pt x="1426" y="767" on="0"/>
        <pt x="1419" y="624" on="0"/>
        <pt x="1419" y="602" on="1"/>
        <pt x="1419" y="587" on="0"/>
        <pt x="1422" y="501" on="1"/>
        <pt x="1425" y="412" on="1"/>
        <pt x="1410" y="411" on="1"/>
        <pt x="1402" y="411" on="0"/>
        <pt x="1387" y="412" on="1"/>
        <pt x="1372" y="550" on="0"/>
        <pt x="1344" y="616" on="0"/>
        <pt x="1325" y="625" on="1"/>
        <pt x="1297" y="637" on="0"/>
        <pt x="1179" y="637" on="1"/>
        <pt x="1036" y="637" on="0"/>
        <pt x="950" y="629" on="1"/>
        <pt x="949" y="573" on="1"/>
        <pt x="949" y="215" on="0"/>
        <pt x="953" y="128" on="1"/>
        <pt x="955" y="72" on="0"/>
        <pt x="969" y="61" on="1"/>
        <pt x="992" y="43" on="0"/>
        <pt x="1143" y="43" on="1"/>
        <pt x="1379" y="43" on="0"/>
        <pt x="1446" y="63" on="1"/>
        <pt x="1496" y="79" on="0"/>
        <pt x="1588" y="183" on="0"/>
        <pt x="1668" y="348" on="1"/>
        <pt x="1697" y="349" on="1"/>
        <pt x="1695" y="304" on="0"/>
        <pt x="1653" y="40" on="0"/>
        <pt x="1640" y="-8" on="1"/>
        <pt x="1629" y="-10" on="0"/>
        <pt x="1624" y="-10" on="1"/>
        <pt x="1602" y="-10" on="0"/>
        <pt x="1542" y="-4" on="1"/>
        <pt x="1471" y="1" on="1"/>
        <pt x="1032" y="-4" on="1"/>
        <pt x="534" y="-10" on="1"/>
        <pt x="532" y="15" on="1"/>
        <pt x="578" y="30" on="0"/>
        <pt x="761" y="44" on="0"/>
        <pt x="785" y="83" on="0"/>
        <pt x="785" y="381" on="1"/>
        <pt x="785" y="523" on="0"/>
        <pt x="779" y="625" on="1"/>
        <pt x="714" y="630" on="0"/>
        <pt x="564" y="630" on="1"/>
        <pt x="476" y="630" on="0"/>
        <pt x="394" y="618" on="1"/>
        <pt x="386" y="610" on="0"/>
        <pt x="380" y="597" on="1"/>
        <pt x="324" y="469" on="0"/>
        <pt x="255" y="325" on="1"/>
        <pt x="157" y="118" on="0"/>
        <pt x="157" y="75" on="1"/>
        <pt x="157" y="66" on="0"/>
        <pt x="167" y="56" on="0"/>
        <pt x="181" y="54" on="1"/>
        <pt x="210" y="50" on="0"/>
        <pt x="255" y="45" on="1"/>
        <pt x="319" y="38" on="0"/>
        <pt x="370" y="22" on="1"/>
        <pt x="379" y="10" on="0"/>
        <pt x="379" y="3" on="1"/>
        <pt x="374" y="-9" on="1"/>
        <pt x="222" y="4" on="0"/>
        <pt x="106" y="4" on="1"/>
        <pt x="-61" y="-5" on="0"/>
        <pt x="-76" y="-5" on="1"/>
        <pt x="-105" y="-5" on="0"/>
        <pt x="-122" y="4" on="1"/>
        <pt x="-127" y="7" on="0"/>
        <pt x="-127" y="12" on="1"/>
        <pt x="-127" y="18" on="0"/>
        <pt x="-120" y="22" on="1"/>
        <pt x="-111" y="29" on="0"/>
        <pt x="-90" y="29" on="1"/>
        <pt x="-28" y="32" on="0"/>
        <pt x="26" y="56" on="1"/>
        <pt x="45" y="65" on="0"/>
        <pt x="62" y="86" on="1"/>
        <pt x="101" y="135" on="0"/>
        <pt x="239" y="417" on="1"/>
        <pt x="535" y="1004" on="1"/>
      </contour>
      <contour>
        <pt x="429" y="670" on="1"/>
        <pt x="751" y="677" on="1"/>
        <pt x="779" y="677" on="1"/>
        <pt x="780" y="708" on="1"/>
        <pt x="779" y="980" on="1"/>
        <pt x="779" y="993" on="0"/>
        <pt x="781" y="1034" on="1"/>
        <pt x="784" y="1092" on="0"/>
        <pt x="784" y="1138" on="1"/>
        <pt x="784" y="1205" on="0"/>
        <pt x="763" y="1233" on="0"/>
        <pt x="733" y="1233" on="1"/>
        <pt x="719" y="1233" on="0"/>
        <pt x="709" y="1225" on="1"/>
        <pt x="691" y="1210" on="0"/>
        <pt x="611" y="1051" on="1"/>
        <pt x="443" y="715" on="0"/>
        <pt x="432" y="692" on="1"/>
        <pt x="427" y="683" on="0"/>
        <pt x="427" y="678" on="1"/>
      </contour>
    </TTGlyph>
    <TTGlyph name="AEacute" xMin="-127" yMin="-10" xMax="1697" yMax="1720">
      <component glyphName="AE" x="0" y="0" flags="0x214"/>
      <component glyphName="acute" x="652" y="428" flags="0x14"/>
    </TTGlyph>
    <TTGlyph name="Aacute" xMin="-15" yMin="0" xMax="1371" yMax="1714">
      <component glyphName="A" x="0" y="0" flags="0x200"/>
      <component glyphName="acute" x="352" y="422" flags="0x4"/>
    </TTGlyph>
    <TTGlyph name="Abreve" xMin="-15" yMin="0" xMax="1371" yMax="1697">
      <component glyphName="A" x="0" y="0" flags="0x214"/>
      <component glyphName="breve" x="332" y="464" flags="0x14"/>
    </TTGlyph>
    <TTGlyph name="Acircumflex" xMin="-15" yMin="0" xMax="1371" yMax="1761">
      <component glyphName="A" x="0" y="0" flags="0x200"/>
      <component glyphName="circumflex" x="332" y="429" flags="0x4"/>
    </TTGlyph>
    <TTGlyph name="Adieresis" xMin="-15" yMin="0" xMax="1371" yMax="1579">
      <component glyphName="A" x="0" y="0" flags="0x200"/>
      <component glyphName="dieresis" x="312" y="350" flags="0x4"/>
    </TTGlyph>
    <TTGlyph name="Agrave" xMin="-15" yMin="0" xMax="1371" yMax="1715">
      <component glyphName="A" x="0" y="0" flags="0x200"/>
      <component glyphName="grave" x="312" y="422" flags="0x4"/>
    </TTGlyph>
    <TTGlyph name="Alpha" xMin="-15" yMin="0" xMax="1371" yMax="1343">
      <component glyphName="A" x="0" y="0" flags="0x214"/>
    </TTGlyph>
    <TTGlyph name="Alphatonos" xMin="-15" yMin="0" xMax="1371" yMax="1343">
      <component glyphName="A" x="0" y="0" flags="0x214"/>
      <component glyphName="tonos" x="-145" y="-23" flags="0x14"/>
    </TTGlyph>
    <TTGlyph name="Amacron" xMin="-15" yMin="0" xMax="1371" yMax="1593">
      <component glyphName="A" x="0" y="0" flags="0x214"/>
      <component glyphName="macron" x="320" y="408" flags="0x14"/>
    </TTGlyph>
    <TTGlyph name="Aogonek" xMin="-14" yMin="-328" xMax="1475" yMax="1343">
      <contour>
        <pt x="1180" y="3" on="1"/>
        <pt x="1152" y="-48" on="0"/>
        <pt x="1152" y="-88" on="1"/>
        <pt x="1152" y="-154" on="0"/>
        <pt x="1261" y="-253" on="0"/>
        <pt x="1328" y="-253" on="1"/>
        <pt x="1389" y="-253" on="0"/>
        <pt x="1452" y="-206" on="1"/>
        <pt x="1475" y="-228" on="1"/>
        <pt x="1378" y="-328" on="0"/>
        <pt x="1262" y="-328" on="1"/>
        <pt x="1176" y="-328" on="0"/>
        <pt x="1058" y="-224" on="0"/>
        <pt x="1058" y="-150" on="1"/>
        <pt x="1058" y="-80" on="0"/>
        <pt x="1127" y="5" on="1"/>
        <pt x="1068" y="6" on="1"/>
        <pt x="924" y="4" on="1"/>
        <pt x="911" y="4" on="0"/>
        <pt x="899" y="6" on="1"/>
        <pt x="889" y="7" on="0"/>
        <pt x="855" y="7" on="1"/>
        <pt x="843" y="9" on="0"/>
        <pt x="835" y="13" on="1"/>
        <pt x="835" y="27" on="0"/>
        <pt x="840" y="40" on="1"/>
        <pt x="847" y="47" on="0"/>
        <pt x="920" y="50" on="1"/>
        <pt x="1011" y="58" on="0"/>
        <pt x="1029" y="65" on="1"/>
        <pt x="1035" y="83" on="0"/>
        <pt x="1035" y="91" on="1"/>
        <pt x="1035" y="110" on="0"/>
        <pt x="1009" y="185" on="1"/>
        <pt x="978" y="281" on="1"/>
        <pt x="871" y="576" on="1"/>
        <pt x="832" y="583" on="0"/>
        <pt x="789" y="583" on="1"/>
        <pt x="585" y="581" on="1"/>
        <pt x="525" y="582" on="1"/>
        <pt x="484" y="582" on="0"/>
        <pt x="447" y="577" on="1"/>
        <pt x="435" y="552" on="0"/>
        <pt x="417" y="492" on="1"/>
        <pt x="342" y="259" on="1"/>
        <pt x="286" y="102" on="0"/>
        <pt x="286" y="85" on="1"/>
        <pt x="286" y="76" on="0"/>
        <pt x="295" y="56" on="1"/>
        <pt x="334" y="44" on="0"/>
        <pt x="391" y="41" on="1"/>
        <pt x="453" y="36" on="1"/>
        <pt x="459" y="35" on="1"/>
        <pt x="487" y="33" on="1"/>
        <pt x="498" y="25" on="0"/>
        <pt x="498" y="17" on="1"/>
        <pt x="498" y="12" on="0"/>
        <pt x="495" y="2" on="1"/>
        <pt x="430" y="1" on="1"/>
        <pt x="346" y="1" on="0"/>
        <pt x="240" y="6" on="1"/>
        <pt x="171" y="8" on="1"/>
        <pt x="118" y="7" on="1"/>
        <pt x="48" y="4" on="1"/>
        <pt x="22" y="4" on="0"/>
        <pt x="-14" y="7" on="1"/>
        <pt x="-14" y="22" on="0"/>
        <pt x="-10" y="32" on="1"/>
        <pt x="5" y="40" on="0"/>
        <pt x="17" y="40" on="1"/>
        <pt x="134" y="40" on="0"/>
        <pt x="196" y="82" on="0"/>
        <pt x="272" y="241" on="0"/>
        <pt x="330" y="410" on="1"/>
        <pt x="369" y="518" on="1"/>
        <pt x="394" y="578" on="0"/>
        <pt x="417" y="644" on="1"/>
        <pt x="511" y="907" on="1"/>
        <pt x="596" y="1133" on="1"/>
        <pt x="617" y="1191" on="1"/>
        <pt x="640" y="1250" on="0"/>
        <pt x="668" y="1341" on="1"/>
        <pt x="686" y="1343" on="0"/>
        <pt x="695" y="1343" on="1"/>
        <pt x="714" y="1342" on="0"/>
        <pt x="732" y="1342" on="1"/>
        <pt x="773" y="1263" on="0"/>
        <pt x="808" y="1159" on="1"/>
        <pt x="867" y="1004" on="1"/>
        <pt x="1019" y="593" on="1"/>
        <pt x="1139" y="254" on="1"/>
        <pt x="1177" y="152" on="0"/>
        <pt x="1205" y="93" on="0"/>
        <pt x="1226" y="75" on="0"/>
        <pt x="1259" y="67" on="1"/>
        <pt x="1291" y="59" on="0"/>
        <pt x="1304" y="55" on="1"/>
        <pt x="1325" y="49" on="1"/>
        <pt x="1351" y="42" on="0"/>
        <pt x="1368" y="33" on="1"/>
        <pt x="1372" y="22" on="0"/>
        <pt x="1372" y="16" on="1"/>
        <pt x="1372" y="11" on="0"/>
        <pt x="1369" y="1" on="1"/>
        <pt x="1327" y="0" on="1"/>
      </contour>
      <contour>
        <pt x="467" y="632" on="1"/>
        <pt x="566" y="626" on="0"/>
        <pt x="703" y="626" on="1"/>
        <pt x="796" y="626" on="0"/>
        <pt x="848" y="631" on="1"/>
        <pt x="839" y="669" on="0"/>
        <pt x="813" y="737" on="1"/>
        <pt x="768" y="859" on="1"/>
        <pt x="697" y="1032" on="1"/>
        <pt x="661" y="1128" on="0"/>
        <pt x="652" y="1145" on="1"/>
        <pt x="574" y="984" on="0"/>
        <pt x="471" y="666" on="1"/>
        <pt x="461" y="646" on="0"/>
        <pt x="461" y="638" on="1"/>
        <pt x="461" y="635" on="0"/>
      </contour>
    </TTGlyph>
    <TTGlyph name="Aring" xMin="-15" yMin="0" xMax="1371" yMax="1654">
      <component glyphName="A" x="0" y="0" flags="0x200"/>
      <component glyphName="ring" x="321" y="395" flags="0x4"/>
    </TTGlyph>
    <TTGlyph name="Aringacute" xMin="-15" yMin="0" xMax="1371" yMax="2020">
      <component glyphName="A" x="0" y="0" flags="0x204"/>
      <component glyphName="ring" x="316" y="376" flags="0x4"/>
      <component glyphName="acute" x="316" y="728" flags="0x4"/>
    </TTGlyph>
    <TTGlyph name="Atilde" xMin="-15" yMin="0" xMax="1371" yMax="1608">
      <component glyphName="A" x="0" y="0" flags="0x4"/>
      <component glyphName="tilde" x="352" y="371" flags="0x4"/>
    </TTGlyph>
    <TTGlyph name="B" xMin="27" yMin="-2" xMax="1164" yMax="1298">
      <contour>
        <pt x="27" y="1239" on="1"/>
        <pt x="27" y="1270" on="1"/>
        <pt x="44" y="1274" on="0"/>
        <pt x="54" y="1275" on="1"/>
        <pt x="148" y="1280" on="1"/>
        <pt x="265" y="1290" on="0"/>
        <pt x="410" y="1296" on="1"/>
        <pt x="468" y="1298" on="0"/>
        <pt x="593" y="1298" on="1"/>
        <pt x="763" y="1298" on="0"/>
        <pt x="842" y="1273" on="1"/>
        <pt x="957" y="1236" on="0"/>
        <pt x="1070" y="1087" on="0"/>
        <pt x="1070" y="996" on="1"/>
        <pt x="1070" y="848" on="0"/>
        <pt x="859" y="747" on="1"/>
        <pt x="854" y="739" on="1"/>
        <pt x="962" y="710" on="0"/>
        <pt x="1100" y="606" on="0"/>
        <pt x="1137" y="531" on="1"/>
        <pt x="1164" y="476" on="0"/>
        <pt x="1164" y="387" on="1"/>
        <pt x="1164" y="238" on="0"/>
        <pt x="893" y="5" on="0"/>
        <pt x="655" y="5" on="1"/>
        <pt x="506" y="5" on="1"/>
        <pt x="355" y="0" on="1"/>
        <pt x="155" y="-2" on="0"/>
        <pt x="121" y="-2" on="1"/>
        <pt x="86" y="-2" on="0"/>
        <pt x="52" y="1" on="1"/>
        <pt x="52" y="12" on="1"/>
        <pt x="52" y="24" on="0"/>
        <pt x="57" y="29" on="1"/>
        <pt x="63" y="35" on="0"/>
        <pt x="80" y="39" on="1"/>
        <pt x="205" y="65" on="0"/>
        <pt x="238" y="84" on="0"/>
        <pt x="244" y="105" on="1"/>
        <pt x="256" y="145" on="0"/>
        <pt x="256" y="311" on="1"/>
        <pt x="256" y="326" on="0"/>
        <pt x="255" y="349" on="1"/>
        <pt x="253" y="416" on="0"/>
        <pt x="253" y="426" on="1"/>
        <pt x="253" y="530" on="1"/>
        <pt x="253" y="794" on="0"/>
        <pt x="247" y="991" on="1"/>
        <pt x="246" y="1192" on="1"/>
        <pt x="245" y="1217" on="1"/>
        <pt x="160" y="1229" on="0"/>
        <pt x="95" y="1232" on="1"/>
        <pt x="53" y="1233" on="0"/>
      </contour>
      <contour>
        <pt x="424" y="733" on="1"/>
        <pt x="474" y="723" on="0"/>
        <pt x="529" y="723" on="1"/>
        <pt x="745" y="723" on="0"/>
        <pt x="899" y="913" on="0"/>
        <pt x="899" y="1007" on="1"/>
        <pt x="899" y="1049" on="0"/>
        <pt x="872" y="1136" on="0"/>
        <pt x="803" y="1206" on="0"/>
        <pt x="752" y="1223" on="1"/>
        <pt x="665" y="1252" on="0"/>
        <pt x="574" y="1252" on="1"/>
        <pt x="489" y="1252" on="0"/>
        <pt x="416" y="1233" on="1"/>
        <pt x="415" y="1212" on="0"/>
        <pt x="415" y="1202" on="1"/>
        <pt x="415" y="1192" on="0"/>
        <pt x="417" y="1145" on="1"/>
        <pt x="418" y="1115" on="0"/>
        <pt x="418" y="1085" on="1"/>
        <pt x="415" y="964" on="1"/>
        <pt x="416" y="892" on="1"/>
        <pt x="423" y="751" on="1"/>
      </contour>
      <contour>
        <pt x="659" y="53" on="1"/>
        <pt x="758" y="60" on="0"/>
        <pt x="825" y="95" on="1"/>
        <pt x="856" y="111" on="0"/>
        <pt x="941" y="194" on="0"/>
        <pt x="988" y="310" on="0"/>
        <pt x="988" y="364" on="1"/>
        <pt x="988" y="405" on="0"/>
        <pt x="955" y="525" on="0"/>
        <pt x="876" y="616" on="0"/>
        <pt x="720" y="675" on="0"/>
        <pt x="626" y="675" on="1"/>
        <pt x="444" y="675" on="0"/>
        <pt x="422" y="668" on="1"/>
        <pt x="421" y="645" on="0"/>
        <pt x="421" y="634" on="1"/>
        <pt x="422" y="597" on="1"/>
        <pt x="421" y="522" on="1"/>
        <pt x="421" y="437" on="1"/>
        <pt x="424" y="202" on="0"/>
        <pt x="440" y="116" on="0"/>
        <pt x="533" y="54" on="0"/>
      </contour>
    </TTGlyph>
    <TTGlyph name="Beta" xMin="27" yMin="-2" xMax="1164" yMax="1298">
      <component glyphName="B" x="0" y="0" flags="0x214"/>
    </TTGlyph>
    <TTGlyph name="C" xMin="89" yMin="-27" xMax="1231" yMax="1311">
      <contour>
        <pt x="1185" y="1224" on="1"/>
        <pt x="1197" y="1147" on="0"/>
        <pt x="1197" y="1066" on="1"/>
        <pt x="1197" y="1050" on="0"/>
        <pt x="1196" y="1023" on="1"/>
        <pt x="1182" y="1020" on="0"/>
        <pt x="1175" y="1020" on="1"/>
        <pt x="1169" y="1020" on="0"/>
        <pt x="1158" y="1022" on="1"/>
        <pt x="1116" y="1139" on="0"/>
        <pt x="926" y="1265" on="0"/>
        <pt x="786" y="1265" on="1"/>
        <pt x="712" y="1265" on="0"/>
        <pt x="661" y="1248" on="1"/>
        <pt x="571" y="1217" on="0"/>
        <pt x="435" y="1108" on="0"/>
        <pt x="341" y="957" on="0"/>
        <pt x="286" y="742" on="0"/>
        <pt x="286" y="630" on="1"/>
        <pt x="286" y="416" on="0"/>
        <pt x="416" y="137" on="0"/>
        <pt x="642" y="18" on="0"/>
        <pt x="757" y="18" on="1"/>
        <pt x="804" y="19" on="1"/>
        <pt x="884" y="29" on="0"/>
        <pt x="913" y="38" on="1"/>
        <pt x="986" y="59" on="0"/>
        <pt x="1081" y="116" on="0"/>
        <pt x="1172" y="220" on="0"/>
        <pt x="1204" y="289" on="1"/>
        <pt x="1216" y="293" on="1"/>
        <pt x="1221" y="293" on="0"/>
        <pt x="1231" y="287" on="1"/>
        <pt x="1230" y="263" on="0"/>
        <pt x="1229" y="256" on="1"/>
        <pt x="1187" y="87" on="0"/>
        <pt x="1168" y="25" on="1"/>
        <pt x="1152" y="21" on="0"/>
        <pt x="1128" y="13" on="1"/>
        <pt x="1011" y="-27" on="0"/>
        <pt x="815" y="-27" on="1"/>
        <pt x="657" y="-27" on="0"/>
        <pt x="500" y="16" on="0"/>
        <pt x="315" y="107" on="0"/>
        <pt x="175" y="257" on="0"/>
        <pt x="89" y="486" on="0"/>
        <pt x="89" y="621" on="1"/>
        <pt x="89" y="749" on="0"/>
        <pt x="157" y="940" on="0"/>
        <pt x="299" y="1136" on="0"/>
        <pt x="492" y="1266" on="0"/>
        <pt x="610" y="1293" on="1"/>
        <pt x="693" y="1311" on="0"/>
        <pt x="845" y="1311" on="1"/>
        <pt x="956" y="1311" on="0"/>
        <pt x="1152" y="1252" on="0"/>
      </contour>
    </TTGlyph>
    <TTGlyph name="Cacute" xMin="89" yMin="-27" xMax="1231" yMax="1714">
      <component glyphName="C" x="0" y="0" flags="0x200"/>
      <component glyphName="acute" x="409" y="422" flags="0x4"/>
    </TTGlyph>
    <TTGlyph name="Ccaron" xMin="89" yMin="-27" xMax="1231" yMax="1761">
      <component glyphName="C" x="0" y="0" flags="0x200"/>
      <component glyphName="caron" x="399" y="429" flags="0x4"/>
    </TTGlyph>
    <TTGlyph name="Ccedilla" xMin="89" yMin="-431" xMax="1231" yMax="1311">
      <component glyphName="C" x="0" y="0" flags="0x200"/>
      <component glyphName="cedilla" x="640" y="0" flags="0x4"/>
    </TTGlyph>
    <TTGlyph name="Ccircumflex" xMin="89" yMin="-27" xMax="1231" yMax="1760">
      <component glyphName="C" x="0" y="0" flags="0x214"/>
      <component glyphName="circumflex" x="440" y="428" flags="0x14"/>
    </TTGlyph>
    <TTGlyph name="Cdot" xMin="89" yMin="-27" xMax="1231" yMax="1573">
      <component glyphName="C" x="0" y="0" flags="0x214"/>
      <component glyphName="dotaccent" x="426" y="344" flags="0x14"/>
    </TTGlyph>
    <TTGlyph name="Chi" xMin="10" yMin="-21" xMax="1449" yMax="1277">
      <component glyphName="X" x="0" y="0" flags="0x214"/>
    </TTGlyph>
    <TTGlyph name="D" xMin="22" yMin="-17" xMax="1479" yMax="1301">
      <contour>
        <pt x="24" y="20" on="1"/>
        <pt x="61" y="36" on="0"/>
        <pt x="110" y="41" on="1"/>
        <pt x="181" y="49" on="0"/>
        <pt x="216" y="75" on="1"/>
        <pt x="243" y="130" on="0"/>
        <pt x="243" y="355" on="1"/>
        <pt x="243" y="513" on="1"/>
        <pt x="245" y="608" on="1"/>
        <pt x="243" y="678" on="1"/>
        <pt x="245" y="807" on="1"/>
        <pt x="242" y="1132" on="1"/>
        <pt x="242" y="1187" on="0"/>
        <pt x="226" y="1204" on="1"/>
        <pt x="203" y="1229" on="0"/>
        <pt x="104" y="1250" on="1"/>
        <pt x="63" y="1259" on="0"/>
        <pt x="45" y="1274" on="0"/>
        <pt x="43" y="1295" on="1"/>
        <pt x="66" y="1300" on="0"/>
        <pt x="75" y="1300" on="1"/>
        <pt x="146" y="1300" on="1"/>
        <pt x="183" y="1301" on="1"/>
        <pt x="220" y="1301" on="0"/>
        <pt x="265" y="1293" on="1"/>
        <pt x="357" y="1287" on="0"/>
        <pt x="454" y="1287" on="1"/>
        <pt x="482" y="1287" on="0"/>
        <pt x="534" y="1290" on="1"/>
        <pt x="672" y="1298" on="0"/>
        <pt x="732" y="1298" on="1"/>
        <pt x="853" y="1298" on="0"/>
        <pt x="1068" y="1250" on="0"/>
        <pt x="1182" y="1185" on="1"/>
        <pt x="1253" y="1144" on="0"/>
        <pt x="1402" y="967" on="0"/>
        <pt x="1479" y="758" on="0"/>
        <pt x="1479" y="627" on="1"/>
        <pt x="1479" y="510" on="0"/>
        <pt x="1394" y="280" on="0"/>
        <pt x="1242" y="111" on="0"/>
        <pt x="1086" y="26" on="0"/>
        <pt x="926" y="-5" on="1"/>
        <pt x="860" y="-17" on="0"/>
        <pt x="689" y="-17" on="1"/>
        <pt x="576" y="-17" on="0"/>
        <pt x="505" y="-10" on="1"/>
        <pt x="477" y="-6" on="0"/>
        <pt x="445" y="-6" on="1"/>
        <pt x="440" y="-6" on="0"/>
        <pt x="434" y="-7" on="1"/>
        <pt x="26" y="-14" on="1"/>
        <pt x="24" y="-6" on="1"/>
        <pt x="22" y="-1" on="0"/>
        <pt x="22" y="5" on="1"/>
      </contour>
      <contour>
        <pt x="533" y="59" on="1"/>
        <pt x="609" y="33" on="0"/>
        <pt x="687" y="33" on="1"/>
        <pt x="788" y="33" on="0"/>
        <pt x="982" y="96" on="0"/>
        <pt x="1131" y="211" on="0"/>
        <pt x="1227" y="356" on="0"/>
        <pt x="1247" y="414" on="1"/>
        <pt x="1275" y="499" on="0"/>
        <pt x="1275" y="635" on="1"/>
        <pt x="1275" y="765" on="0"/>
        <pt x="1220" y="899" on="1"/>
        <pt x="1182" y="992" on="0"/>
        <pt x="991" y="1162" on="0"/>
        <pt x="731" y="1241" on="0"/>
        <pt x="580" y="1241" on="1"/>
        <pt x="476" y="1241" on="0"/>
        <pt x="426" y="1218" on="1"/>
        <pt x="420" y="1212" on="0"/>
        <pt x="414" y="1204" on="1"/>
        <pt x="408" y="1179" on="0"/>
        <pt x="408" y="1158" on="1"/>
        <pt x="408" y="1145" on="0"/>
        <pt x="409" y="1127" on="1"/>
        <pt x="412" y="1011" on="0"/>
        <pt x="412" y="941" on="1"/>
        <pt x="411" y="714" on="1"/>
        <pt x="411" y="214" on="0"/>
        <pt x="448" y="101" on="0"/>
      </contour>
    </TTGlyph>
    <TTGlyph name="Dcaron" xMin="22" yMin="-17" xMax="1479" yMax="1768">
      <component glyphName="D" x="0" y="0" flags="0x214"/>
      <component glyphName="caron" x="328" y="436" flags="0x14"/>
    </TTGlyph>
    <TTGlyph name="Delta" xMin="29" yMin="0" xMax="1229" yMax="1387">
      <contour>
        <pt x="1229" y="0" on="1"/>
        <pt x="29" y="0" on="1"/>
        <pt x="657" y="1387" on="1"/>
      </contour>
      <contour>
        <pt x="993" y="82" on="1"/>
        <pt x="594" y="1049" on="1"/>
        <pt x="154" y="82" on="1"/>
      </contour>
    </TTGlyph>
    <TTGlyph name="Delta#1" xMin="0" yMin="-1" xMax="1280" yMax="1343">
      <contour>
        <pt x="628" y="1341" on="1"/>
        <pt x="656" y="1343" on="1"/>
        <pt x="674" y="1342" on="0"/>
        <pt x="692" y="1342" on="1"/>
        <pt x="698" y="1325" on="0"/>
        <pt x="741" y="1235" on="1"/>
        <pt x="799" y="1115" on="0"/>
        <pt x="845" y="1004" on="1"/>
        <pt x="970" y="702" on="0"/>
        <pt x="1227" y="121" on="0"/>
        <pt x="1279" y="33" on="1"/>
        <pt x="1279" y="21" on="0"/>
        <pt x="1280" y="1" on="1"/>
        <pt x="1247" y="0" on="1"/>
        <pt x="832" y="0" on="1"/>
        <pt x="473" y="2" on="1"/>
        <pt x="404" y="1" on="1"/>
        <pt x="234" y="4" on="1"/>
        <pt x="93" y="4" on="0"/>
        <pt x="48" y="0" on="1"/>
        <pt x="31" y="-1" on="0"/>
        <pt x="21" y="-1" on="1"/>
        <pt x="13" y="-1" on="0"/>
        <pt x="0" y="1" on="1"/>
        <pt x="0" y="14" on="0"/>
        <pt x="4" y="26" on="1"/>
        <pt x="51" y="64" on="0"/>
        <pt x="332" y="637" on="0"/>
        <pt x="421" y="857" on="1"/>
        <pt x="481" y="986" on="1"/>
        <pt x="541" y="1131" on="1"/>
        <pt x="582" y="1218" on="1"/>
      </contour>
      <contour>
        <pt x="612" y="1145" on="1"/>
        <pt x="595" y="1112" on="0"/>
        <pt x="574" y="1051" on="1"/>
        <pt x="438" y="718" on="1"/>
        <pt x="313" y="418" on="0"/>
        <pt x="213" y="216" on="1"/>
        <pt x="201" y="193" on="0"/>
        <pt x="201" y="178" on="1"/>
        <pt x="201" y="155" on="0"/>
        <pt x="245" y="140" on="0"/>
        <pt x="317" y="140" on="1"/>
        <pt x="442" y="141" on="1"/>
        <pt x="707" y="138" on="1"/>
        <pt x="889" y="138" on="0"/>
        <pt x="1017" y="153" on="0"/>
        <pt x="1017" y="179" on="1"/>
        <pt x="1017" y="191" on="0"/>
        <pt x="1008" y="211" on="1"/>
        <pt x="862" y="565" on="1"/>
        <pt x="736" y="883" on="0"/>
      </contour>
    </TTGlyph>
    <TTGlyph name="Dslash" xMin="15" yMin="-17" xMax="1480" yMax="1300">
      <contour>
        <pt x="245" y="617" on="1"/>
        <pt x="20" y="620" on="1"/>
        <pt x="15" y="638" on="0"/>
        <pt x="15" y="647" on="1"/>
        <pt x="15" y="656" on="0"/>
        <pt x="20" y="674" on="1"/>
        <pt x="244" y="672" on="1"/>
        <pt x="245" y="807" on="1"/>
        <pt x="243" y="892" on="1"/>
        <pt x="242" y="1029" on="1"/>
        <pt x="242" y="1164" on="0"/>
        <pt x="233" y="1199" on="0"/>
        <pt x="199" y="1228" on="0"/>
        <pt x="150" y="1239" on="1"/>
        <pt x="105" y="1250" on="1"/>
        <pt x="64" y="1259" on="0"/>
        <pt x="46" y="1274" on="0"/>
        <pt x="43" y="1295" on="1"/>
        <pt x="66" y="1300" on="0"/>
        <pt x="76" y="1300" on="1"/>
        <pt x="244" y="1300" on="0"/>
        <pt x="265" y="1293" on="1"/>
        <pt x="340" y="1287" on="0"/>
        <pt x="455" y="1287" on="1"/>
        <pt x="482" y="1287" on="0"/>
        <pt x="534" y="1290" on="1"/>
        <pt x="672" y="1298" on="0"/>
        <pt x="732" y="1298" on="1"/>
        <pt x="1086" y="1298" on="0"/>
        <pt x="1480" y="915" on="0"/>
        <pt x="1480" y="627" on="1"/>
        <pt x="1480" y="417" on="0"/>
        <pt x="1255" y="101" on="0"/>
        <pt x="959" y="-17" on="0"/>
        <pt x="690" y="-17" on="1"/>
        <pt x="576" y="-17" on="0"/>
        <pt x="505" y="-10" on="1"/>
        <pt x="478" y="-7" on="0"/>
        <pt x="434" y="-7" on="1"/>
        <pt x="27" y="-14" on="1"/>
        <pt x="25" y="-8" on="0"/>
        <pt x="24" y="-6" on="1"/>
        <pt x="22" y="-1" on="0"/>
        <pt x="22" y="5" on="1"/>
        <pt x="22" y="7" on="0"/>
        <pt x="24" y="20" on="1"/>
        <pt x="61" y="36" on="0"/>
        <pt x="110" y="41" on="1"/>
        <pt x="185" y="49" on="0"/>
        <pt x="216" y="75" on="1"/>
        <pt x="243" y="102" on="0"/>
        <pt x="243" y="513" on="1"/>
        <pt x="246" y="608" on="1"/>
        <pt x="246" y="609" on="0"/>
      </contour>
      <contour>
        <pt x="412" y="617" on="1"/>
        <pt x="414" y="427" on="1"/>
        <pt x="414" y="203" on="0"/>
        <pt x="451" y="100" on="0"/>
        <pt x="533" y="59" on="1"/>
        <pt x="603" y="33" on="0"/>
        <pt x="687" y="33" on="1"/>
        <pt x="811" y="33" on="0"/>
        <pt x="1034" y="123" on="0"/>
        <pt x="1176" y="264" on="0"/>
        <pt x="1275" y="467" on="0"/>
        <pt x="1275" y="635" on="1"/>
        <pt x="1275" y="905" on="0"/>
        <pt x="911" y="1241" on="0"/>
        <pt x="580" y="1241" on="1"/>
        <pt x="468" y="1241" on="0"/>
        <pt x="426" y="1218" on="1"/>
        <pt x="420" y="1213" on="0"/>
        <pt x="415" y="1204" on="1"/>
        <pt x="408" y="1180" on="0"/>
        <pt x="408" y="1158" on="1"/>
        <pt x="408" y="1145" on="0"/>
        <pt x="409" y="1127" on="1"/>
        <pt x="413" y="945" on="1"/>
        <pt x="412" y="670" on="1"/>
        <pt x="520" y="669" on="1"/>
        <pt x="780" y="674" on="1"/>
        <pt x="775" y="656" on="0"/>
        <pt x="775" y="647" on="1"/>
        <pt x="775" y="638" on="0"/>
        <pt x="780" y="620" on="1"/>
      </contour>
    </TTGlyph>
    <TTGlyph name="E" xMin="49" yMin="-14" xMax="1296" yMax="1274">
      <contour>
        <pt x="50" y="16" on="1"/>
        <pt x="60" y="25" on="0"/>
        <pt x="67" y="27" on="1"/>
        <pt x="84" y="32" on="0"/>
        <pt x="125" y="35" on="1"/>
        <pt x="222" y="41" on="0"/>
        <pt x="245" y="53" on="1"/>
        <pt x="259" y="73" on="0"/>
        <pt x="259" y="109" on="1"/>
        <pt x="258" y="179" on="1"/>
        <pt x="259" y="433" on="1"/>
        <pt x="257" y="553" on="1"/>
        <pt x="258" y="804" on="1"/>
        <pt x="253" y="1089" on="1"/>
        <pt x="252" y="1191" on="0"/>
        <pt x="240" y="1204" on="1"/>
        <pt x="222" y="1223" on="0"/>
        <pt x="133" y="1226" on="1"/>
        <pt x="95" y="1227" on="0"/>
        <pt x="66" y="1232" on="1"/>
        <pt x="53" y="1239" on="0"/>
        <pt x="53" y="1250" on="1"/>
        <pt x="53" y="1258" on="0"/>
        <pt x="58" y="1269" on="1"/>
        <pt x="67" y="1274" on="0"/>
        <pt x="74" y="1274" on="1"/>
        <pt x="88" y="1274" on="0"/>
        <pt x="108" y="1273" on="1"/>
        <pt x="167" y="1268" on="0"/>
        <pt x="230" y="1268" on="1"/>
        <pt x="304" y="1270" on="1"/>
        <pt x="480" y="1266" on="1"/>
        <pt x="612" y="1266" on="0"/>
        <pt x="760" y="1272" on="0"/>
        <pt x="786" y="1272" on="1"/>
        <pt x="809" y="1272" on="0"/>
        <pt x="900" y="1268" on="1"/>
        <pt x="1042" y="1269" on="1"/>
        <pt x="1059" y="1266" on="1"/>
        <pt x="1142" y="1269" on="1"/>
        <pt x="1152" y="1264" on="1"/>
        <pt x="1157" y="1256" on="0"/>
        <pt x="1159" y="1247" on="1"/>
        <pt x="1159" y="1233" on="0"/>
        <pt x="1150" y="1175" on="0"/>
        <pt x="1150" y="1168" on="1"/>
        <pt x="1150" y="1064" on="0"/>
        <pt x="1157" y="992" on="1"/>
        <pt x="1156" y="986" on="0"/>
        <pt x="1151" y="984" on="1"/>
        <pt x="1140" y="984" on="0"/>
        <pt x="1131" y="987" on="1"/>
        <pt x="1120" y="1006" on="0"/>
        <pt x="1083" y="1102" on="0"/>
        <pt x="1046" y="1165" on="1"/>
        <pt x="1021" y="1207" on="0"/>
        <pt x="993" y="1223" on="0"/>
        <pt x="949" y="1223" on="1"/>
        <pt x="940" y="1223" on="0"/>
        <pt x="858" y="1225" on="1"/>
        <pt x="836" y="1226" on="0"/>
        <pt x="815" y="1226" on="1"/>
        <pt x="530" y="1220" on="1"/>
        <pt x="505" y="1220" on="1"/>
        <pt x="450" y="1220" on="0"/>
        <pt x="439" y="1206" on="1"/>
        <pt x="422" y="1182" on="0"/>
        <pt x="422" y="1065" on="1"/>
        <pt x="422" y="1053" on="0"/>
        <pt x="427" y="825" on="1"/>
        <pt x="427" y="686" on="1"/>
        <pt x="438" y="683" on="0"/>
        <pt x="451" y="683" on="1"/>
        <pt x="468" y="683" on="1"/>
        <pt x="485" y="683" on="0"/>
        <pt x="518" y="682" on="1"/>
        <pt x="570" y="680" on="0"/>
        <pt x="588" y="680" on="1"/>
        <pt x="600" y="680" on="0"/>
        <pt x="609" y="681" on="1"/>
        <pt x="717" y="685" on="0"/>
        <pt x="887" y="685" on="1"/>
        <pt x="940" y="694" on="0"/>
        <pt x="949" y="706" on="1"/>
        <pt x="964" y="724" on="0"/>
        <pt x="979" y="876" on="0"/>
        <pt x="1005" y="886" on="1"/>
        <pt x="1018" y="886" on="0"/>
        <pt x="1029" y="881" on="1"/>
        <pt x="1031" y="873" on="0"/>
        <pt x="1031" y="866" on="1"/>
        <pt x="1031" y="859" on="0"/>
        <pt x="1029" y="843" on="1"/>
        <pt x="1024" y="806" on="0"/>
        <pt x="1024" y="611" on="1"/>
        <pt x="1024" y="559" on="0"/>
        <pt x="1035" y="431" on="0"/>
        <pt x="1035" y="426" on="1"/>
        <pt x="1035" y="417" on="0"/>
        <pt x="1032" y="402" on="1"/>
        <pt x="1024" y="398" on="0"/>
        <pt x="1019" y="398" on="1"/>
        <pt x="1012" y="398" on="1"/>
        <pt x="996" y="426" on="0"/>
        <pt x="981" y="485" on="1"/>
        <pt x="955" y="586" on="0"/>
        <pt x="898" y="637" on="0"/>
        <pt x="834" y="637" on="1"/>
        <pt x="820" y="637" on="0"/>
        <pt x="746" y="634" on="0"/>
        <pt x="673" y="634" on="1"/>
        <pt x="608" y="634" on="1"/>
        <pt x="469" y="634" on="0"/>
        <pt x="426" y="628" on="1"/>
        <pt x="425" y="595" on="1"/>
        <pt x="426" y="411" on="1"/>
        <pt x="425" y="295" on="1"/>
        <pt x="426" y="182" on="1"/>
        <pt x="427" y="80" on="0"/>
        <pt x="439" y="64" on="1"/>
        <pt x="456" y="42" on="0"/>
        <pt x="513" y="42" on="1"/>
        <pt x="574" y="43" on="1"/>
        <pt x="582" y="43" on="0"/>
        <pt x="691" y="40" on="0"/>
        <pt x="771" y="40" on="1"/>
        <pt x="964" y="40" on="0"/>
        <pt x="1092" y="73" on="0"/>
        <pt x="1175" y="157" on="0"/>
        <pt x="1238" y="296" on="1"/>
        <pt x="1257" y="337" on="0"/>
        <pt x="1276" y="337" on="1"/>
        <pt x="1285" y="337" on="0"/>
        <pt x="1296" y="329" on="1"/>
        <pt x="1267" y="230" on="0"/>
        <pt x="1263" y="199" on="1"/>
        <pt x="1252" y="129" on="0"/>
        <pt x="1250" y="56" on="1"/>
        <pt x="1250" y="23" on="0"/>
        <pt x="1234" y="1" on="1"/>
        <pt x="1212" y="1" on="1"/>
        <pt x="931" y="-2" on="1"/>
        <pt x="805" y="-1" on="1"/>
        <pt x="505" y="-5" on="1"/>
        <pt x="383" y="-5" on="1"/>
        <pt x="360" y="-5" on="0"/>
        <pt x="340" y="-6" on="1"/>
        <pt x="160" y="-14" on="0"/>
        <pt x="75" y="-14" on="1"/>
        <pt x="60" y="-14" on="0"/>
        <pt x="49" y="-4" on="0"/>
        <pt x="49" y="6" on="1"/>
      </contour>
    </TTGlyph>
    <TTGlyph name="Eacute" xMin="49" yMin="-14" xMax="1296" yMax="1714">
      <component glyphName="E" x="0" y="0" flags="0x210"/>
      <component glyphName="acute" x="331" y="422" flags="0x14"/>
    </TTGlyph>
    <TTGlyph name="Ebreve" xMin="49" yMin="-14" xMax="1296" yMax="1697">
      <component glyphName="E" x="0" y="0" flags="0x214"/>
      <component glyphName="breve" x="312" y="464" flags="0x14"/>
    </TTGlyph>
    <TTGlyph name="Ecaron" xMin="49" yMin="-14" xMax="1296" yMax="1768">
      <component glyphName="E" x="0" y="0" flags="0x214"/>
      <component glyphName="caron" x="336" y="436" flags="0x14"/>
    </TTGlyph>
    <TTGlyph name="Ecircumflex" xMin="49" yMin="-14" xMax="1296" yMax="1761">
      <component glyphName="E" x="0" y="0" flags="0x200"/>
      <component glyphName="circumflex" x="331" y="429" flags="0x4"/>
    </TTGlyph>
    <TTGlyph name="Edieresis" xMin="49" yMin="-14" xMax="1296" yMax="1579">
      <component glyphName="E" x="0" y="0" flags="0x200"/>
      <component glyphName="dieresis" x="331" y="350" flags="0x4"/>
    </TTGlyph>
    <TTGlyph name="Edot" xMin="49" yMin="-14" xMax="1296" yMax="1573">
      <component glyphName="E" x="0" y="0" flags="0x214"/>
      <component glyphName="dotaccent" x="332" y="344" flags="0x14"/>
    </TTGlyph>
    <TTGlyph name="Egrave" xMin="49" yMin="-14" xMax="1296" yMax="1715">
      <component glyphName="E" x="0" y="0" flags="0x200"/>
      <component glyphName="grave" x="331" y="422" flags="0x4"/>
    </TTGlyph>
    <TTGlyph name="Emacron" xMin="49" yMin="-14" xMax="1296" yMax="1593">
      <component glyphName="E" x="0" y="0" flags="0x214"/>
      <component glyphName="macron" x="316" y="408" flags="0x14"/>
    </TTGlyph>
    <TTGlyph name="Eng" xMin="100" yMin="-17" xMax="1437" yMax="1311">
      <contour>
        <pt x="449" y="982" on="1"/>
        <pt x="497" y="1075" on="0"/>
        <pt x="723" y="1311" on="0"/>
        <pt x="900" y="1311" on="1"/>
        <pt x="1132" y="1311" on="0"/>
        <pt x="1437" y="960" on="0"/>
        <pt x="1437" y="612" on="1"/>
        <pt x="1437" y="314" on="0"/>
        <pt x="1170" y="-17" on="0"/>
        <pt x="971" y="-17" on="1"/>
        <pt x="809" y="-17" on="0"/>
        <pt x="656" y="169" on="0"/>
        <pt x="656" y="294" on="1"/>
        <pt x="656" y="378" on="0"/>
        <pt x="745" y="483" on="0"/>
        <pt x="805" y="483" on="1"/>
        <pt x="899" y="483" on="0"/>
        <pt x="899" y="391" on="1"/>
        <pt x="899" y="326" on="0"/>
        <pt x="802" y="267" on="1"/>
        <pt x="736" y="227" on="0"/>
        <pt x="736" y="183" on="1"/>
        <pt x="736" y="130" on="0"/>
        <pt x="863" y="32" on="0"/>
        <pt x="957" y="32" on="1"/>
        <pt x="1059" y="32" on="0"/>
        <pt x="1209" y="206" on="0"/>
        <pt x="1245" y="413" on="0"/>
        <pt x="1245" y="577" on="1"/>
        <pt x="1245" y="940" on="0"/>
        <pt x="1058" y="1239" on="0"/>
        <pt x="862" y="1239" on="1"/>
        <pt x="722" y="1239" on="0"/>
        <pt x="528" y="1044" on="0"/>
        <pt x="450" y="859" on="1"/>
        <pt x="452" y="841" on="0"/>
        <pt x="452" y="833" on="1"/>
        <pt x="450" y="791" on="1"/>
        <pt x="453" y="587" on="1"/>
        <pt x="448" y="517" on="0"/>
        <pt x="448" y="482" on="1"/>
        <pt x="448" y="88" on="0"/>
        <pt x="469" y="58" on="1"/>
        <pt x="510" y="35" on="0"/>
        <pt x="563" y="31" on="1"/>
        <pt x="603" y="28" on="0"/>
        <pt x="619" y="12" on="1"/>
        <pt x="620" y="5" on="0"/>
        <pt x="620" y="2" on="1"/>
        <pt x="620" y="-2" on="0"/>
        <pt x="617" y="-11" on="1"/>
        <pt x="597" y="-14" on="0"/>
        <pt x="587" y="-14" on="1"/>
        <pt x="574" y="-14" on="0"/>
        <pt x="539" y="-10" on="1"/>
        <pt x="473" y="-3" on="0"/>
        <pt x="360" y="-3" on="1"/>
        <pt x="261" y="-3" on="0"/>
        <pt x="190" y="-7" on="1"/>
        <pt x="131" y="-11" on="0"/>
        <pt x="106" y="-11" on="1"/>
        <pt x="100" y="4" on="0"/>
        <pt x="100" y="12" on="1"/>
        <pt x="100" y="18" on="1"/>
        <pt x="144" y="31" on="0"/>
        <pt x="172" y="36" on="1"/>
        <pt x="258" y="52" on="0"/>
        <pt x="294" y="91" on="0"/>
        <pt x="296" y="170" on="1"/>
        <pt x="303" y="319" on="1"/>
        <pt x="300" y="496" on="1"/>
        <pt x="300" y="941" on="1"/>
        <pt x="300" y="1089" on="0"/>
        <pt x="254" y="1144" on="0"/>
        <pt x="112" y="1162" on="1"/>
        <pt x="110" y="1172" on="0"/>
        <pt x="110" y="1179" on="1"/>
        <pt x="110" y="1193" on="0"/>
        <pt x="135" y="1193" on="1"/>
        <pt x="143" y="1193" on="0"/>
        <pt x="174" y="1199" on="1"/>
        <pt x="226" y="1204" on="1"/>
        <pt x="386" y="1217" on="0"/>
        <pt x="440" y="1295" on="1"/>
        <pt x="467" y="1294" on="1"/>
        <pt x="455" y="1165" on="0"/>
        <pt x="454" y="1111" on="1"/>
      </contour>
    </TTGlyph>
    <TTGlyph name="Eogonek" xMin="49" yMin="-328" xMax="1296" yMax="1274">
      <contour>
        <pt x="878" y="-1" on="1"/>
        <pt x="852" y="-50" on="0"/>
        <pt x="852" y="-88" on="1"/>
        <pt x="852" y="-154" on="0"/>
        <pt x="961" y="-253" on="0"/>
        <pt x="1028" y="-253" on="1"/>
        <pt x="1089" y="-253" on="0"/>
        <pt x="1152" y="-206" on="1"/>
        <pt x="1175" y="-228" on="1"/>
        <pt x="1078" y="-328" on="0"/>
        <pt x="962" y="-328" on="1"/>
        <pt x="876" y="-328" on="0"/>
        <pt x="758" y="-224" on="0"/>
        <pt x="758" y="-149" on="1"/>
        <pt x="758" y="-85" on="0"/>
        <pt x="821" y="-1" on="1"/>
        <pt x="626" y="-5" on="1"/>
        <pt x="365" y="-5" on="0"/>
        <pt x="276" y="-10" on="1"/>
        <pt x="75" y="-14" on="1"/>
        <pt x="49" y="-14" on="0"/>
        <pt x="49" y="6" on="1"/>
        <pt x="49" y="10" on="0"/>
        <pt x="50" y="16" on="1"/>
        <pt x="58" y="31" on="0"/>
        <pt x="125" y="35" on="1"/>
        <pt x="222" y="41" on="0"/>
        <pt x="245" y="53" on="1"/>
        <pt x="259" y="70" on="0"/>
        <pt x="259" y="111" on="1"/>
        <pt x="258" y="179" on="1"/>
        <pt x="259" y="433" on="1"/>
        <pt x="257" y="553" on="1"/>
        <pt x="258" y="804" on="1"/>
        <pt x="256" y="867" on="1"/>
        <pt x="252" y="1117" on="1"/>
        <pt x="252" y="1170" on="0"/>
        <pt x="237" y="1222" on="0"/>
        <pt x="133" y="1226" on="1"/>
        <pt x="91" y="1227" on="0"/>
        <pt x="66" y="1232" on="1"/>
        <pt x="53" y="1239" on="0"/>
        <pt x="53" y="1250" on="1"/>
        <pt x="53" y="1258" on="0"/>
        <pt x="58" y="1269" on="1"/>
        <pt x="67" y="1274" on="0"/>
        <pt x="74" y="1274" on="1"/>
        <pt x="88" y="1274" on="0"/>
        <pt x="108" y="1273" on="1"/>
        <pt x="168" y="1268" on="0"/>
        <pt x="229" y="1268" on="1"/>
        <pt x="304" y="1270" on="1"/>
        <pt x="480" y="1266" on="1"/>
        <pt x="612" y="1266" on="0"/>
        <pt x="696" y="1270" on="1"/>
        <pt x="785" y="1272" on="1"/>
        <pt x="808" y="1272" on="0"/>
        <pt x="831" y="1271" on="1"/>
        <pt x="907" y="1268" on="1"/>
        <pt x="1042" y="1269" on="1"/>
        <pt x="1072" y="1266" on="1"/>
        <pt x="1141" y="1269" on="1"/>
        <pt x="1147" y="1267" on="0"/>
        <pt x="1152" y="1264" on="1"/>
        <pt x="1157" y="1256" on="0"/>
        <pt x="1159" y="1247" on="1"/>
        <pt x="1159" y="1233" on="0"/>
        <pt x="1155" y="1208" on="1"/>
        <pt x="1150" y="1175" on="0"/>
        <pt x="1150" y="1168" on="1"/>
        <pt x="1150" y="1064" on="0"/>
        <pt x="1157" y="992" on="1"/>
        <pt x="1156" y="986" on="0"/>
        <pt x="1151" y="984" on="1"/>
        <pt x="1139" y="984" on="0"/>
        <pt x="1131" y="987" on="1"/>
        <pt x="1123" y="999" on="0"/>
        <pt x="1103" y="1051" on="1"/>
        <pt x="1089" y="1087" on="0"/>
        <pt x="1021" y="1211" on="0"/>
        <pt x="986" y="1223" on="0"/>
        <pt x="944" y="1223" on="1"/>
        <pt x="858" y="1225" on="1"/>
        <pt x="840" y="1226" on="0"/>
        <pt x="821" y="1226" on="1"/>
        <pt x="585" y="1221" on="1"/>
        <pt x="532" y="1220" on="1"/>
        <pt x="452" y="1220" on="0"/>
        <pt x="422" y="1187" on="0"/>
        <pt x="422" y="1056" on="1"/>
        <pt x="427" y="825" on="1"/>
        <pt x="427" y="686" on="1"/>
        <pt x="436" y="683" on="0"/>
        <pt x="450" y="683" on="1"/>
        <pt x="518" y="682" on="1"/>
        <pt x="588" y="680" on="1"/>
        <pt x="887" y="685" on="1"/>
        <pt x="942" y="692" on="0"/>
        <pt x="965" y="727" on="0"/>
        <pt x="971" y="796" on="1"/>
        <pt x="979" y="881" on="0"/>
        <pt x="1005" y="886" on="1"/>
        <pt x="1019" y="886" on="0"/>
        <pt x="1029" y="881" on="1"/>
        <pt x="1031" y="873" on="0"/>
        <pt x="1031" y="866" on="1"/>
        <pt x="1031" y="859" on="0"/>
        <pt x="1029" y="843" on="1"/>
        <pt x="1024" y="806" on="0"/>
        <pt x="1024" y="608" on="1"/>
        <pt x="1024" y="559" on="0"/>
        <pt x="1030" y="490" on="1"/>
        <pt x="1035" y="426" on="1"/>
        <pt x="1035" y="417" on="0"/>
        <pt x="1032" y="402" on="1"/>
        <pt x="1024" y="398" on="0"/>
        <pt x="1019" y="398" on="1"/>
        <pt x="1012" y="398" on="1"/>
        <pt x="998" y="420" on="0"/>
        <pt x="981" y="485" on="1"/>
        <pt x="953" y="593" on="0"/>
        <pt x="892" y="637" on="0"/>
        <pt x="834" y="637" on="1"/>
        <pt x="784" y="636" on="1"/>
        <pt x="746" y="634" on="0"/>
        <pt x="680" y="634" on="1"/>
        <pt x="449" y="634" on="0"/>
        <pt x="426" y="628" on="1"/>
        <pt x="425" y="593" on="1"/>
        <pt x="426" y="411" on="1"/>
        <pt x="425" y="295" on="1"/>
        <pt x="425" y="165" on="0"/>
        <pt x="430" y="131" on="1"/>
        <pt x="430" y="116" on="1"/>
        <pt x="432" y="70" on="0"/>
        <pt x="462" y="42" on="0"/>
        <pt x="519" y="42" on="1"/>
        <pt x="563" y="43" on="1"/>
        <pt x="633" y="41" on="1"/>
        <pt x="776" y="40" on="1"/>
        <pt x="979" y="40" on="0"/>
        <pt x="1088" y="74" on="0"/>
        <pt x="1167" y="140" on="0"/>
        <pt x="1238" y="296" on="1"/>
        <pt x="1257" y="337" on="0"/>
        <pt x="1276" y="337" on="1"/>
        <pt x="1285" y="337" on="0"/>
        <pt x="1296" y="329" on="1"/>
        <pt x="1253" y="190" on="0"/>
        <pt x="1250" y="56" on="1"/>
        <pt x="1250" y="19" on="0"/>
        <pt x="1234" y="1" on="1"/>
        <pt x="1211" y="1" on="1"/>
        <pt x="931" y="-2" on="1"/>
      </contour>
    </TTGlyph>
    <TTGlyph name="Epsilon" xMin="49" yMin="-14" xMax="1296" yMax="1274">
      <component glyphName="E" x="0" y="0" flags="0x214"/>
    </TTGlyph>
    <TTGlyph name="Epsilontonos" xMin="-48" yMin="-14" xMax="1429" yMax="1292">
      <component glyphName="E" x="133" y="0" flags="0x14"/>
      <component glyphName="tonos" x="-308" y="-23" flags="0x14"/>
    </TTGlyph>
    <TTGlyph name="Eta" xMin="39" yMin="-21" xMax="1504" yMax="1289">
      <component glyphName="H" x="0" y="0" flags="0x214"/>
    </TTGlyph>
    <TTGlyph name="Etatonos" xMin="-48" yMin="-21" xMax="1598" yMax="1292">
      <component glyphName="H" x="94" y="0" flags="0x14"/>
      <component glyphName="tonos" x="-308" y="-23" flags="0x14"/>
    </TTGlyph>
    <TTGlyph name="Eth" xMin="15" yMin="-17" xMax="1480" yMax="1301">
      <contour>
        <pt x="245" y="617" on="1"/>
        <pt x="115" y="617" on="0"/>
        <pt x="20" y="620" on="1"/>
        <pt x="15" y="638" on="0"/>
        <pt x="15" y="647" on="1"/>
        <pt x="15" y="656" on="0"/>
        <pt x="20" y="674" on="1"/>
        <pt x="244" y="672" on="1"/>
        <pt x="244" y="678" on="1"/>
        <pt x="245" y="807" on="1"/>
        <pt x="242" y="1132" on="1"/>
        <pt x="242" y="1187" on="0"/>
        <pt x="226" y="1204" on="1"/>
        <pt x="203" y="1229" on="0"/>
        <pt x="105" y="1250" on="1"/>
        <pt x="63" y="1259" on="0"/>
        <pt x="46" y="1274" on="0"/>
        <pt x="43" y="1295" on="1"/>
        <pt x="66" y="1300" on="0"/>
        <pt x="76" y="1300" on="1"/>
        <pt x="146" y="1300" on="1"/>
        <pt x="183" y="1301" on="1"/>
        <pt x="220" y="1301" on="0"/>
        <pt x="265" y="1293" on="1"/>
        <pt x="357" y="1287" on="0"/>
        <pt x="455" y="1287" on="1"/>
        <pt x="482" y="1287" on="0"/>
        <pt x="534" y="1290" on="1"/>
        <pt x="672" y="1298" on="0"/>
        <pt x="732" y="1298" on="1"/>
        <pt x="853" y="1298" on="0"/>
        <pt x="1068" y="1250" on="0"/>
        <pt x="1182" y="1185" on="1"/>
        <pt x="1254" y="1144" on="0"/>
        <pt x="1402" y="967" on="0"/>
        <pt x="1480" y="758" on="0"/>
        <pt x="1480" y="627" on="1"/>
        <pt x="1480" y="510" on="0"/>
        <pt x="1394" y="280" on="0"/>
        <pt x="1243" y="111" on="0"/>
        <pt x="1086" y="26" on="0"/>
        <pt x="926" y="-5" on="1"/>
        <pt x="860" y="-17" on="0"/>
        <pt x="690" y="-17" on="1"/>
        <pt x="576" y="-17" on="0"/>
        <pt x="505" y="-10" on="1"/>
        <pt x="477" y="-6" on="0"/>
        <pt x="446" y="-6" on="1"/>
        <pt x="440" y="-6" on="0"/>
        <pt x="434" y="-7" on="1"/>
        <pt x="27" y="-14" on="1"/>
        <pt x="24" y="-6" on="1"/>
        <pt x="22" y="-1" on="0"/>
        <pt x="22" y="5" on="1"/>
        <pt x="24" y="20" on="1"/>
        <pt x="61" y="36" on="0"/>
        <pt x="110" y="41" on="1"/>
        <pt x="181" y="49" on="0"/>
        <pt x="216" y="75" on="1"/>
        <pt x="243" y="130" on="0"/>
        <pt x="243" y="355" on="1"/>
        <pt x="243" y="513" on="1"/>
        <pt x="246" y="608" on="1"/>
      </contour>
      <contour>
        <pt x="412" y="617" on="1"/>
        <pt x="415" y="300" on="0"/>
        <pt x="418" y="247" on="1"/>
        <pt x="422" y="164" on="0"/>
        <pt x="467" y="91" on="0"/>
        <pt x="533" y="59" on="1"/>
        <pt x="609" y="33" on="0"/>
        <pt x="687" y="33" on="1"/>
        <pt x="789" y="33" on="0"/>
        <pt x="983" y="96" on="0"/>
        <pt x="1132" y="211" on="0"/>
        <pt x="1228" y="356" on="0"/>
        <pt x="1247" y="414" on="1"/>
        <pt x="1275" y="499" on="0"/>
        <pt x="1275" y="635" on="1"/>
        <pt x="1275" y="765" on="0"/>
        <pt x="1221" y="899" on="1"/>
        <pt x="1182" y="992" on="0"/>
        <pt x="992" y="1162" on="0"/>
        <pt x="732" y="1241" on="0"/>
        <pt x="580" y="1241" on="1"/>
        <pt x="476" y="1241" on="0"/>
        <pt x="426" y="1218" on="1"/>
        <pt x="420" y="1212" on="0"/>
        <pt x="415" y="1204" on="1"/>
        <pt x="408" y="1179" on="0"/>
        <pt x="408" y="1158" on="1"/>
        <pt x="408" y="1145" on="0"/>
        <pt x="409" y="1127" on="1"/>
        <pt x="413" y="1003" on="0"/>
        <pt x="413" y="945" on="1"/>
        <pt x="412" y="883" on="1"/>
        <pt x="412" y="670" on="1"/>
        <pt x="522" y="669" on="1"/>
        <pt x="780" y="674" on="1"/>
        <pt x="775" y="656" on="0"/>
        <pt x="775" y="647" on="1"/>
        <pt x="775" y="638" on="0"/>
        <pt x="780" y="620" on="1"/>
        <pt x="641" y="617" on="0"/>
      </contour>
    </TTGlyph>
    <TTGlyph name="F" xMin="59" yMin="-20" xMax="1107" yMax="1294">
      <contour>
        <pt x="59" y="-15" on="1"/>
        <pt x="60" y="10" on="1"/>
        <pt x="82" y="21" on="0"/>
        <pt x="185" y="38" on="0"/>
        <pt x="224" y="55" on="0"/>
        <pt x="237" y="69" on="1"/>
        <pt x="246" y="113" on="0"/>
        <pt x="246" y="228" on="1"/>
        <pt x="232" y="1006" on="1"/>
        <pt x="235" y="1135" on="1"/>
        <pt x="235" y="1175" on="0"/>
        <pt x="206" y="1205" on="0"/>
        <pt x="84" y="1230" on="0"/>
        <pt x="62" y="1246" on="0"/>
        <pt x="62" y="1255" on="1"/>
        <pt x="62" y="1260" on="0"/>
        <pt x="65" y="1268" on="1"/>
        <pt x="78" y="1276" on="0"/>
        <pt x="92" y="1276" on="1"/>
        <pt x="107" y="1276" on="0"/>
        <pt x="153" y="1274" on="1"/>
        <pt x="181" y="1274" on="1"/>
        <pt x="195" y="1274" on="0"/>
        <pt x="260" y="1276" on="1"/>
        <pt x="399" y="1276" on="1"/>
        <pt x="686" y="1281" on="1"/>
        <pt x="990" y="1293" on="1"/>
        <pt x="1017" y="1293" on="1"/>
        <pt x="1060" y="1294" on="1"/>
        <pt x="1078" y="1294" on="0"/>
        <pt x="1092" y="1284" on="1"/>
        <pt x="1098" y="1268" on="0"/>
        <pt x="1099" y="1261" on="1"/>
        <pt x="1098" y="1221" on="1"/>
        <pt x="1107" y="1042" on="1"/>
        <pt x="1107" y="1031" on="0"/>
        <pt x="1105" y="1014" on="1"/>
        <pt x="1089" y="1007" on="0"/>
        <pt x="1076" y="1007" on="1"/>
        <pt x="1067" y="1007" on="0"/>
        <pt x="1062" y="1013" on="1"/>
        <pt x="1054" y="1024" on="0"/>
        <pt x="1052" y="1055" on="1"/>
        <pt x="1048" y="1098" on="0"/>
        <pt x="1021" y="1166" on="1"/>
        <pt x="1008" y="1198" on="0"/>
        <pt x="978" y="1210" on="1"/>
        <pt x="918" y="1233" on="0"/>
        <pt x="776" y="1233" on="1"/>
        <pt x="709" y="1233" on="0"/>
        <pt x="593" y="1226" on="0"/>
        <pt x="580" y="1226" on="1"/>
        <pt x="502" y="1227" on="1"/>
        <pt x="454" y="1227" on="0"/>
        <pt x="423" y="1213" on="1"/>
        <pt x="402" y="1204" on="0"/>
        <pt x="402" y="1170" on="1"/>
        <pt x="402" y="1155" on="1"/>
        <pt x="405" y="1104" on="0"/>
        <pt x="405" y="1042" on="1"/>
        <pt x="402" y="770" on="1"/>
        <pt x="402" y="730" on="0"/>
        <pt x="408" y="694" on="1"/>
        <pt x="437" y="692" on="1"/>
        <pt x="493" y="695" on="1"/>
        <pt x="684" y="695" on="1"/>
        <pt x="799" y="695" on="0"/>
        <pt x="844" y="711" on="1"/>
        <pt x="874" y="722" on="0"/>
        <pt x="889" y="744" on="1"/>
        <pt x="894" y="751" on="0"/>
        <pt x="914" y="823" on="1"/>
        <pt x="927" y="906" on="1"/>
        <pt x="939" y="912" on="0"/>
        <pt x="945" y="912" on="1"/>
        <pt x="950" y="912" on="0"/>
        <pt x="961" y="907" on="1"/>
        <pt x="965" y="884" on="0"/>
        <pt x="966" y="837" on="1"/>
        <pt x="978" y="469" on="1"/>
        <pt x="961" y="462" on="0"/>
        <pt x="952" y="462" on="1"/>
        <pt x="941" y="464" on="1"/>
        <pt x="925" y="564" on="0"/>
        <pt x="891" y="621" on="1"/>
        <pt x="879" y="641" on="0"/>
        <pt x="864" y="644" on="1"/>
        <pt x="838" y="650" on="0"/>
        <pt x="626" y="650" on="1"/>
        <pt x="560" y="650" on="0"/>
        <pt x="535" y="649" on="1"/>
        <pt x="475" y="646" on="0"/>
        <pt x="463" y="646" on="1"/>
        <pt x="453" y="646" on="1"/>
        <pt x="423" y="646" on="0"/>
        <pt x="410" y="638" on="1"/>
        <pt x="406" y="626" on="0"/>
        <pt x="406" y="621" on="1"/>
        <pt x="406" y="552" on="1"/>
        <pt x="406" y="540" on="0"/>
        <pt x="407" y="452" on="1"/>
        <pt x="405" y="121" on="1"/>
        <pt x="405" y="107" on="0"/>
        <pt x="413" y="86" on="1"/>
        <pt x="434" y="69" on="0"/>
        <pt x="545" y="58" on="0"/>
        <pt x="594" y="37" on="1"/>
        <pt x="622" y="24" on="0"/>
        <pt x="622" y="8" on="1"/>
        <pt x="622" y="1" on="0"/>
        <pt x="614" y="-11" on="0"/>
        <pt x="604" y="-14" on="1"/>
        <pt x="522" y="3" on="0"/>
        <pt x="377" y="3" on="1"/>
        <pt x="300" y="3" on="0"/>
        <pt x="214" y="-11" on="1"/>
        <pt x="155" y="-20" on="0"/>
        <pt x="79" y="-20" on="1"/>
      </contour>
    </TTGlyph>
    <TTGlyph name="G" xMin="95" yMin="-25" xMax="1553" yMax="1312">
      <contour>
        <pt x="1335" y="1214" on="1"/>
        <pt x="1346" y="1062" on="1"/>
        <pt x="1352" y="993" on="0"/>
        <pt x="1352" y="968" on="1"/>
        <pt x="1324" y="963" on="1"/>
        <pt x="1257" y="1115" on="0"/>
        <pt x="1058" y="1267" on="0"/>
        <pt x="914" y="1267" on="1"/>
        <pt x="738" y="1267" on="0"/>
        <pt x="640" y="1224" on="1"/>
        <pt x="498" y="1163" on="0"/>
        <pt x="296" y="861" on="0"/>
        <pt x="296" y="648" on="1"/>
        <pt x="296" y="525" on="0"/>
        <pt x="370" y="329" on="0"/>
        <pt x="505" y="160" on="0"/>
        <pt x="597" y="98" on="1"/>
        <pt x="657" y="57" on="0"/>
        <pt x="740" y="36" on="1"/>
        <pt x="787" y="25" on="0"/>
        <pt x="880" y="25" on="1"/>
        <pt x="940" y="25" on="0"/>
        <pt x="1086" y="59" on="0"/>
        <pt x="1160" y="116" on="0"/>
        <pt x="1187" y="188" on="0"/>
        <pt x="1187" y="292" on="1"/>
        <pt x="1187" y="465" on="0"/>
        <pt x="1141" y="522" on="0"/>
        <pt x="1019" y="531" on="1"/>
        <pt x="979" y="534" on="1"/>
        <pt x="952" y="533" on="1"/>
        <pt x="946" y="534" on="0"/>
        <pt x="936" y="536" on="1"/>
        <pt x="921" y="561" on="1"/>
        <pt x="921" y="566" on="0"/>
        <pt x="928" y="574" on="1"/>
        <pt x="980" y="582" on="0"/>
        <pt x="1154" y="582" on="1"/>
        <pt x="1193" y="582" on="0"/>
        <pt x="1281" y="580" on="1"/>
        <pt x="1384" y="576" on="1"/>
        <pt x="1477" y="577" on="1"/>
        <pt x="1504" y="577" on="0"/>
        <pt x="1542" y="575" on="1"/>
        <pt x="1549" y="574" on="0"/>
        <pt x="1553" y="569" on="0"/>
        <pt x="1553" y="563" on="1"/>
        <pt x="1553" y="552" on="0"/>
        <pt x="1548" y="535" on="1"/>
        <pt x="1506" y="526" on="0"/>
        <pt x="1483" y="526" on="1"/>
        <pt x="1418" y="527" on="1"/>
        <pt x="1385" y="527" on="0"/>
        <pt x="1365" y="504" on="1"/>
        <pt x="1355" y="493" on="0"/>
        <pt x="1355" y="429" on="1"/>
        <pt x="1356" y="298" on="1"/>
        <pt x="1356" y="163" on="0"/>
        <pt x="1345" y="126" on="1"/>
        <pt x="1339" y="104" on="0"/>
        <pt x="1301" y="69" on="0"/>
        <pt x="1240" y="45" on="1"/>
        <pt x="1153" y="10" on="0"/>
        <pt x="1082" y="-2" on="1"/>
        <pt x="950" y="-25" on="0"/>
        <pt x="827" y="-25" on="1"/>
        <pt x="629" y="-25" on="0"/>
        <pt x="376" y="76" on="0"/>
        <pt x="193" y="256" on="0"/>
        <pt x="154" y="348" on="1"/>
        <pt x="95" y="483" on="0"/>
        <pt x="95" y="623" on="1"/>
        <pt x="95" y="798" on="0"/>
        <pt x="280" y="1133" on="0"/>
        <pt x="486" y="1238" on="1"/>
        <pt x="631" y="1312" on="0"/>
        <pt x="880" y="1312" on="1"/>
        <pt x="1052" y="1312" on="0"/>
        <pt x="1271" y="1252" on="0"/>
      </contour>
    </TTGlyph>
    <TTGlyph name="Gamma" xMin="11" yMin="-6" xMax="1177" yMax="1274">
      <contour>
        <pt x="11" y="1273" on="1"/>
        <pt x="115" y="1274" on="1"/>
        <pt x="146" y="1274" on="0"/>
        <pt x="174" y="1271" on="1"/>
        <pt x="222" y="1267" on="0"/>
        <pt x="257" y="1267" on="1"/>
        <pt x="749" y="1263" on="1"/>
        <pt x="921" y="1270" on="1"/>
        <pt x="1120" y="1274" on="1"/>
        <pt x="1122" y="1262" on="0"/>
        <pt x="1126" y="1222" on="1"/>
        <pt x="1143" y="1109" on="1"/>
        <pt x="1164" y="1002" on="1"/>
        <pt x="1172" y="967" on="0"/>
        <pt x="1177" y="934" on="1"/>
        <pt x="1144" y="934" on="1"/>
        <pt x="1113" y="1011" on="0"/>
        <pt x="1093" y="1037" on="1"/>
        <pt x="1078" y="1057" on="0"/>
        <pt x="1071" y="1069" on="1"/>
        <pt x="1040" y="1111" on="0"/>
        <pt x="946" y="1190" on="0"/>
        <pt x="890" y="1214" on="0"/>
        <pt x="815" y="1216" on="1"/>
        <pt x="639" y="1223" on="1"/>
        <pt x="475" y="1222" on="1"/>
        <pt x="454" y="1222" on="0"/>
        <pt x="430" y="1221" on="1"/>
        <pt x="420" y="1215" on="0"/>
        <pt x="420" y="1193" on="1"/>
        <pt x="419" y="1121" on="1"/>
        <pt x="422" y="840" on="1"/>
        <pt x="421" y="564" on="1"/>
        <pt x="420" y="508" on="1"/>
        <pt x="420" y="446" on="1"/>
        <pt x="419" y="260" on="1"/>
        <pt x="419" y="201" on="1"/>
        <pt x="421" y="141" on="1"/>
        <pt x="421" y="64" on="0"/>
        <pt x="470" y="45" on="0"/>
        <pt x="597" y="43" on="1"/>
        <pt x="637" y="42" on="0"/>
        <pt x="655" y="38" on="1"/>
        <pt x="662" y="15" on="0"/>
        <pt x="662" y="0" on="1"/>
        <pt x="629" y="-3" on="0"/>
        <pt x="548" y="-3" on="1"/>
        <pt x="514" y="-3" on="0"/>
        <pt x="479" y="1" on="1"/>
        <pt x="464" y="3" on="0"/>
        <pt x="406" y="3" on="1"/>
        <pt x="399" y="3" on="0"/>
        <pt x="386" y="2" on="1"/>
        <pt x="373" y="2" on="1"/>
        <pt x="345" y="3" on="1"/>
        <pt x="323" y="2" on="1"/>
        <pt x="277" y="3" on="1"/>
        <pt x="257" y="1" on="1"/>
        <pt x="231" y="-1" on="0"/>
        <pt x="189" y="-2" on="1"/>
        <pt x="105" y="-4" on="1"/>
        <pt x="43" y="-6" on="1"/>
        <pt x="42" y="4" on="0"/>
        <pt x="42" y="9" on="1"/>
        <pt x="42" y="15" on="0"/>
        <pt x="43" y="26" on="1"/>
        <pt x="225" y="57" on="0"/>
        <pt x="243" y="70" on="1"/>
        <pt x="252" y="81" on="0"/>
        <pt x="252" y="178" on="1"/>
        <pt x="253" y="361" on="1"/>
        <pt x="252" y="657" on="1"/>
        <pt x="253" y="837" on="1"/>
        <pt x="247" y="1086" on="1"/>
        <pt x="244" y="1186" on="0"/>
        <pt x="217" y="1215" on="0"/>
        <pt x="171" y="1219" on="1"/>
        <pt x="93" y="1226" on="0"/>
        <pt x="19" y="1246" on="1"/>
        <pt x="11" y="1258" on="0"/>
      </contour>
    </TTGlyph>
    <TTGlyph name="Gbreve" xMin="95" yMin="-25" xMax="1553" yMax="1688">
      <component glyphName="G" x="0" y="0" flags="0x200"/>
      <component glyphName="breve" x="448" y="455" flags="0x4"/>
    </TTGlyph>
    <TTGlyph name="Gcedilla" xMin="95" yMin="-621" xMax="1553" yMax="1312">
      <component glyphName="G" x="0" y="0" flags="0x214"/>
      <component glyphName="commaaccent" x="488" y="-1472" flags="0x14"/>
    </TTGlyph>
    <TTGlyph name="Gcircumflex" xMin="95" yMin="-25" xMax="1553" yMax="1760">
      <component glyphName="G" x="0" y="0" flags="0x214"/>
      <component glyphName="circumflex" x="532" y="428" flags="0x14"/>
    </TTGlyph>
    <TTGlyph name="Gdot" xMin="95" yMin="-25" xMax="1553" yMax="1573">
      <component glyphName="G" x="0" y="0" flags="0x214"/>
      <component glyphName="dotaccent" x="484" y="344" flags="0x14"/>
    </TTGlyph>
    <TTGlyph name="H" xMin="39" yMin="-21" xMax="1504" yMax="1289">
      <contour>
        <pt x="39" y="-15" on="1"/>
        <pt x="40" y="7" on="1"/>
        <pt x="74" y="26" on="0"/>
        <pt x="119" y="31" on="1"/>
        <pt x="190" y="40" on="0"/>
        <pt x="228" y="59" on="0"/>
        <pt x="236" y="76" on="1"/>
        <pt x="250" y="109" on="0"/>
        <pt x="250" y="143" on="1"/>
        <pt x="248" y="219" on="1"/>
        <pt x="249" y="289" on="1"/>
        <pt x="247" y="371" on="1"/>
        <pt x="247" y="422" on="0"/>
        <pt x="253" y="575" on="0"/>
        <pt x="253" y="580" on="1"/>
        <pt x="253" y="853" on="1"/>
        <pt x="253" y="918" on="0"/>
        <pt x="259" y="1069" on="0"/>
        <pt x="259" y="1098" on="1"/>
        <pt x="259" y="1184" on="0"/>
        <pt x="251" y="1212" on="0"/>
        <pt x="229" y="1224" on="0"/>
        <pt x="168" y="1229" on="1"/>
        <pt x="121" y="1233" on="0"/>
        <pt x="103" y="1236" on="1"/>
        <pt x="98" y="1247" on="0"/>
        <pt x="98" y="1254" on="1"/>
        <pt x="98" y="1262" on="0"/>
        <pt x="99" y="1273" on="1"/>
        <pt x="123" y="1275" on="0"/>
        <pt x="136" y="1275" on="1"/>
        <pt x="230" y="1274" on="1"/>
        <pt x="330" y="1274" on="0"/>
        <pt x="442" y="1282" on="1"/>
        <pt x="497" y="1286" on="0"/>
        <pt x="608" y="1289" on="1"/>
        <pt x="610" y="1280" on="0"/>
        <pt x="610" y="1272" on="1"/>
        <pt x="610" y="1262" on="0"/>
        <pt x="601" y="1251" on="0"/>
        <pt x="590" y="1249" on="1"/>
        <pt x="459" y="1238" on="0"/>
        <pt x="412" y="1195" on="0"/>
        <pt x="412" y="1107" on="1"/>
        <pt x="412" y="945" on="0"/>
        <pt x="417" y="773" on="1"/>
        <pt x="421" y="679" on="1"/>
        <pt x="426" y="675" on="0"/>
        <pt x="551" y="669" on="1"/>
        <pt x="585" y="667" on="0"/>
        <pt x="591" y="667" on="1"/>
        <pt x="738" y="669" on="1"/>
        <pt x="835" y="666" on="1"/>
        <pt x="1089" y="674" on="1"/>
        <pt x="1136" y="675" on="0"/>
        <pt x="1146" y="678" on="1"/>
        <pt x="1152" y="852" on="0"/>
        <pt x="1152" y="1015" on="1"/>
        <pt x="1152" y="1172" on="0"/>
        <pt x="1145" y="1200" on="1"/>
        <pt x="1141" y="1217" on="0"/>
        <pt x="1131" y="1223" on="1"/>
        <pt x="1125" y="1226" on="0"/>
        <pt x="1027" y="1239" on="1"/>
        <pt x="1010" y="1241" on="0"/>
        <pt x="995" y="1244" on="1"/>
        <pt x="990" y="1259" on="0"/>
        <pt x="990" y="1278" on="1"/>
        <pt x="1024" y="1283" on="0"/>
        <pt x="1033" y="1283" on="1"/>
        <pt x="1099" y="1279" on="1"/>
        <pt x="1190" y="1274" on="0"/>
        <pt x="1282" y="1274" on="1"/>
        <pt x="1341" y="1274" on="0"/>
        <pt x="1478" y="1284" on="1"/>
        <pt x="1477" y="1264" on="0"/>
        <pt x="1473" y="1248" on="1"/>
        <pt x="1435" y="1233" on="0"/>
        <pt x="1382" y="1229" on="1"/>
        <pt x="1348" y="1227" on="0"/>
        <pt x="1325" y="1218" on="1"/>
        <pt x="1306" y="1204" on="0"/>
        <pt x="1306" y="1161" on="1"/>
        <pt x="1306" y="1151" on="0"/>
        <pt x="1307" y="1139" on="1"/>
        <pt x="1308" y="1103" on="0"/>
        <pt x="1308" y="1092" on="1"/>
        <pt x="1308" y="977" on="1"/>
        <pt x="1309" y="905" on="1"/>
        <pt x="1307" y="812" on="1"/>
        <pt x="1308" y="638" on="1"/>
        <pt x="1306" y="474" on="1"/>
        <pt x="1306" y="425" on="0"/>
        <pt x="1309" y="321" on="1"/>
        <pt x="1308" y="186" on="1"/>
        <pt x="1308" y="118" on="0"/>
        <pt x="1320" y="89" on="1"/>
        <pt x="1326" y="75" on="0"/>
        <pt x="1340" y="69" on="1"/>
        <pt x="1421" y="51" on="1"/>
        <pt x="1481" y="36" on="0"/>
        <pt x="1504" y="17" on="0"/>
        <pt x="1504" y="4" on="1"/>
        <pt x="1501" y="-8" on="1"/>
        <pt x="1496" y="-9" on="1"/>
        <pt x="1491" y="-9" on="0"/>
        <pt x="1483" y="-7" on="1"/>
        <pt x="1374" y="13" on="0"/>
        <pt x="1254" y="13" on="1"/>
        <pt x="1160" y="13" on="0"/>
        <pt x="1081" y="7" on="0"/>
        <pt x="956" y="-12" on="1"/>
        <pt x="954" y="1" on="0"/>
        <pt x="954" y="7" on="1"/>
        <pt x="954" y="14" on="0"/>
        <pt x="956" y="26" on="1"/>
        <pt x="987" y="44" on="0"/>
        <pt x="1054" y="51" on="1"/>
        <pt x="1104" y="56" on="0"/>
        <pt x="1133" y="83" on="1"/>
        <pt x="1152" y="101" on="0"/>
        <pt x="1152" y="136" on="1"/>
        <pt x="1151" y="280" on="1"/>
        <pt x="1154" y="345" on="0"/>
        <pt x="1154" y="351" on="1"/>
        <pt x="1154" y="436" on="0"/>
        <pt x="1151" y="599" on="1"/>
        <pt x="1148" y="613" on="0"/>
        <pt x="1140" y="616" on="1"/>
        <pt x="1113" y="625" on="0"/>
        <pt x="874" y="612" on="1"/>
        <pt x="826" y="609" on="0"/>
        <pt x="802" y="609" on="1"/>
        <pt x="778" y="609" on="0"/>
        <pt x="625" y="614" on="0"/>
        <pt x="560" y="614" on="1"/>
        <pt x="525" y="614" on="0"/>
        <pt x="501" y="613" on="1"/>
        <pt x="455" y="612" on="0"/>
        <pt x="450" y="612" on="1"/>
        <pt x="427" y="612" on="0"/>
        <pt x="410" y="594" on="0"/>
        <pt x="410" y="570" on="1"/>
        <pt x="411" y="500" on="1"/>
        <pt x="411" y="483" on="0"/>
        <pt x="406" y="311" on="1"/>
        <pt x="405" y="276" on="0"/>
        <pt x="405" y="253" on="1"/>
        <pt x="405" y="116" on="0"/>
        <pt x="415" y="71" on="1"/>
        <pt x="420" y="50" on="0"/>
        <pt x="433" y="42" on="1"/>
        <pt x="442" y="36" on="0"/>
        <pt x="511" y="21" on="1"/>
        <pt x="557" y="11" on="0"/>
        <pt x="581" y="2" on="1"/>
        <pt x="587" y="-8" on="1"/>
        <pt x="587" y="-13" on="0"/>
        <pt x="583" y="-16" on="1"/>
        <pt x="577" y="-21" on="0"/>
        <pt x="566" y="-21" on="1"/>
        <pt x="558" y="-21" on="0"/>
        <pt x="536" y="-20" on="0"/>
        <pt x="504" y="-19" on="1"/>
        <pt x="453" y="-18" on="0"/>
        <pt x="377" y="-12" on="1"/>
        <pt x="328" y="-8" on="0"/>
        <pt x="290" y="-8" on="1"/>
        <pt x="226" y="-8" on="0"/>
        <pt x="85" y="-14" on="1"/>
        <pt x="58" y="-15" on="0"/>
      </contour>
    </TTGlyph>
    <TTGlyph name="H18533" xMin="178" yMin="137" xMax="1059" yMax="1018">
      <contour>
        <pt x="1059" y="578" on="1"/>
        <pt x="1059" y="396" on="0"/>
        <pt x="800" y="137" on="0"/>
        <pt x="619" y="137" on="1"/>
        <pt x="436" y="137" on="0"/>
        <pt x="178" y="395" on="0"/>
        <pt x="178" y="578" on="1"/>
        <pt x="178" y="760" on="0"/>
        <pt x="437" y="1018" on="0"/>
        <pt x="619" y="1018" on="1"/>
        <pt x="800" y="1018" on="0"/>
        <pt x="1059" y="759" on="0"/>
      </contour>
    </TTGlyph>
    <TTGlyph name="H18543" xMin="92" yMin="405" xMax="635" yMax="948">
      <contour>
        <pt x="635" y="948" on="1"/>
        <pt x="635" y="405" on="1"/>
        <pt x="92" y="405" on="1"/>
        <pt x="92" y="948" on="1"/>
      </contour>
    </TTGlyph>
    <TTGlyph name="H18551" xMin="92" yMin="405" xMax="635" yMax="948">
      <contour>
        <pt x="635" y="948" on="1"/>
        <pt x="635" y="405" on="1"/>
        <pt x="92" y="405" on="1"/>
        <pt x="92" y="948" on="1"/>
      </contour>
      <contour>
        <pt x="559" y="872" on="1"/>
        <pt x="168" y="872" on="1"/>
        <pt x="168" y="481" on="1"/>
        <pt x="559" y="481" on="1"/>
      </contour>
    </TTGlyph>
    <TTGlyph name="H22073" xMin="146" yMin="0" xMax="1090" yMax="944">
      <contour>
        <pt x="146" y="944" on="1"/>
        <pt x="1090" y="944" on="1"/>
        <pt x="1090" y="0" on="1"/>
        <pt x="146" y="0" on="1"/>
      </contour>
      <contour>
        <pt x="222" y="868" on="1"/>
        <pt x="222" y="76" on="1"/>
        <pt x="1014" y="76" on="1"/>
        <pt x="1014" y="868" on="1"/>
      </contour>
    </TTGlyph>
    <TTGlyph name="Hbar" xMin="39" yMin="-21" xMax="1504" yMax="1289">
      <contour>
        <pt x="254" y="932" on="1"/>
        <pt x="85" y="931" on="1"/>
        <pt x="83" y="956" on="0"/>
        <pt x="83" y="968" on="1"/>
        <pt x="83" y="977" on="0"/>
        <pt x="84" y="994" on="1"/>
        <pt x="212" y="992" on="1"/>
        <pt x="256" y="993" on="1"/>
        <pt x="259" y="1012" on="0"/>
        <pt x="259" y="1100" on="1"/>
        <pt x="259" y="1201" on="0"/>
        <pt x="241" y="1222" on="0"/>
        <pt x="168" y="1229" on="1"/>
        <pt x="112" y="1234" on="0"/>
        <pt x="103" y="1236" on="1"/>
        <pt x="98" y="1246" on="0"/>
        <pt x="98" y="1254" on="1"/>
        <pt x="98" y="1262" on="0"/>
        <pt x="99" y="1273" on="1"/>
        <pt x="123" y="1275" on="0"/>
        <pt x="137" y="1275" on="1"/>
        <pt x="230" y="1274" on="1"/>
        <pt x="330" y="1274" on="0"/>
        <pt x="442" y="1282" on="1"/>
        <pt x="497" y="1286" on="0"/>
        <pt x="608" y="1289" on="1"/>
        <pt x="610" y="1280" on="0"/>
        <pt x="610" y="1273" on="1"/>
        <pt x="610" y="1251" on="0"/>
        <pt x="590" y="1249" on="1"/>
        <pt x="444" y="1241" on="0"/>
        <pt x="412" y="1177" on="0"/>
        <pt x="412" y="1104" on="1"/>
        <pt x="412" y="1061" on="1"/>
        <pt x="413" y="1033" on="1"/>
        <pt x="413" y="994" on="0"/>
        <pt x="423" y="980" on="0"/>
        <pt x="457" y="980" on="1"/>
        <pt x="731" y="989" on="1"/>
        <pt x="1039" y="988" on="1"/>
        <pt x="1077" y="986" on="0"/>
        <pt x="1102" y="986" on="1"/>
        <pt x="1142" y="986" on="0"/>
        <pt x="1153" y="1003" on="0"/>
        <pt x="1153" y="1088" on="1"/>
        <pt x="1153" y="1153" on="0"/>
        <pt x="1142" y="1215" on="0"/>
        <pt x="1126" y="1226" on="0"/>
        <pt x="1059" y="1234" on="1"/>
        <pt x="1027" y="1239" on="1"/>
        <pt x="1008" y="1241" on="0"/>
        <pt x="995" y="1244" on="1"/>
        <pt x="990" y="1258" on="0"/>
        <pt x="990" y="1278" on="1"/>
        <pt x="1024" y="1283" on="0"/>
        <pt x="1034" y="1283" on="1"/>
        <pt x="1164" y="1276" on="1"/>
        <pt x="1189" y="1274" on="0"/>
        <pt x="1296" y="1274" on="1"/>
        <pt x="1340" y="1274" on="0"/>
        <pt x="1478" y="1284" on="1"/>
        <pt x="1477" y="1263" on="0"/>
        <pt x="1473" y="1248" on="1"/>
        <pt x="1440" y="1233" on="0"/>
        <pt x="1382" y="1229" on="1"/>
        <pt x="1344" y="1226" on="0"/>
        <pt x="1325" y="1218" on="1"/>
        <pt x="1306" y="1204" on="0"/>
        <pt x="1306" y="1161" on="1"/>
        <pt x="1306" y="1151" on="0"/>
        <pt x="1307" y="1139" on="1"/>
        <pt x="1308" y="994" on="1"/>
        <pt x="1498" y="997" on="1"/>
        <pt x="1494" y="977" on="0"/>
        <pt x="1494" y="967" on="1"/>
        <pt x="1494" y="957" on="0"/>
        <pt x="1498" y="934" on="1"/>
        <pt x="1309" y="934" on="1"/>
        <pt x="1309" y="905" on="1"/>
        <pt x="1307" y="812" on="1"/>
        <pt x="1308" y="638" on="1"/>
        <pt x="1306" y="474" on="1"/>
        <pt x="1309" y="321" on="1"/>
        <pt x="1309" y="97" on="0"/>
        <pt x="1333" y="67" on="0"/>
        <pt x="1402" y="55" on="1"/>
        <pt x="1475" y="38" on="0"/>
        <pt x="1504" y="22" on="0"/>
        <pt x="1504" y="4" on="1"/>
        <pt x="1504" y="0" on="0"/>
        <pt x="1501" y="-8" on="1"/>
        <pt x="1497" y="-9" on="0"/>
        <pt x="1496" y="-9" on="1"/>
        <pt x="1491" y="-9" on="0"/>
        <pt x="1483" y="-7" on="1"/>
        <pt x="1374" y="13" on="0"/>
        <pt x="1257" y="13" on="1"/>
        <pt x="1123" y="13" on="0"/>
        <pt x="956" y="-12" on="1"/>
        <pt x="954" y="1" on="0"/>
        <pt x="954" y="8" on="1"/>
        <pt x="954" y="14" on="0"/>
        <pt x="956" y="26" on="1"/>
        <pt x="982" y="43" on="0"/>
        <pt x="1054" y="51" on="1"/>
        <pt x="1152" y="61" on="0"/>
        <pt x="1152" y="136" on="1"/>
        <pt x="1151" y="280" on="1"/>
        <pt x="1153" y="311" on="1"/>
        <pt x="1154" y="353" on="1"/>
        <pt x="1151" y="599" on="1"/>
        <pt x="1148" y="613" on="0"/>
        <pt x="1129" y="620" on="0"/>
        <pt x="1093" y="620" on="1"/>
        <pt x="1022" y="620" on="0"/>
        <pt x="874" y="612" on="1"/>
        <pt x="826" y="609" on="0"/>
        <pt x="802" y="609" on="1"/>
        <pt x="699" y="612" on="1"/>
        <pt x="560" y="614" on="1"/>
        <pt x="525" y="614" on="0"/>
        <pt x="501" y="613" on="1"/>
        <pt x="450" y="612" on="1"/>
        <pt x="410" y="612" on="0"/>
        <pt x="410" y="570" on="1"/>
        <pt x="411" y="500" on="1"/>
        <pt x="406" y="311" on="1"/>
        <pt x="405" y="253" on="1"/>
        <pt x="405" y="131" on="0"/>
        <pt x="418" y="55" on="0"/>
        <pt x="439" y="36" on="0"/>
        <pt x="511" y="21" on="1"/>
        <pt x="564" y="10" on="0"/>
        <pt x="581" y="2" on="1"/>
        <pt x="587" y="-4" on="0"/>
        <pt x="587" y="-8" on="1"/>
        <pt x="587" y="-21" on="0"/>
        <pt x="566" y="-21" on="1"/>
        <pt x="558" y="-21" on="0"/>
        <pt x="546" y="-20" on="1"/>
        <pt x="504" y="-19" on="1"/>
        <pt x="453" y="-18" on="0"/>
        <pt x="377" y="-12" on="1"/>
        <pt x="328" y="-8" on="0"/>
        <pt x="290" y="-8" on="1"/>
        <pt x="85" y="-14" on="1"/>
        <pt x="39" y="-15" on="1"/>
        <pt x="40" y="7" on="1"/>
        <pt x="70" y="25" on="0"/>
        <pt x="119" y="31" on="1"/>
        <pt x="203" y="41" on="0"/>
        <pt x="247" y="80" on="0"/>
        <pt x="250" y="143" on="1"/>
        <pt x="248" y="219" on="1"/>
        <pt x="249" y="289" on="1"/>
        <pt x="248" y="318" on="1"/>
        <pt x="247" y="371" on="1"/>
        <pt x="247" y="422" on="0"/>
        <pt x="251" y="503" on="1"/>
        <pt x="253" y="580" on="1"/>
      </contour>
      <contour>
        <pt x="1146" y="678" on="1"/>
        <pt x="1146" y="697" on="0"/>
        <pt x="1147" y="706" on="1"/>
        <pt x="1155" y="912" on="1"/>
        <pt x="1155" y="931" on="0"/>
        <pt x="1128" y="931" on="1"/>
        <pt x="1101" y="929" on="0"/>
        <pt x="1065" y="929" on="1"/>
        <pt x="1007" y="930" on="1"/>
        <pt x="714" y="933" on="1"/>
        <pt x="447" y="931" on="1"/>
        <pt x="424" y="931" on="0"/>
        <pt x="414" y="920" on="0"/>
        <pt x="414" y="898" on="1"/>
        <pt x="415" y="831" on="1"/>
        <pt x="419" y="707" on="1"/>
        <pt x="420" y="685" on="1"/>
        <pt x="420" y="667" on="0"/>
        <pt x="592" y="667" on="1"/>
        <pt x="738" y="669" on="1"/>
        <pt x="793" y="666" on="0"/>
        <pt x="835" y="666" on="1"/>
        <pt x="909" y="666" on="0"/>
        <pt x="985" y="670" on="1"/>
        <pt x="1027" y="672" on="1"/>
        <pt x="1134" y="675" on="0"/>
      </contour>
    </TTGlyph>
    <TTGlyph name="Hcircumflex" xMin="39" yMin="-21" xMax="1504" yMax="1764">
      <component glyphName="H" x="0" y="0" flags="0x214"/>
      <component glyphName="circumflex" x="452" y="432" flags="0x14"/>
    </TTGlyph>
    <TTGlyph name="I" xMin="43" yMin="0" xMax="664" yMax="1279">
      <contour>
        <pt x="43" y="32" on="1"/>
        <pt x="65" y="41" on="0"/>
        <pt x="88" y="43" on="1"/>
        <pt x="241" y="53" on="0"/>
        <pt x="285" y="106" on="0"/>
        <pt x="285" y="336" on="1"/>
        <pt x="284" y="441" on="1"/>
        <pt x="284" y="551" on="1"/>
        <pt x="280" y="672" on="1"/>
        <pt x="282" y="743" on="1"/>
        <pt x="281" y="821" on="1"/>
        <pt x="281" y="913" on="1"/>
        <pt x="279" y="954" on="1"/>
        <pt x="281" y="1006" on="1"/>
        <pt x="282" y="1024" on="0"/>
        <pt x="282" y="1048" on="1"/>
        <pt x="282" y="1111" on="0"/>
        <pt x="276" y="1181" on="1"/>
        <pt x="272" y="1195" on="0"/>
        <pt x="265" y="1208" on="1"/>
        <pt x="228" y="1227" on="0"/>
        <pt x="63" y="1240" on="0"/>
        <pt x="52" y="1248" on="1"/>
        <pt x="44" y="1254" on="0"/>
        <pt x="43" y="1279" on="1"/>
        <pt x="127" y="1279" on="1"/>
        <pt x="392" y="1273" on="1"/>
        <pt x="494" y="1273" on="0"/>
        <pt x="664" y="1279" on="1"/>
        <pt x="664" y="1263" on="0"/>
        <pt x="662" y="1249" on="1"/>
        <pt x="642" y="1244" on="0"/>
        <pt x="595" y="1238" on="1"/>
        <pt x="500" y="1227" on="0"/>
        <pt x="479" y="1217" on="1"/>
        <pt x="466" y="1212" on="0"/>
        <pt x="460" y="1200" on="1"/>
        <pt x="450" y="1182" on="0"/>
        <pt x="448" y="1133" on="1"/>
        <pt x="443" y="1004" on="1"/>
        <pt x="447" y="559" on="1"/>
        <pt x="447" y="383" on="1"/>
        <pt x="445" y="300" on="0"/>
        <pt x="445" y="270" on="1"/>
        <pt x="445" y="158" on="0"/>
        <pt x="456" y="96" on="0"/>
        <pt x="483" y="69" on="0"/>
        <pt x="514" y="61" on="1"/>
        <pt x="560" y="50" on="0"/>
        <pt x="586" y="49" on="1"/>
        <pt x="642" y="47" on="0"/>
        <pt x="657" y="33" on="1"/>
        <pt x="660" y="20" on="0"/>
        <pt x="660" y="11" on="1"/>
        <pt x="660" y="3" on="1"/>
        <pt x="569" y="0" on="0"/>
        <pt x="526" y="0" on="1"/>
        <pt x="501" y="0" on="0"/>
        <pt x="437" y="3" on="1"/>
        <pt x="299" y="1" on="1"/>
        <pt x="64" y="2" on="1"/>
        <pt x="45" y="2" on="1"/>
      </contour>
    </TTGlyph>
    <TTGlyph name="IJ" xMin="43" yMin="-518" xMax="1295" yMax="1279">
      <contour>
        <pt x="743" y="-417" on="1"/>
        <pt x="748" y="-422" on="1"/>
        <pt x="770" y="-442" on="0"/>
        <pt x="798" y="-442" on="1"/>
        <pt x="883" y="-442" on="0"/>
        <pt x="995" y="-229" on="0"/>
        <pt x="995" y="-6" on="1"/>
        <pt x="994" y="150" on="1"/>
        <pt x="995" y="175" on="1"/>
        <pt x="996" y="257" on="1"/>
        <pt x="996" y="380" on="0"/>
        <pt x="992" y="475" on="1"/>
        <pt x="986" y="640" on="1"/>
        <pt x="984" y="807" on="1"/>
        <pt x="981" y="967" on="1"/>
        <pt x="983" y="1160" on="1"/>
        <pt x="983" y="1203" on="0"/>
        <pt x="932" y="1237" on="0"/>
        <pt x="840" y="1237" on="1"/>
        <pt x="792" y="1237" on="0"/>
        <pt x="785" y="1244" on="1"/>
        <pt x="782" y="1259" on="0"/>
        <pt x="782" y="1267" on="1"/>
        <pt x="782" y="1271" on="0"/>
        <pt x="783" y="1279" on="1"/>
        <pt x="801" y="1279" on="0"/>
        <pt x="837" y="1277" on="1"/>
        <pt x="898" y="1274" on="0"/>
        <pt x="957" y="1274" on="1"/>
        <pt x="1032" y="1275" on="1"/>
        <pt x="1066" y="1277" on="0"/>
        <pt x="1080" y="1277" on="1"/>
        <pt x="1289" y="1277" on="0"/>
        <pt x="1295" y="1274" on="1"/>
        <pt x="1294" y="1249" on="0"/>
        <pt x="1292" y="1238" on="1"/>
        <pt x="1209" y="1234" on="0"/>
        <pt x="1159" y="1219" on="0"/>
        <pt x="1143" y="1193" on="0"/>
        <pt x="1142" y="1145" on="1"/>
        <pt x="1138" y="1065" on="1"/>
        <pt x="1140" y="1040" on="1"/>
        <pt x="1141" y="944" on="1"/>
        <pt x="1141" y="895" on="0"/>
        <pt x="1143" y="869" on="1"/>
        <pt x="1145" y="821" on="1"/>
        <pt x="1143" y="774" on="1"/>
        <pt x="1142" y="763" on="0"/>
        <pt x="1142" y="755" on="1"/>
        <pt x="1150" y="596" on="1"/>
        <pt x="1154" y="477" on="1"/>
        <pt x="1152" y="298" on="1"/>
        <pt x="1152" y="182" on="1"/>
        <pt x="1152" y="85" on="0"/>
        <pt x="1088" y="-217" on="0"/>
        <pt x="944" y="-439" on="0"/>
        <pt x="796" y="-518" on="0"/>
        <pt x="680" y="-518" on="1"/>
        <pt x="632" y="-518" on="0"/>
        <pt x="553" y="-476" on="0"/>
        <pt x="553" y="-432" on="1"/>
        <pt x="553" y="-396" on="0"/>
        <pt x="600" y="-351" on="0"/>
        <pt x="622" y="-351" on="1"/>
        <pt x="669" y="-351" on="0"/>
        <pt x="728" y="-404" on="1"/>
        <pt x="740" y="-415" on="0"/>
      </contour>
      <contour>
        <pt x="43" y="32" on="1"/>
        <pt x="63" y="41" on="0"/>
        <pt x="88" y="43" on="1"/>
        <pt x="129" y="45" on="0"/>
        <pt x="181" y="53" on="1"/>
        <pt x="191" y="54" on="1"/>
        <pt x="257" y="61" on="0"/>
        <pt x="285" y="122" on="0"/>
        <pt x="285" y="336" on="1"/>
        <pt x="284" y="441" on="1"/>
        <pt x="280" y="672" on="1"/>
        <pt x="282" y="743" on="1"/>
        <pt x="281" y="820" on="1"/>
        <pt x="281" y="913" on="1"/>
        <pt x="279" y="954" on="1"/>
        <pt x="281" y="1006" on="1"/>
        <pt x="282" y="1024" on="0"/>
        <pt x="282" y="1048" on="1"/>
        <pt x="282" y="1114" on="0"/>
        <pt x="276" y="1181" on="1"/>
        <pt x="272" y="1195" on="0"/>
        <pt x="265" y="1208" on="1"/>
        <pt x="237" y="1226" on="0"/>
        <pt x="139" y="1234" on="1"/>
        <pt x="66" y="1240" on="0"/>
        <pt x="44" y="1253" on="0"/>
        <pt x="43" y="1279" on="1"/>
        <pt x="229" y="1276" on="1"/>
        <pt x="392" y="1273" on="1"/>
        <pt x="664" y="1279" on="1"/>
        <pt x="664" y="1262" on="0"/>
        <pt x="662" y="1249" on="1"/>
        <pt x="652" y="1246" on="0"/>
        <pt x="595" y="1238" on="1"/>
        <pt x="499" y="1227" on="0"/>
        <pt x="443" y="1201" on="0"/>
        <pt x="443" y="1004" on="1"/>
        <pt x="447" y="559" on="1"/>
        <pt x="447" y="383" on="1"/>
        <pt x="446" y="339" on="1"/>
        <pt x="445" y="270" on="1"/>
        <pt x="445" y="142" on="0"/>
        <pt x="464" y="79" on="0"/>
        <pt x="534" y="51" on="0"/>
        <pt x="586" y="49" on="1"/>
        <pt x="649" y="47" on="0"/>
        <pt x="657" y="33" on="1"/>
        <pt x="660" y="21" on="0"/>
        <pt x="660" y="3" on="1"/>
        <pt x="526" y="0" on="1"/>
        <pt x="437" y="3" on="1"/>
        <pt x="299" y="1" on="1"/>
        <pt x="64" y="2" on="1"/>
        <pt x="45" y="2" on="1"/>
      </contour>
    </TTGlyph>
    <TTGlyph name="Iacute" xMin="43" yMin="0" xMax="664" yMax="1714">
      <component glyphName="I" x="0" y="0" flags="0x200"/>
      <component glyphName="acute" x="-21" y="422" flags="0x4"/>
    </TTGlyph>
    <TTGlyph name="Ibreve" xMin="43" yMin="0" xMax="664" yMax="1697">
      <component glyphName="I" x="0" y="0" flags="0x214"/>
      <component glyphName="breve" x="-12" y="464" flags="0x14"/>
    </TTGlyph>
    <TTGlyph name="Icircumflex" xMin="43" yMin="0" xMax="664" yMax="1761">
      <component glyphName="I" x="0" y="0" flags="0x200"/>
      <component glyphName="circumflex" x="0" y="429" flags="0x4"/>
    </TTGlyph>
    <TTGlyph name="Idieresis" xMin="43" yMin="0" xMax="664" yMax="1579">
      <component glyphName="I" x="0" y="0" flags="0x200"/>
      <component glyphName="dieresis" x="-10" y="350" flags="0x4"/>
    </TTGlyph>
    <TTGlyph name="Idotaccent" xMin="43" yMin="0" xMax="664" yMax="1658">
      <component glyphName="I" x="0" y="0" flags="0x200"/>
      <component glyphName="dotaccent" x="15" y="429" flags="0x4"/>
    </TTGlyph>
    <TTGlyph name="Igrave" xMin="43" yMin="0" xMax="664" yMax="1715">
      <component glyphName="I" x="0" y="0" flags="0x200"/>
      <component glyphName="grave" x="0" y="422" flags="0x4"/>
    </TTGlyph>
    <TTGlyph name="Imacron" xMin="43" yMin="0" xMax="664" yMax="1589">
      <component glyphName="I" x="0" y="0" flags="0x214"/>
      <component glyphName="macron" x="-8" y="404" flags="0x14"/>
    </TTGlyph>
    <TTGlyph name="Iogonek" xMin="43" yMin="-364" xMax="664" yMax="1279">
      <contour>
        <pt x="331" y="2" on="1"/>
        <pt x="302" y="-56" on="0"/>
        <pt x="302" y="-98" on="1"/>
        <pt x="302" y="-171" on="0"/>
        <pt x="422" y="-281" on="0"/>
        <pt x="497" y="-281" on="1"/>
        <pt x="564" y="-281" on="0"/>
        <pt x="634" y="-228" on="1"/>
        <pt x="660" y="-254" on="1"/>
        <pt x="552" y="-364" on="0"/>
        <pt x="423" y="-364" on="1"/>
        <pt x="325" y="-364" on="0"/>
        <pt x="197" y="-247" on="0"/>
        <pt x="197" y="-166" on="1"/>
        <pt x="197" y="-94" on="0"/>
        <pt x="269" y="1" on="1"/>
        <pt x="84" y="3" on="1"/>
        <pt x="45" y="2" on="1"/>
        <pt x="43" y="32" on="1"/>
        <pt x="63" y="41" on="0"/>
        <pt x="88" y="43" on="1"/>
        <pt x="129" y="45" on="0"/>
        <pt x="181" y="53" on="1"/>
        <pt x="191" y="54" on="1"/>
        <pt x="257" y="61" on="0"/>
        <pt x="285" y="122" on="0"/>
        <pt x="285" y="336" on="1"/>
        <pt x="284" y="441" on="1"/>
        <pt x="280" y="672" on="1"/>
        <pt x="282" y="743" on="1"/>
        <pt x="281" y="820" on="1"/>
        <pt x="281" y="913" on="1"/>
        <pt x="279" y="954" on="1"/>
        <pt x="281" y="1006" on="1"/>
        <pt x="282" y="1024" on="0"/>
        <pt x="282" y="1048" on="1"/>
        <pt x="282" y="1114" on="0"/>
        <pt x="276" y="1181" on="1"/>
        <pt x="272" y="1195" on="0"/>
        <pt x="265" y="1208" on="1"/>
        <pt x="237" y="1226" on="0"/>
        <pt x="139" y="1234" on="1"/>
        <pt x="66" y="1240" on="0"/>
        <pt x="44" y="1253" on="0"/>
        <pt x="43" y="1279" on="1"/>
        <pt x="229" y="1276" on="1"/>
        <pt x="392" y="1273" on="1"/>
        <pt x="664" y="1279" on="1"/>
        <pt x="664" y="1262" on="0"/>
        <pt x="662" y="1249" on="1"/>
        <pt x="652" y="1246" on="0"/>
        <pt x="595" y="1238" on="1"/>
        <pt x="499" y="1227" on="0"/>
        <pt x="443" y="1201" on="0"/>
        <pt x="443" y="1004" on="1"/>
        <pt x="447" y="559" on="1"/>
        <pt x="447" y="383" on="1"/>
        <pt x="446" y="339" on="1"/>
        <pt x="445" y="270" on="1"/>
        <pt x="445" y="142" on="0"/>
        <pt x="464" y="79" on="0"/>
        <pt x="534" y="51" on="0"/>
        <pt x="586" y="49" on="1"/>
        <pt x="649" y="47" on="0"/>
        <pt x="657" y="33" on="1"/>
        <pt x="660" y="21" on="0"/>
        <pt x="660" y="3" on="1"/>
        <pt x="526" y="0" on="1"/>
        <pt x="501" y="0" on="0"/>
        <pt x="464" y="2" on="1"/>
        <pt x="431" y="3" on="1"/>
      </contour>
    </TTGlyph>
    <TTGlyph name="Iota" xMin="43" yMin="0" xMax="664" yMax="1279">
      <component glyphName="I" x="0" y="0" flags="0x214"/>
    </TTGlyph>
    <TTGlyph name="Iotadieresis" xMin="43" yMin="0" xMax="664" yMax="1577">
      <component glyphName="I" x="0" y="0" flags="0x214"/>
      <component glyphName="dieresis" x="0" y="348" flags="0x14"/>
    </TTGlyph>
    <TTGlyph name="Iotatonos" xMin="-48" yMin="0" xMax="814" yMax="1292">
      <component glyphName="I" x="150" y="0" flags="0x14"/>
      <component glyphName="tonos" x="-308" y="-23" flags="0x14"/>
    </TTGlyph>
    <TTGlyph name="Itilde" xMin="43" yMin="0" xMax="664" yMax="1589">
      <component glyphName="I" x="0" y="0" flags="0x214"/>
      <component glyphName="tilde" x="-4" y="352" flags="0x14"/>
    </TTGlyph>
    <TTGlyph name="J" xMin="-173" yMin="-518" xMax="569" yMax="1279">
      <contour>
        <pt x="-137" y="-364" on="1"/>
        <pt x="-118" y="-351" on="0"/>
        <pt x="-103" y="-351" on="1"/>
        <pt x="-57" y="-351" on="0"/>
        <pt x="2" y="-404" on="1"/>
        <pt x="12" y="-413" on="0"/>
        <pt x="17" y="-417" on="1"/>
        <pt x="22" y="-422" on="1"/>
        <pt x="46" y="-442" on="0"/>
        <pt x="72" y="-442" on="1"/>
        <pt x="110" y="-442" on="0"/>
        <pt x="186" y="-390" on="0"/>
        <pt x="209" y="-344" on="1"/>
        <pt x="240" y="-280" on="0"/>
        <pt x="269" y="-120" on="0"/>
        <pt x="269" y="-6" on="1"/>
        <pt x="268" y="150" on="1"/>
        <pt x="270" y="257" on="1"/>
        <pt x="270" y="366" on="0"/>
        <pt x="262" y="593" on="1"/>
        <pt x="256" y="967" on="1"/>
        <pt x="257" y="1160" on="1"/>
        <pt x="258" y="1186" on="0"/>
        <pt x="248" y="1205" on="1"/>
        <pt x="242" y="1215" on="0"/>
        <pt x="211" y="1231" on="0"/>
        <pt x="182" y="1232" on="1"/>
        <pt x="108" y="1237" on="1"/>
        <pt x="73" y="1237" on="0"/>
        <pt x="60" y="1244" on="1"/>
        <pt x="56" y="1259" on="0"/>
        <pt x="56" y="1267" on="1"/>
        <pt x="57" y="1279" on="1"/>
        <pt x="79" y="1279" on="0"/>
        <pt x="111" y="1277" on="1"/>
        <pt x="173" y="1274" on="0"/>
        <pt x="232" y="1274" on="1"/>
        <pt x="260" y="1274" on="0"/>
        <pt x="306" y="1275" on="1"/>
        <pt x="341" y="1277" on="0"/>
        <pt x="355" y="1277" on="1"/>
        <pt x="502" y="1277" on="1"/>
        <pt x="533" y="1277" on="0"/>
        <pt x="569" y="1274" on="1"/>
        <pt x="569" y="1251" on="0"/>
        <pt x="567" y="1238" on="1"/>
        <pt x="481" y="1234" on="0"/>
        <pt x="435" y="1218" on="0"/>
        <pt x="424" y="1204" on="1"/>
        <pt x="417" y="1195" on="0"/>
        <pt x="417" y="1169" on="1"/>
        <pt x="413" y="1065" on="1"/>
        <pt x="414" y="1040" on="1"/>
        <pt x="416" y="1022" on="0"/>
        <pt x="416" y="971" on="1"/>
        <pt x="416" y="931" on="1"/>
        <pt x="416" y="896" on="0"/>
        <pt x="417" y="869" on="1"/>
        <pt x="419" y="829" on="0"/>
        <pt x="419" y="821" on="1"/>
        <pt x="419" y="812" on="0"/>
        <pt x="417" y="774" on="1"/>
        <pt x="416" y="763" on="0"/>
        <pt x="416" y="755" on="1"/>
        <pt x="428" y="477" on="1"/>
        <pt x="426" y="298" on="1"/>
        <pt x="426" y="182" on="1"/>
        <pt x="426" y="82" on="0"/>
        <pt x="388" y="-97" on="1"/>
        <pt x="360" y="-227" on="0"/>
        <pt x="214" y="-440" on="0"/>
        <pt x="72" y="-518" on="0"/>
        <pt x="-46" y="-518" on="1"/>
        <pt x="-109" y="-518" on="0"/>
        <pt x="-147" y="-488" on="1"/>
        <pt x="-173" y="-467" on="0"/>
        <pt x="-173" y="-432" on="1"/>
        <pt x="-173" y="-390" on="0"/>
      </contour>
    </TTGlyph>
    <TTGlyph name="Jcircumflex" xMin="-173" yMin="-518" xMax="569" yMax="1764">
      <component glyphName="J" x="0" y="0" flags="0x214"/>
      <component glyphName="circumflex" x="-48" y="432" flags="0x14"/>
    </TTGlyph>
    <TTGlyph name="K" xMin="58" yMin="-18" xMax="1556" yMax="1282">
      <contour>
        <pt x="444" y="641" on="1"/>
        <pt x="456" y="652" on="0"/>
        <pt x="484" y="669" on="1"/>
        <pt x="540" y="703" on="0"/>
        <pt x="677" y="805" on="1"/>
        <pt x="951" y="1029" on="1"/>
        <pt x="1064" y="1123" on="0"/>
        <pt x="1110" y="1177" on="1"/>
        <pt x="1119" y="1189" on="0"/>
        <pt x="1124" y="1202" on="1"/>
        <pt x="1106" y="1215" on="0"/>
        <pt x="1060" y="1227" on="0"/>
        <pt x="960" y="1233" on="0"/>
        <pt x="941" y="1246" on="0"/>
        <pt x="941" y="1256" on="1"/>
        <pt x="941" y="1267" on="0"/>
        <pt x="948" y="1273" on="1"/>
        <pt x="961" y="1282" on="0"/>
        <pt x="985" y="1282" on="1"/>
        <pt x="1023" y="1282" on="0"/>
        <pt x="1079" y="1271" on="0"/>
        <pt x="1178" y="1271" on="1"/>
        <pt x="1202" y="1271" on="0"/>
        <pt x="1213" y="1272" on="1"/>
        <pt x="1369" y="1280" on="1"/>
        <pt x="1393" y="1282" on="0"/>
        <pt x="1406" y="1282" on="1"/>
        <pt x="1418" y="1282" on="0"/>
        <pt x="1442" y="1280" on="1"/>
        <pt x="1442" y="1256" on="0"/>
        <pt x="1438" y="1241" on="1"/>
        <pt x="1330" y="1228" on="0"/>
        <pt x="1279" y="1208" on="1"/>
        <pt x="1250" y="1196" on="0"/>
        <pt x="1161" y="1142" on="1"/>
        <pt x="1094" y="1101" on="0"/>
        <pt x="1039" y="1054" on="1"/>
        <pt x="781" y="837" on="1"/>
        <pt x="625" y="711" on="1"/>
        <pt x="629" y="704" on="0"/>
        <pt x="637" y="697" on="1"/>
        <pt x="643" y="692" on="0"/>
        <pt x="667" y="669" on="1"/>
        <pt x="772" y="571" on="0"/>
        <pt x="1129" y="286" on="0"/>
        <pt x="1230" y="190" on="1"/>
        <pt x="1378" y="48" on="0"/>
        <pt x="1509" y="33" on="1"/>
        <pt x="1541" y="29" on="0"/>
        <pt x="1555" y="15" on="1"/>
        <pt x="1556" y="4" on="1"/>
        <pt x="1554" y="-10" on="1"/>
        <pt x="1520" y="-12" on="0"/>
        <pt x="1508" y="-12" on="1"/>
        <pt x="1462" y="-12" on="0"/>
        <pt x="1369" y="-5" on="1"/>
        <pt x="1314" y="-1" on="0"/>
        <pt x="1278" y="-1" on="1"/>
        <pt x="1134" y="-1" on="0"/>
        <pt x="949" y="-13" on="1"/>
        <pt x="946" y="1" on="0"/>
        <pt x="946" y="8" on="1"/>
        <pt x="947" y="16" on="1"/>
        <pt x="960" y="28" on="0"/>
        <pt x="999" y="38" on="1"/>
        <pt x="1053" y="52" on="0"/>
        <pt x="1113" y="54" on="1"/>
        <pt x="1126" y="54" on="0"/>
        <pt x="1141" y="56" on="1"/>
        <pt x="1131" y="72" on="0"/>
        <pt x="1108" y="93" on="1"/>
        <pt x="1104" y="97" on="0"/>
        <pt x="1058" y="142" on="0"/>
        <pt x="1000" y="193" on="1"/>
        <pt x="881" y="288" on="1"/>
        <pt x="698" y="442" on="1"/>
        <pt x="607" y="520" on="0"/>
      </contour>
      <contour>
        <pt x="58" y="13" on="1"/>
        <pt x="63" y="23" on="0"/>
        <pt x="73" y="24" on="1"/>
        <pt x="174" y="33" on="0"/>
        <pt x="232" y="60" on="1"/>
        <pt x="252" y="78" on="0"/>
        <pt x="252" y="120" on="1"/>
        <pt x="251" y="218" on="1"/>
        <pt x="251" y="404" on="1"/>
        <pt x="253" y="485" on="1"/>
        <pt x="247" y="763" on="1"/>
        <pt x="249" y="950" on="1"/>
        <pt x="249" y="1108" on="0"/>
        <pt x="243" y="1161" on="1"/>
        <pt x="241" y="1181" on="0"/>
        <pt x="230" y="1202" on="1"/>
        <pt x="212" y="1213" on="0"/>
        <pt x="200" y="1215" on="1"/>
        <pt x="157" y="1222" on="0"/>
        <pt x="89" y="1226" on="1"/>
        <pt x="75" y="1236" on="0"/>
        <pt x="75" y="1250" on="1"/>
        <pt x="75" y="1255" on="0"/>
        <pt x="79" y="1265" on="1"/>
        <pt x="135" y="1268" on="0"/>
        <pt x="277" y="1268" on="1"/>
        <pt x="343" y="1268" on="0"/>
        <pt x="381" y="1269" on="1"/>
        <pt x="435" y="1272" on="0"/>
        <pt x="511" y="1278" on="1"/>
        <pt x="544" y="1275" on="0"/>
        <pt x="589" y="1275" on="1"/>
        <pt x="600" y="1269" on="0"/>
        <pt x="600" y="1261" on="1"/>
        <pt x="600" y="1255" on="0"/>
        <pt x="598" y="1248" on="1"/>
        <pt x="586" y="1242" on="0"/>
        <pt x="553" y="1238" on="1"/>
        <pt x="466" y="1229" on="0"/>
        <pt x="435" y="1200" on="1"/>
        <pt x="414" y="1180" on="0"/>
        <pt x="414" y="1124" on="1"/>
        <pt x="415" y="1105" on="1"/>
        <pt x="413" y="729" on="1"/>
        <pt x="410" y="470" on="1"/>
        <pt x="417" y="213" on="1"/>
        <pt x="418" y="91" on="0"/>
        <pt x="428" y="66" on="0"/>
        <pt x="439" y="59" on="1"/>
        <pt x="474" y="38" on="0"/>
        <pt x="546" y="31" on="1"/>
        <pt x="564" y="29" on="0"/>
        <pt x="581" y="24" on="1"/>
        <pt x="587" y="11" on="0"/>
        <pt x="587" y="2" on="1"/>
        <pt x="587" y="-8" on="0"/>
        <pt x="575" y="-17" on="1"/>
        <pt x="543" y="-18" on="1"/>
        <pt x="523" y="-18" on="0"/>
        <pt x="371" y="-4" on="0"/>
        <pt x="334" y="-4" on="1"/>
        <pt x="303" y="-4" on="0"/>
        <pt x="193" y="-18" on="0"/>
        <pt x="98" y="-18" on="1"/>
        <pt x="84" y="-18" on="0"/>
        <pt x="60" y="-17" on="1"/>
      </contour>
    </TTGlyph>
    <TTGlyph name="Kappa" xMin="58" yMin="-18" xMax="1556" yMax="1282">
      <component glyphName="K" x="0" y="0" flags="0x214"/>
    </TTGlyph>
    <TTGlyph name="Kcedilla" xMin="58" yMin="-435" xMax="1556" yMax="1282">
      <component glyphName="K" x="0" y="0" flags="0x214"/>
      <component glyphName="undercommaaccent" x="410" y="0" flags="0x14"/>
    </TTGlyph>
    <TTGlyph name="L" xMin="11" yMin="-6" xMax="1177" yMax="1274">
      <contour>
        <pt x="11" y="-6" on="1"/>
        <pt x="12" y="9" on="0"/>
        <pt x="19" y="21" on="1"/>
        <pt x="97" y="42" on="0"/>
        <pt x="171" y="49" on="1"/>
        <pt x="220" y="53" on="0"/>
        <pt x="234" y="71" on="1"/>
        <pt x="244" y="84" on="0"/>
        <pt x="246" y="167" on="1"/>
        <pt x="253" y="431" on="1"/>
        <pt x="252" y="610" on="1"/>
        <pt x="253" y="844" on="1"/>
        <pt x="253" y="906" on="1"/>
        <pt x="254" y="1117" on="0"/>
        <pt x="251" y="1169" on="1"/>
        <pt x="250" y="1179" on="0"/>
        <pt x="243" y="1197" on="1"/>
        <pt x="217" y="1209" on="0"/>
        <pt x="182" y="1217" on="0"/>
        <pt x="43" y="1242" on="1"/>
        <pt x="42" y="1253" on="0"/>
        <pt x="42" y="1258" on="1"/>
        <pt x="42" y="1264" on="0"/>
        <pt x="43" y="1274" on="1"/>
        <pt x="62" y="1274" on="0"/>
        <pt x="105" y="1272" on="1"/>
        <pt x="257" y="1267" on="1"/>
        <pt x="345" y="1265" on="1"/>
        <pt x="371" y="1266" on="1"/>
        <pt x="376" y="1266" on="0"/>
        <pt x="400" y="1264" on="1"/>
        <pt x="459" y="1264" on="0"/>
        <pt x="468" y="1265" on="1"/>
        <pt x="548" y="1271" on="1"/>
        <pt x="629" y="1271" on="0"/>
        <pt x="662" y="1268" on="1"/>
        <pt x="661" y="1250" on="0"/>
        <pt x="655" y="1229" on="1"/>
        <pt x="644" y="1227" on="0"/>
        <pt x="458" y="1220" on="0"/>
        <pt x="444" y="1212" on="1"/>
        <pt x="421" y="1199" on="0"/>
        <pt x="421" y="1132" on="1"/>
        <pt x="421" y="1116" on="0"/>
        <pt x="419" y="1067" on="1"/>
        <pt x="419" y="1007" on="1"/>
        <pt x="420" y="822" on="1"/>
        <pt x="420" y="759" on="1"/>
        <pt x="422" y="428" on="1"/>
        <pt x="419" y="146" on="1"/>
        <pt x="420" y="84" on="1"/>
        <pt x="420" y="54" on="0"/>
        <pt x="430" y="47" on="1"/>
        <pt x="455" y="46" on="0"/>
        <pt x="577" y="45" on="1"/>
        <pt x="645" y="45" on="1"/>
        <pt x="818" y="51" on="1"/>
        <pt x="886" y="53" on="0"/>
        <pt x="944" y="76" on="0"/>
        <pt x="1012" y="132" on="1"/>
        <pt x="1053" y="168" on="0"/>
        <pt x="1076" y="206" on="1"/>
        <pt x="1081" y="214" on="0"/>
        <pt x="1093" y="230" on="1"/>
        <pt x="1112" y="256" on="0"/>
        <pt x="1144" y="334" on="1"/>
        <pt x="1177" y="334" on="1"/>
        <pt x="1171" y="298" on="0"/>
        <pt x="1164" y="266" on="1"/>
        <pt x="1135" y="125" on="0"/>
        <pt x="1124" y="31" on="1"/>
        <pt x="1122" y="11" on="0"/>
        <pt x="1120" y="-6" on="1"/>
        <pt x="746" y="5" on="1"/>
        <pt x="264" y="5" on="0"/>
        <pt x="174" y="-4" on="1"/>
        <pt x="146" y="-6" on="0"/>
        <pt x="115" y="-6" on="1"/>
      </contour>
    </TTGlyph>
    <TTGlyph name="Lacute" xMin="11" yMin="-6" xMax="1177" yMax="1716">
      <component glyphName="L" x="0" y="0" flags="0x214"/>
      <component glyphName="acute" x="232" y="424" flags="0x14"/>
    </TTGlyph>
    <TTGlyph name="Lambda" xMin="-15" yMin="0" xMax="1371" yMax="1343">
      <contour>
        <pt x="651" y="1145" on="1"/>
        <pt x="548" y="927" on="0"/>
        <pt x="438" y="558" on="1"/>
        <pt x="398" y="443" on="1"/>
        <pt x="298" y="132" on="1"/>
        <pt x="285" y="99" on="0"/>
        <pt x="285" y="86" on="1"/>
        <pt x="285" y="77" on="0"/>
        <pt x="294" y="56" on="1"/>
        <pt x="324" y="45" on="0"/>
        <pt x="412" y="39" on="1"/>
        <pt x="434" y="38" on="0"/>
        <pt x="486" y="33" on="1"/>
        <pt x="497" y="25" on="0"/>
        <pt x="497" y="17" on="1"/>
        <pt x="497" y="12" on="0"/>
        <pt x="494" y="2" on="1"/>
        <pt x="425" y="1" on="1"/>
        <pt x="344" y="1" on="0"/>
        <pt x="239" y="6" on="1"/>
        <pt x="169" y="8" on="1"/>
        <pt x="75" y="5" on="1"/>
        <pt x="59" y="4" on="0"/>
        <pt x="47" y="4" on="1"/>
        <pt x="21" y="4" on="0"/>
        <pt x="-15" y="7" on="1"/>
        <pt x="-15" y="22" on="0"/>
        <pt x="-11" y="32" on="1"/>
        <pt x="3" y="40" on="0"/>
        <pt x="14" y="40" on="1"/>
        <pt x="129" y="40" on="0"/>
        <pt x="200" y="86" on="0"/>
        <pt x="279" y="266" on="0"/>
        <pt x="368" y="518" on="1"/>
        <pt x="416" y="644" on="1"/>
        <pt x="510" y="907" on="1"/>
        <pt x="512" y="911" on="0"/>
        <pt x="640" y="1253" on="0"/>
        <pt x="667" y="1341" on="1"/>
        <pt x="696" y="1343" on="1"/>
        <pt x="714" y="1342" on="0"/>
        <pt x="731" y="1342" on="1"/>
        <pt x="739" y="1339" on="0"/>
        <pt x="1062" y="480" on="0"/>
        <pt x="1138" y="254" on="1"/>
        <pt x="1179" y="144" on="0"/>
        <pt x="1207" y="89" on="0"/>
        <pt x="1231" y="72" on="0"/>
        <pt x="1285" y="60" on="1"/>
        <pt x="1296" y="58" on="0"/>
        <pt x="1326" y="47" on="1"/>
        <pt x="1367" y="33" on="1"/>
        <pt x="1371" y="22" on="0"/>
        <pt x="1371" y="16" on="1"/>
        <pt x="1371" y="11" on="0"/>
        <pt x="1368" y="1" on="1"/>
        <pt x="1323" y="0" on="1"/>
        <pt x="1143" y="3" on="1"/>
        <pt x="1031" y="6" on="1"/>
        <pt x="924" y="4" on="1"/>
        <pt x="851" y="4" on="0"/>
        <pt x="834" y="13" on="1"/>
        <pt x="834" y="27" on="0"/>
        <pt x="839" y="40" on="1"/>
        <pt x="847" y="48" on="0"/>
        <pt x="941" y="52" on="1"/>
        <pt x="1010" y="55" on="0"/>
        <pt x="1028" y="65" on="1"/>
        <pt x="1034" y="83" on="0"/>
        <pt x="1034" y="92" on="1"/>
        <pt x="1034" y="110" on="0"/>
        <pt x="1008" y="185" on="1"/>
        <pt x="991" y="234" on="0"/>
        <pt x="977" y="281" on="1"/>
        <pt x="972" y="296" on="0"/>
        <pt x="767" y="857" on="0"/>
        <pt x="696" y="1032" on="1"/>
        <pt x="661" y="1126" on="1"/>
        <pt x="659" y="1132" on="0"/>
      </contour>
    </TTGlyph>
    <TTGlyph name="Lcaron" xMin="11" yMin="-6" xMax="1177" yMax="1303">
      <component glyphName="L" x="0" y="0" flags="0x214"/>
      <component glyphName="commaaccent" x="598" y="-45" flags="0x14"/>
    </TTGlyph>
    <TTGlyph name="Lcedilla" xMin="11" yMin="-435" xMax="1177" yMax="1274">
      <component glyphName="L" x="0" y="0" flags="0x214"/>
      <component glyphName="undercommaaccent" x="264" y="0" flags="0x14"/>
    </TTGlyph>
    <TTGlyph name="Ldot" xMin="11" yMin="-6" xMax="1177" yMax="1274">
      <component glyphName="L" x="0" y="0" flags="0x214"/>
      <component glyphName="dotaccent" x="412" y="-484" flags="0x14"/>
    </TTGlyph>
    <TTGlyph name="Lslash" xMin="18" yMin="-6" xMax="1184" yMax="1274">
      <contour>
        <pt x="260" y="517" on="1"/>
        <pt x="123" y="371" on="0"/>
        <pt x="49" y="298" on="1"/>
        <pt x="48" y="373" on="1"/>
        <pt x="172" y="509" on="0"/>
        <pt x="259" y="599" on="1"/>
        <pt x="260" y="844" on="1"/>
        <pt x="260" y="905" on="1"/>
        <pt x="261" y="1117" on="0"/>
        <pt x="258" y="1169" on="1"/>
        <pt x="257" y="1179" on="0"/>
        <pt x="250" y="1197" on="1"/>
        <pt x="224" y="1209" on="0"/>
        <pt x="189" y="1217" on="0"/>
        <pt x="50" y="1242" on="1"/>
        <pt x="49" y="1253" on="0"/>
        <pt x="49" y="1258" on="1"/>
        <pt x="49" y="1264" on="0"/>
        <pt x="50" y="1274" on="1"/>
        <pt x="69" y="1274" on="0"/>
        <pt x="112" y="1272" on="1"/>
        <pt x="264" y="1267" on="1"/>
        <pt x="352" y="1265" on="1"/>
        <pt x="378" y="1266" on="1"/>
        <pt x="383" y="1266" on="0"/>
        <pt x="407" y="1264" on="1"/>
        <pt x="466" y="1264" on="0"/>
        <pt x="475" y="1265" on="1"/>
        <pt x="555" y="1271" on="1"/>
        <pt x="636" y="1271" on="0"/>
        <pt x="669" y="1268" on="1"/>
        <pt x="668" y="1250" on="0"/>
        <pt x="662" y="1229" on="1"/>
        <pt x="651" y="1227" on="0"/>
        <pt x="465" y="1220" on="0"/>
        <pt x="451" y="1212" on="1"/>
        <pt x="428" y="1199" on="0"/>
        <pt x="428" y="1131" on="1"/>
        <pt x="428" y="1113" on="0"/>
        <pt x="426" y="1067" on="1"/>
        <pt x="427" y="825" on="1"/>
        <pt x="427" y="772" on="1"/>
        <pt x="629" y="980" on="1"/>
        <pt x="647" y="999" on="0"/>
        <pt x="698" y="1041" on="1"/>
        <pt x="699" y="966" on="1"/>
        <pt x="576" y="853" on="0"/>
        <pt x="428" y="695" on="1"/>
        <pt x="428" y="610" on="1"/>
        <pt x="429" y="509" on="1"/>
        <pt x="426" y="136" on="1"/>
        <pt x="427" y="78" on="1"/>
        <pt x="427" y="54" on="0"/>
        <pt x="437" y="47" on="1"/>
        <pt x="462" y="46" on="0"/>
        <pt x="584" y="45" on="1"/>
        <pt x="652" y="45" on="1"/>
        <pt x="825" y="51" on="1"/>
        <pt x="893" y="53" on="0"/>
        <pt x="951" y="76" on="0"/>
        <pt x="1019" y="132" on="1"/>
        <pt x="1060" y="168" on="0"/>
        <pt x="1083" y="206" on="1"/>
        <pt x="1088" y="214" on="0"/>
        <pt x="1100" y="230" on="1"/>
        <pt x="1119" y="256" on="0"/>
        <pt x="1151" y="334" on="1"/>
        <pt x="1184" y="334" on="1"/>
        <pt x="1178" y="298" on="0"/>
        <pt x="1171" y="266" on="1"/>
        <pt x="1142" y="125" on="0"/>
        <pt x="1131" y="31" on="1"/>
        <pt x="1129" y="11" on="0"/>
        <pt x="1127" y="-6" on="1"/>
        <pt x="753" y="5" on="1"/>
        <pt x="271" y="5" on="0"/>
        <pt x="181" y="-4" on="1"/>
        <pt x="153" y="-6" on="0"/>
        <pt x="122" y="-6" on="1"/>
        <pt x="18" y="-6" on="1"/>
        <pt x="19" y="9" on="0"/>
        <pt x="26" y="21" on="1"/>
        <pt x="104" y="42" on="0"/>
        <pt x="178" y="49" on="1"/>
        <pt x="219" y="52" on="0"/>
        <pt x="236" y="66" on="1"/>
        <pt x="244" y="72" on="0"/>
        <pt x="252" y="99" on="0"/>
        <pt x="253" y="193" on="1"/>
        <pt x="260" y="447" on="1"/>
      </contour>
    </TTGlyph>
    <TTGlyph name="M" xMin="14" yMin="-9" xMax="1692" yMax="1289">
      <contour>
        <pt x="14" y="23" on="1"/>
        <pt x="45" y="44" on="0"/>
        <pt x="126" y="53" on="1"/>
        <pt x="189" y="56" on="0"/>
        <pt x="201" y="64" on="1"/>
        <pt x="209" y="70" on="0"/>
        <pt x="213" y="79" on="1"/>
        <pt x="228" y="116" on="0"/>
        <pt x="235" y="280" on="1"/>
        <pt x="244" y="493" on="0"/>
        <pt x="264" y="847" on="1"/>
        <pt x="280" y="1117" on="0"/>
        <pt x="280" y="1184" on="1"/>
        <pt x="280" y="1210" on="1"/>
        <pt x="208" y="1225" on="0"/>
        <pt x="52" y="1242" on="1"/>
        <pt x="42" y="1257" on="0"/>
        <pt x="42" y="1265" on="1"/>
        <pt x="42" y="1270" on="0"/>
        <pt x="49" y="1283" on="1"/>
        <pt x="66" y="1289" on="0"/>
        <pt x="75" y="1289" on="1"/>
        <pt x="83" y="1289" on="0"/>
        <pt x="110" y="1285" on="1"/>
        <pt x="159" y="1278" on="0"/>
        <pt x="245" y="1278" on="1"/>
        <pt x="273" y="1278" on="0"/>
        <pt x="341" y="1282" on="1"/>
        <pt x="389" y="1285" on="0"/>
        <pt x="395" y="1285" on="1"/>
        <pt x="411" y="1285" on="0"/>
        <pt x="432" y="1280" on="1"/>
        <pt x="442" y="1270" on="0"/>
        <pt x="447" y="1261" on="1"/>
        <pt x="489" y="1167" on="1"/>
        <pt x="772" y="541" on="1"/>
        <pt x="889" y="278" on="1"/>
        <pt x="1028" y="553" on="0"/>
        <pt x="1105" y="767" on="1"/>
        <pt x="1110" y="783" on="0"/>
        <pt x="1117" y="796" on="1"/>
        <pt x="1126" y="813" on="0"/>
        <pt x="1142" y="855" on="0"/>
        <pt x="1199" y="994" on="1"/>
        <pt x="1222" y="1050" on="0"/>
        <pt x="1236" y="1090" on="1"/>
        <pt x="1293" y="1250" on="0"/>
        <pt x="1303" y="1273" on="1"/>
        <pt x="1322" y="1280" on="0"/>
        <pt x="1336" y="1280" on="1"/>
        <pt x="1352" y="1280" on="0"/>
        <pt x="1377" y="1278" on="1"/>
        <pt x="1433" y="1275" on="0"/>
        <pt x="1559" y="1275" on="1"/>
        <pt x="1637" y="1275" on="0"/>
        <pt x="1687" y="1277" on="1"/>
        <pt x="1689" y="1266" on="0"/>
        <pt x="1689" y="1261" on="1"/>
        <pt x="1689" y="1254" on="0"/>
        <pt x="1686" y="1242" on="1"/>
        <pt x="1654" y="1225" on="0"/>
        <pt x="1609" y="1223" on="1"/>
        <pt x="1520" y="1218" on="0"/>
        <pt x="1472" y="1200" on="0"/>
        <pt x="1459" y="1172" on="0"/>
        <pt x="1454" y="1094" on="1"/>
        <pt x="1455" y="1048" on="1"/>
        <pt x="1454" y="1000" on="1"/>
        <pt x="1454" y="850" on="0"/>
        <pt x="1462" y="496" on="1"/>
        <pt x="1461" y="300" on="1"/>
        <pt x="1462" y="174" on="1"/>
        <pt x="1462" y="100" on="0"/>
        <pt x="1476" y="73" on="0"/>
        <pt x="1509" y="61" on="1"/>
        <pt x="1563" y="43" on="0"/>
        <pt x="1685" y="24" on="1"/>
        <pt x="1692" y="19" on="0"/>
        <pt x="1692" y="11" on="1"/>
        <pt x="1692" y="2" on="0"/>
        <pt x="1691" y="-9" on="1"/>
        <pt x="1645" y="-9" on="1"/>
        <pt x="1586" y="-9" on="0"/>
        <pt x="1448" y="-2" on="0"/>
        <pt x="1443" y="-2" on="1"/>
        <pt x="1238" y="-2" on="0"/>
        <pt x="1171" y="-6" on="1"/>
        <pt x="1130" y="-9" on="0"/>
        <pt x="1119" y="-9" on="1"/>
        <pt x="1112" y="-9" on="0"/>
        <pt x="1104" y="-5" on="1"/>
        <pt x="1104" y="8" on="1"/>
        <pt x="1104" y="17" on="0"/>
        <pt x="1107" y="27" on="1"/>
        <pt x="1140" y="41" on="0"/>
        <pt x="1197" y="46" on="1"/>
        <pt x="1260" y="63" on="0"/>
        <pt x="1289" y="82" on="1"/>
        <pt x="1298" y="120" on="0"/>
        <pt x="1298" y="237" on="1"/>
        <pt x="1295" y="439" on="1"/>
        <pt x="1295" y="472" on="0"/>
        <pt x="1302" y="652" on="0"/>
        <pt x="1302" y="855" on="1"/>
        <pt x="1302" y="1016" on="0"/>
        <pt x="1294" y="1099" on="1"/>
        <pt x="1277" y="1064" on="0"/>
        <pt x="1227" y="947" on="1"/>
        <pt x="1212" y="909" on="1"/>
        <pt x="1210" y="903" on="1"/>
        <pt x="1062" y="553" on="1"/>
        <pt x="1009" y="418" on="1"/>
        <pt x="940" y="254" on="1"/>
        <pt x="895" y="141" on="0"/>
        <pt x="863" y="54" on="1"/>
        <pt x="849" y="14" on="0"/>
        <pt x="840" y="-9" on="1"/>
        <pt x="817" y="-8" on="1"/>
        <pt x="704" y="322" on="0"/>
        <pt x="391" y="1016" on="0"/>
        <pt x="328" y="1127" on="1"/>
        <pt x="320" y="1084" on="0"/>
        <pt x="310" y="877" on="1"/>
        <pt x="297" y="625" on="0"/>
        <pt x="297" y="322" on="1"/>
        <pt x="297" y="227" on="0"/>
        <pt x="311" y="108" on="1"/>
        <pt x="315" y="74" on="0"/>
        <pt x="365" y="41" on="0"/>
        <pt x="469" y="39" on="1"/>
        <pt x="509" y="39" on="0"/>
        <pt x="545" y="33" on="1"/>
        <pt x="552" y="18" on="0"/>
        <pt x="552" y="11" on="1"/>
        <pt x="552" y="6" on="0"/>
        <pt x="547" y="-6" on="1"/>
        <pt x="236" y="5" on="1"/>
        <pt x="202" y="5" on="0"/>
        <pt x="130" y="0" on="1"/>
        <pt x="90" y="-3" on="0"/>
        <pt x="15" y="-4" on="1"/>
      </contour>
    </TTGlyph>
    <TTGlyph name="Mu" xMin="14" yMin="-9" xMax="1692" yMax="1289">
      <component glyphName="M" x="0" y="0" flags="0x214"/>
    </TTGlyph>
    <TTGlyph name="N" xMin="26" yMin="-47" xMax="1500" yMax="1286">
      <contour>
        <pt x="27" y="1223" on="1"/>
        <pt x="26" y="1271" on="1"/>
        <pt x="181" y="1271" on="0"/>
        <pt x="253" y="1279" on="1"/>
        <pt x="281" y="1282" on="0"/>
        <pt x="292" y="1282" on="1"/>
        <pt x="301" y="1282" on="0"/>
        <pt x="319" y="1281" on="1"/>
        <pt x="361" y="1246" on="0"/>
        <pt x="397" y="1201" on="1"/>
        <pt x="405" y="1192" on="0"/>
        <pt x="415" y="1181" on="1"/>
        <pt x="626" y="948" on="1"/>
        <pt x="656" y="912" on="1"/>
        <pt x="720" y="837" on="0"/>
        <pt x="825" y="731" on="0"/>
        <pt x="977" y="563" on="1"/>
        <pt x="1216" y="298" on="1"/>
        <pt x="1251" y="259" on="0"/>
        <pt x="1306" y="201" on="1"/>
        <pt x="1307" y="217" on="1"/>
        <pt x="1301" y="356" on="0"/>
        <pt x="1301" y="364" on="1"/>
        <pt x="1305" y="424" on="1"/>
        <pt x="1303" y="518" on="1"/>
        <pt x="1303" y="561" on="1"/>
        <pt x="1303" y="602" on="0"/>
        <pt x="1296" y="814" on="1"/>
        <pt x="1295" y="843" on="0"/>
        <pt x="1281" y="1004" on="0"/>
        <pt x="1281" y="1065" on="1"/>
        <pt x="1281" y="1175" on="0"/>
        <pt x="1268" y="1193" on="1"/>
        <pt x="1259" y="1206" on="0"/>
        <pt x="1183" y="1220" on="1"/>
        <pt x="1165" y="1221" on="0"/>
        <pt x="1127" y="1226" on="1"/>
        <pt x="1082" y="1228" on="0"/>
        <pt x="1066" y="1234" on="0"/>
        <pt x="1058" y="1248" on="1"/>
        <pt x="1060" y="1264" on="0"/>
        <pt x="1067" y="1278" on="1"/>
        <pt x="1094" y="1286" on="0"/>
        <pt x="1120" y="1286" on="1"/>
        <pt x="1148" y="1286" on="0"/>
        <pt x="1231" y="1272" on="0"/>
        <pt x="1264" y="1272" on="1"/>
        <pt x="1310" y="1272" on="0"/>
        <pt x="1407" y="1278" on="1"/>
        <pt x="1462" y="1282" on="0"/>
        <pt x="1483" y="1282" on="1"/>
        <pt x="1500" y="1282" on="1"/>
        <pt x="1498" y="1251" on="1"/>
        <pt x="1482" y="1244" on="0"/>
        <pt x="1426" y="1241" on="0"/>
        <pt x="1402" y="1234" on="1"/>
        <pt x="1366" y="1223" on="0"/>
        <pt x="1359" y="1215" on="1"/>
        <pt x="1335" y="1189" on="0"/>
        <pt x="1335" y="1162" on="1"/>
        <pt x="1346" y="846" on="1"/>
        <pt x="1354" y="701" on="1"/>
        <pt x="1353" y="659" on="1"/>
        <pt x="1359" y="458" on="1"/>
        <pt x="1365" y="252" on="0"/>
        <pt x="1365" y="100" on="1"/>
        <pt x="1365" y="67" on="0"/>
        <pt x="1361" y="-43" on="1"/>
        <pt x="1314" y="-47" on="1"/>
        <pt x="1279" y="-7" on="0"/>
        <pt x="1073" y="205" on="1"/>
        <pt x="1025" y="254" on="0"/>
        <pt x="1008" y="274" on="1"/>
        <pt x="922" y="373" on="1"/>
        <pt x="872" y="428" on="0"/>
        <pt x="842" y="458" on="0"/>
        <pt x="835" y="465" on="1"/>
        <pt x="726" y="589" on="0"/>
        <pt x="552" y="775" on="1"/>
        <pt x="505" y="825" on="0"/>
        <pt x="414" y="931" on="1"/>
        <pt x="357" y="998" on="0"/>
        <pt x="327" y="1028" on="0"/>
        <pt x="301" y="1047" on="1"/>
        <pt x="298" y="1013" on="1"/>
        <pt x="298" y="818" on="0"/>
        <pt x="308" y="475" on="1"/>
        <pt x="315" y="144" on="1"/>
        <pt x="316" y="102" on="0"/>
        <pt x="320" y="63" on="1"/>
        <pt x="355" y="55" on="1"/>
        <pt x="450" y="46" on="0"/>
        <pt x="542" y="28" on="1"/>
        <pt x="549" y="22" on="0"/>
        <pt x="554" y="19" on="1"/>
        <pt x="553" y="-19" on="1"/>
        <pt x="537" y="-24" on="0"/>
        <pt x="527" y="-24" on="1"/>
        <pt x="516" y="-24" on="0"/>
        <pt x="500" y="-22" on="1"/>
        <pt x="401" y="-14" on="0"/>
        <pt x="259" y="-14" on="1"/>
        <pt x="159" y="-14" on="0"/>
        <pt x="83" y="-19" on="1"/>
        <pt x="69" y="-20" on="1"/>
        <pt x="60" y="-20" on="0"/>
        <pt x="43" y="-18" on="1"/>
        <pt x="42" y="12" on="1"/>
        <pt x="68" y="24" on="1"/>
        <pt x="115" y="31" on="1"/>
        <pt x="178" y="40" on="0"/>
        <pt x="207" y="51" on="1"/>
        <pt x="226" y="58" on="0"/>
        <pt x="238" y="72" on="1"/>
        <pt x="249" y="141" on="0"/>
        <pt x="249" y="274" on="1"/>
        <pt x="249" y="336" on="0"/>
        <pt x="246" y="501" on="1"/>
        <pt x="246" y="637" on="1"/>
        <pt x="244" y="921" on="1"/>
        <pt x="242" y="1111" on="0"/>
        <pt x="231" y="1145" on="1"/>
        <pt x="225" y="1163" on="0"/>
        <pt x="206" y="1177" on="1"/>
        <pt x="168" y="1204" on="0"/>
        <pt x="45" y="1218" on="0"/>
      </contour>
    </TTGlyph>
    <TTGlyph name="Nacute" xMin="26" yMin="-47" xMax="1500" yMax="1724">
      <component glyphName="N" x="0" y="0" flags="0x214"/>
      <component glyphName="acute" x="420" y="432" flags="0x14"/>
    </TTGlyph>
    <TTGlyph name="Ncaron" xMin="26" yMin="-47" xMax="1500" yMax="1768">
      <component glyphName="N" x="0" y="0" flags="0x214"/>
      <component glyphName="caron" x="428" y="436" flags="0x14"/>
    </TTGlyph>
    <TTGlyph name="Ncedilla" xMin="26" yMin="-435" xMax="1500" yMax="1286">
      <component glyphName="N" x="0" y="0" flags="0x214"/>
      <component glyphName="undercommaaccent" x="469" y="0" flags="0x14"/>
    </TTGlyph>
    <TTGlyph name="Ntilde" xMin="26" yMin="-47" xMax="1500" yMax="1608">
      <component glyphName="N" x="0" y="0" flags="0x200"/>
      <component glyphName="tilde" x="448" y="371" flags="0x4"/>
    </TTGlyph>
    <TTGlyph name="Nu" xMin="26" yMin="-47" xMax="1500" yMax="1286">
      <component glyphName="N" x="0" y="0" flags="0x214"/>
    </TTGlyph>
    <TTGlyph name="O" xMin="94" yMin="-20" xMax="1502" yMax="1292">
      <contour>
        <pt x="94" y="639" on="1"/>
        <pt x="94" y="741" on="0"/>
        <pt x="143" y="900" on="0"/>
        <pt x="259" y="1086" on="0"/>
        <pt x="423" y="1211" on="0"/>
        <pt x="568" y="1259" on="1"/>
        <pt x="670" y="1292" on="0"/>
        <pt x="826" y="1292" on="1"/>
        <pt x="931" y="1292" on="0"/>
        <pt x="1132" y="1236" on="0"/>
        <pt x="1296" y="1136" on="0"/>
        <pt x="1378" y="1032" on="1"/>
        <pt x="1435" y="960" on="0"/>
        <pt x="1464" y="877" on="1"/>
        <pt x="1502" y="768" on="0"/>
        <pt x="1502" y="652" on="1"/>
        <pt x="1502" y="520" on="0"/>
        <pt x="1451" y="346" on="0"/>
        <pt x="1391" y="261" on="1"/>
        <pt x="1344" y="195" on="0"/>
        <pt x="1230" y="109" on="1"/>
        <pt x="1154" y="51" on="0"/>
        <pt x="928" y="-20" on="0"/>
        <pt x="797" y="-20" on="1"/>
        <pt x="664" y="-20" on="0"/>
        <pt x="456" y="42" on="0"/>
        <pt x="317" y="131" on="0"/>
        <pt x="170" y="305" on="0"/>
        <pt x="94" y="515" on="0"/>
      </contour>
      <contour>
        <pt x="788" y="17" on="1"/>
        <pt x="872" y="17" on="0"/>
        <pt x="1053" y="64" on="0"/>
        <pt x="1193" y="173" on="0"/>
        <pt x="1272" y="312" on="0"/>
        <pt x="1320" y="530" on="0"/>
        <pt x="1320" y="639" on="1"/>
        <pt x="1320" y="775" on="0"/>
        <pt x="1280" y="908" on="1"/>
        <pt x="1249" y="1009" on="0"/>
        <pt x="1109" y="1168" on="0"/>
        <pt x="911" y="1255" on="0"/>
        <pt x="799" y="1255" on="1"/>
        <pt x="708" y="1255" on="0"/>
        <pt x="534" y="1195" on="0"/>
        <pt x="422" y="1102" on="0"/>
        <pt x="326" y="931" on="0"/>
        <pt x="276" y="725" on="0"/>
        <pt x="276" y="646" on="1"/>
        <pt x="276" y="563" on="0"/>
        <pt x="326" y="353" on="0"/>
        <pt x="413" y="199" on="0"/>
        <pt x="540" y="80" on="0"/>
        <pt x="698" y="17" on="0"/>
      </contour>
    </TTGlyph>
    <TTGlyph name="OE" xMin="95" yMin="-17" xMax="1863" yMax="1289">
      <contour>
        <pt x="1783" y="1276" on="1"/>
        <pt x="1784" y="1268" on="0"/>
        <pt x="1788" y="1180" on="1"/>
        <pt x="1792" y="1054" on="0"/>
        <pt x="1792" y="1032" on="1"/>
        <pt x="1792" y="1003" on="1"/>
        <pt x="1763" y="1003" on="1"/>
        <pt x="1679" y="1195" on="0"/>
        <pt x="1667" y="1209" on="1"/>
        <pt x="1650" y="1228" on="0"/>
        <pt x="1604" y="1228" on="1"/>
        <pt x="1584" y="1228" on="0"/>
        <pt x="1550" y="1231" on="1"/>
        <pt x="1465" y="1237" on="0"/>
        <pt x="1422" y="1237" on="1"/>
        <pt x="1222" y="1237" on="0"/>
        <pt x="1189" y="1215" on="1"/>
        <pt x="1168" y="1201" on="0"/>
        <pt x="1168" y="1128" on="1"/>
        <pt x="1168" y="864" on="1"/>
        <pt x="1167" y="723" on="1"/>
        <pt x="1169" y="692" on="1"/>
        <pt x="1188" y="684" on="0"/>
        <pt x="1206" y="684" on="1"/>
        <pt x="1461" y="685" on="1"/>
        <pt x="1478" y="685" on="0"/>
        <pt x="1507" y="684" on="1"/>
        <pt x="1524" y="683" on="0"/>
        <pt x="1536" y="683" on="1"/>
        <pt x="1583" y="683" on="0"/>
        <pt x="1640" y="752" on="0"/>
        <pt x="1657" y="889" on="1"/>
        <pt x="1673" y="889" on="1"/>
        <pt x="1680" y="889" on="0"/>
        <pt x="1695" y="890" on="1"/>
        <pt x="1695" y="869" on="1"/>
        <pt x="1695" y="857" on="0"/>
        <pt x="1690" y="781" on="0"/>
        <pt x="1688" y="619" on="1"/>
        <pt x="1685" y="403" on="1"/>
        <pt x="1650" y="410" on="1"/>
        <pt x="1643" y="512" on="0"/>
        <pt x="1625" y="591" on="0"/>
        <pt x="1589" y="628" on="0"/>
        <pt x="1564" y="635" on="1"/>
        <pt x="1493" y="639" on="1"/>
        <pt x="1484" y="640" on="0"/>
        <pt x="1452" y="640" on="1"/>
        <pt x="1432" y="641" on="0"/>
        <pt x="1399" y="642" on="1"/>
        <pt x="1352" y="644" on="0"/>
        <pt x="1332" y="644" on="1"/>
        <pt x="1239" y="644" on="0"/>
        <pt x="1172" y="636" on="1"/>
        <pt x="1168" y="479" on="0"/>
        <pt x="1168" y="350" on="1"/>
        <pt x="1168" y="132" on="0"/>
        <pt x="1178" y="98" on="1"/>
        <pt x="1185" y="73" on="0"/>
        <pt x="1207" y="62" on="1"/>
        <pt x="1244" y="45" on="0"/>
        <pt x="1366" y="45" on="1"/>
        <pt x="1519" y="45" on="0"/>
        <pt x="1584" y="53" on="1"/>
        <pt x="1618" y="57" on="0"/>
        <pt x="1655" y="72" on="1"/>
        <pt x="1660" y="75" on="0"/>
        <pt x="1672" y="79" on="1"/>
        <pt x="1721" y="114" on="0"/>
        <pt x="1756" y="162" on="1"/>
        <pt x="1778" y="192" on="0"/>
        <pt x="1839" y="335" on="1"/>
        <pt x="1863" y="335" on="1"/>
        <pt x="1862" y="301" on="0"/>
        <pt x="1842" y="117" on="0"/>
        <pt x="1826" y="37" on="0"/>
        <pt x="1825" y="26" on="1"/>
        <pt x="1824" y="9" on="0"/>
        <pt x="1816" y="-6" on="1"/>
        <pt x="1796" y="-8" on="0"/>
        <pt x="1785" y="-8" on="1"/>
        <pt x="1773" y="-8" on="0"/>
        <pt x="1744" y="-5" on="1"/>
        <pt x="1702" y="-1" on="0"/>
        <pt x="1688" y="-1" on="1"/>
        <pt x="1291" y="5" on="1"/>
        <pt x="1162" y="4" on="1"/>
        <pt x="990" y="5" on="1"/>
        <pt x="899" y="6" on="0"/>
        <pt x="742" y="-15" on="1"/>
        <pt x="677" y="-17" on="1"/>
        <pt x="600" y="-17" on="0"/>
        <pt x="518" y="10" on="1"/>
        <pt x="407" y="46" on="0"/>
        <pt x="342" y="96" on="1"/>
        <pt x="257" y="160" on="0"/>
        <pt x="153" y="310" on="0"/>
        <pt x="95" y="500" on="0"/>
        <pt x="95" y="597" on="1"/>
        <pt x="95" y="748" on="0"/>
        <pt x="197" y="1010" on="0"/>
        <pt x="385" y="1207" on="0"/>
        <pt x="586" y="1289" on="0"/>
        <pt x="689" y="1289" on="1"/>
        <pt x="790" y="1289" on="0"/>
        <pt x="821" y="1287" on="1"/>
        <pt x="840" y="1285" on="0"/>
        <pt x="945" y="1272" on="1"/>
        <pt x="1219" y="1270" on="1"/>
        <pt x="1560" y="1278" on="1"/>
        <pt x="1602" y="1279" on="0"/>
        <pt x="1652" y="1279" on="1"/>
        <pt x="1722" y="1279" on="0"/>
      </contour>
      <contour>
        <pt x="713" y="24" on="1"/>
        <pt x="824" y="24" on="0"/>
        <pt x="907" y="76" on="1"/>
        <pt x="970" y="116" on="0"/>
        <pt x="990" y="191" on="1"/>
        <pt x="1004" y="241" on="0"/>
        <pt x="1004" y="510" on="1"/>
        <pt x="1004" y="1041" on="0"/>
        <pt x="988" y="1158" on="0"/>
        <pt x="932" y="1198" on="1"/>
        <pt x="855" y="1251" on="0"/>
        <pt x="739" y="1251" on="1"/>
        <pt x="655" y="1251" on="0"/>
        <pt x="532" y="1206" on="0"/>
        <pt x="463" y="1151" on="1"/>
        <pt x="416" y="1114" on="0"/>
        <pt x="337" y="962" on="0"/>
        <pt x="314" y="837" on="1"/>
        <pt x="303" y="777" on="0"/>
        <pt x="303" y="673" on="1"/>
        <pt x="303" y="471" on="0"/>
        <pt x="320" y="398" on="1"/>
        <pt x="347" y="276" on="0"/>
        <pt x="415" y="180" on="1"/>
        <pt x="464" y="110" on="0"/>
        <pt x="630" y="24" on="0"/>
      </contour>
    </TTGlyph>
    <TTGlyph name="Oacute" xMin="94" yMin="-20" xMax="1502" yMax="1714">
      <component glyphName="O" x="0" y="0" flags="0x200"/>
      <component glyphName="acute" x="459" y="422" flags="0x4"/>
    </TTGlyph>
    <TTGlyph name="Obreve" xMin="94" yMin="-20" xMax="1502" yMax="1697">
      <component glyphName="O" x="0" y="0" flags="0x214"/>
      <component glyphName="breve" x="420" y="464" flags="0x14"/>
    </TTGlyph>
    <TTGlyph name="Ocircumflex" xMin="94" yMin="-20" xMax="1502" yMax="1761">
      <component glyphName="O" x="0" y="0" flags="0x200"/>
      <component glyphName="circumflex" x="459" y="429" flags="0x4"/>
    </TTGlyph>
    <TTGlyph name="Odblacute" xMin="94" yMin="-20" xMax="1502" yMax="1720">
      <component glyphName="O" x="0" y="0" flags="0x214"/>
      <component glyphName="hungarumlaut" x="448" y="428" flags="0x14"/>
    </TTGlyph>
    <TTGlyph name="Odieresis" xMin="94" yMin="-20" xMax="1502" yMax="1579">
      <component glyphName="O" x="0" y="0" flags="0x200"/>
      <component glyphName="dieresis" x="459" y="350" flags="0x4"/>
    </TTGlyph>
    <TTGlyph name="Ograve" xMin="94" yMin="-20" xMax="1502" yMax="1715">
      <component glyphName="O" x="0" y="0" flags="0x200"/>
      <component glyphName="grave" x="459" y="422" flags="0x4"/>
    </TTGlyph>
    <TTGlyph name="Ohm" xMin="57" yMin="0" xMax="1457" yMax="1387">
      <contour>
        <pt x="57" y="313" on="1"/>
        <pt x="93" y="313" on="1"/>
        <pt x="98" y="241" on="0"/>
        <pt x="144" y="208" on="1"/>
        <pt x="174" y="186" on="0"/>
        <pt x="256" y="186" on="1"/>
        <pt x="526" y="186" on="1"/>
        <pt x="526" y="253" on="1"/>
        <pt x="382" y="282" on="0"/>
        <pt x="258" y="398" on="1"/>
        <pt x="92" y="553" on="0"/>
        <pt x="92" y="797" on="1"/>
        <pt x="92" y="1042" on="0"/>
        <pt x="463" y="1387" on="0"/>
        <pt x="761" y="1387" on="1"/>
        <pt x="1059" y="1387" on="0"/>
        <pt x="1424" y="1047" on="0"/>
        <pt x="1424" y="800" on="1"/>
        <pt x="1424" y="600" on="0"/>
        <pt x="1197" y="311" on="0"/>
        <pt x="988" y="253" on="1"/>
        <pt x="988" y="186" on="1"/>
        <pt x="1263" y="186" on="1"/>
        <pt x="1342" y="186" on="0"/>
        <pt x="1415" y="242" on="0"/>
        <pt x="1421" y="313" on="1"/>
        <pt x="1457" y="313" on="1"/>
        <pt x="1457" y="0" on="1"/>
        <pt x="898" y="0" on="1"/>
        <pt x="920" y="302" on="1"/>
        <pt x="1036" y="339" on="0"/>
        <pt x="1178" y="565" on="0"/>
        <pt x="1178" y="779" on="1"/>
        <pt x="1178" y="1033" on="0"/>
        <pt x="929" y="1312" on="0"/>
        <pt x="756" y="1312" on="1"/>
        <pt x="648" y="1312" on="0"/>
        <pt x="456" y="1195" on="0"/>
        <pt x="337" y="951" on="0"/>
        <pt x="337" y="793" on="1"/>
        <pt x="337" y="677" on="0"/>
        <pt x="393" y="460" on="0"/>
        <pt x="504" y="336" on="0"/>
        <pt x="593" y="302" on="1"/>
        <pt x="616" y="0" on="1"/>
        <pt x="57" y="0" on="1"/>
      </contour>
    </TTGlyph>
    <TTGlyph name="Omacron" xMin="94" yMin="-20" xMax="1502" yMax="1593">
      <component glyphName="O" x="0" y="0" flags="0x214"/>
      <component glyphName="macron" x="440" y="408" flags="0x14"/>
    </TTGlyph>
    <TTGlyph name="Omega" xMin="103" yMin="-8" xMax="1486" yMax="1292">
      <contour>
        <pt x="693" y="288" on="1"/>
        <pt x="729" y="0" on="1"/>
        <pt x="563" y="-4" on="1"/>
        <pt x="442" y="-7" on="1"/>
        <pt x="329" y="-4" on="1"/>
        <pt x="247" y="-2" on="1"/>
        <pt x="236" y="-2" on="0"/>
        <pt x="224" y="-3" on="1"/>
        <pt x="156" y="-5" on="1"/>
        <pt x="146" y="-5" on="0"/>
        <pt x="112" y="-2" on="1"/>
        <pt x="107" y="21" on="0"/>
        <pt x="107" y="44" on="1"/>
        <pt x="108" y="111" on="1"/>
        <pt x="106" y="179" on="1"/>
        <pt x="103" y="316" on="1"/>
        <pt x="103" y="334" on="0"/>
        <pt x="104" y="356" on="1"/>
        <pt x="109" y="359" on="1"/>
        <pt x="122" y="359" on="0"/>
        <pt x="134" y="349" on="1"/>
        <pt x="136" y="341" on="0"/>
        <pt x="140" y="314" on="1"/>
        <pt x="153" y="226" on="0"/>
        <pt x="231" y="121" on="0"/>
        <pt x="434" y="121" on="1"/>
        <pt x="635" y="121" on="1"/>
        <pt x="611" y="266" on="1"/>
        <pt x="138" y="398" on="0"/>
        <pt x="138" y="764" on="1"/>
        <pt x="138" y="1005" on="0"/>
        <pt x="499" y="1292" on="0"/>
        <pt x="794" y="1292" on="1"/>
        <pt x="1093" y="1292" on="0"/>
        <pt x="1450" y="1002" on="0"/>
        <pt x="1450" y="775" on="1"/>
        <pt x="1450" y="560" on="0"/>
        <pt x="1162" y="300" on="0"/>
        <pt x="978" y="266" on="1"/>
        <pt x="953" y="121" on="1"/>
        <pt x="1155" y="121" on="1"/>
        <pt x="1332" y="121" on="0"/>
        <pt x="1430" y="195" on="0"/>
        <pt x="1449" y="314" on="1"/>
        <pt x="1453" y="341" on="0"/>
        <pt x="1455" y="349" on="1"/>
        <pt x="1466" y="359" on="0"/>
        <pt x="1480" y="359" on="1"/>
        <pt x="1484" y="356" on="1"/>
        <pt x="1486" y="334" on="0"/>
        <pt x="1486" y="316" on="1"/>
        <pt x="1480" y="111" on="1"/>
        <pt x="1481" y="49" on="1"/>
        <pt x="1481" y="20" on="0"/>
        <pt x="1477" y="-2" on="1"/>
        <pt x="1442" y="-5" on="0"/>
        <pt x="1432" y="-5" on="1"/>
        <pt x="1364" y="-3" on="1"/>
        <pt x="1353" y="-2" on="0"/>
        <pt x="1341" y="-2" on="1"/>
        <pt x="1260" y="-4" on="1"/>
        <pt x="1174" y="-8" on="0"/>
        <pt x="1128" y="-8" on="1"/>
        <pt x="1011" y="-4" on="1"/>
        <pt x="919" y="0" on="0"/>
        <pt x="859" y="0" on="1"/>
        <pt x="895" y="288" on="1"/>
        <pt x="1268" y="355" on="0"/>
        <pt x="1268" y="772" on="1"/>
        <pt x="1268" y="999" on="0"/>
        <pt x="1002" y="1255" on="0"/>
        <pt x="794" y="1255" on="1"/>
        <pt x="592" y="1255" on="0"/>
        <pt x="320" y="1005" on="0"/>
        <pt x="320" y="755" on="1"/>
        <pt x="320" y="543" on="0"/>
        <pt x="536" y="328" on="0"/>
      </contour>
    </TTGlyph>
    <TTGlyph name="Omegatonos" xMin="-48" yMin="-8" xMax="1498" yMax="1292">
      <component glyphName="Omega" x="12" y="0" flags="0x14"/>
      <component glyphName="tonos" x="-308" y="-23" flags="0x14"/>
    </TTGlyph>
    <TTGlyph name="Omicron" xMin="94" yMin="-20" xMax="1502" yMax="1292">
      <component glyphName="O" x="0" y="0" flags="0x214"/>
    </TTGlyph>
    <TTGlyph name="Omicrontonos" xMin="-48" yMin="-20" xMax="1502" yMax="1292">
      <component glyphName="O" x="0" y="0" flags="0x14"/>
      <component glyphName="tonos" x="-308" y="-23" flags="0x14"/>
    </TTGlyph>
    <TTGlyph name="Oslash" xMin="94" yMin="-62" xMax="1502" yMax="1335">
      <contour>
        <pt x="346" y="118" on="1"/>
        <pt x="247" y="209" on="0"/>
        <pt x="218" y="250" on="1"/>
        <pt x="152" y="344" on="0"/>
        <pt x="127" y="425" on="1"/>
        <pt x="94" y="532" on="0"/>
        <pt x="94" y="645" on="1"/>
        <pt x="94" y="748" on="0"/>
        <pt x="124" y="839" on="1"/>
        <pt x="147" y="906" on="0"/>
        <pt x="263" y="1093" on="0"/>
        <pt x="434" y="1216" on="0"/>
        <pt x="582" y="1263" on="1"/>
        <pt x="673" y="1292" on="0"/>
        <pt x="826" y="1292" on="1"/>
        <pt x="1035" y="1292" on="0"/>
        <pt x="1230" y="1176" on="1"/>
        <pt x="1363" y="1335" on="1"/>
        <pt x="1381" y="1322" on="0"/>
        <pt x="1404" y="1300" on="1"/>
        <pt x="1273" y="1142" on="1"/>
        <pt x="1502" y="943" on="0"/>
        <pt x="1502" y="652" on="1"/>
        <pt x="1502" y="520" on="0"/>
        <pt x="1451" y="346" on="0"/>
        <pt x="1391" y="261" on="1"/>
        <pt x="1344" y="195" on="0"/>
        <pt x="1230" y="109" on="1"/>
        <pt x="1154" y="51" on="0"/>
        <pt x="928" y="-20" on="0"/>
        <pt x="797" y="-20" on="1"/>
        <pt x="557" y="-20" on="0"/>
        <pt x="389" y="85" on="1"/>
        <pt x="267" y="-62" on="1"/>
        <pt x="225" y="-28" on="1"/>
      </contour>
      <contour>
        <pt x="419" y="204" on="1"/>
        <pt x="1167" y="1101" on="1"/>
        <pt x="1013" y="1255" on="0"/>
        <pt x="799" y="1255" on="1"/>
        <pt x="708" y="1255" on="0"/>
        <pt x="534" y="1195" on="0"/>
        <pt x="422" y="1102" on="0"/>
        <pt x="326" y="931" on="0"/>
        <pt x="276" y="725" on="0"/>
        <pt x="276" y="646" on="1"/>
        <pt x="276" y="544" on="0"/>
        <pt x="343" y="306" on="0"/>
      </contour>
      <contour>
        <pt x="1203" y="1059" on="1"/>
        <pt x="454" y="162" on="1"/>
        <pt x="523" y="91" on="0"/>
        <pt x="586" y="62" on="1"/>
        <pt x="685" y="17" on="0"/>
        <pt x="795" y="17" on="1"/>
        <pt x="873" y="17" on="0"/>
        <pt x="1057" y="66" on="0"/>
        <pt x="1195" y="176" on="0"/>
        <pt x="1272" y="314" on="0"/>
        <pt x="1320" y="530" on="0"/>
        <pt x="1320" y="639" on="1"/>
        <pt x="1320" y="764" on="0"/>
        <pt x="1285" y="891" on="1"/>
        <pt x="1258" y="986" on="0"/>
      </contour>
    </TTGlyph>
    <TTGlyph name="Oslashacute" xMin="94" yMin="-62" xMax="1502" yMax="1728">
      <component glyphName="Oslash" x="0" y="0" flags="0x214"/>
      <component glyphName="acute" x="544" y="436" flags="0x14"/>
    </TTGlyph>
    <TTGlyph name="Otilde" xMin="94" yMin="-20" xMax="1502" yMax="1608">
      <component glyphName="O" x="0" y="0" flags="0x200"/>
      <component glyphName="tilde" x="459" y="371" flags="0x4"/>
    </TTGlyph>
    <TTGlyph name="P" xMin="38" yMin="-20" xMax="1098" yMax="1295">
      <contour>
        <pt x="44" y="1277" on="1"/>
        <pt x="62" y="1280" on="0"/>
        <pt x="67" y="1280" on="1"/>
        <pt x="101" y="1280" on="0"/>
        <pt x="179" y="1276" on="1"/>
        <pt x="220" y="1275" on="0"/>
        <pt x="235" y="1275" on="1"/>
        <pt x="257" y="1275" on="0"/>
        <pt x="328" y="1279" on="1"/>
        <pt x="498" y="1289" on="1"/>
        <pt x="565" y="1295" on="0"/>
        <pt x="654" y="1295" on="1"/>
        <pt x="811" y="1295" on="0"/>
        <pt x="997" y="1206" on="0"/>
        <pt x="1098" y="1016" on="0"/>
        <pt x="1098" y="922" on="1"/>
        <pt x="1098" y="765" on="0"/>
        <pt x="878" y="537" on="0"/>
        <pt x="692" y="537" on="1"/>
        <pt x="640" y="537" on="0"/>
        <pt x="570" y="558" on="0"/>
        <pt x="525" y="588" on="1"/>
        <pt x="506" y="601" on="0"/>
        <pt x="502" y="615" on="1"/>
        <pt x="506" y="622" on="0"/>
        <pt x="513" y="625" on="1"/>
        <pt x="527" y="625" on="0"/>
        <pt x="542" y="619" on="1"/>
        <pt x="576" y="607" on="0"/>
        <pt x="628" y="607" on="1"/>
        <pt x="707" y="607" on="0"/>
        <pt x="848" y="685" on="0"/>
        <pt x="920" y="829" on="0"/>
        <pt x="920" y="909" on="1"/>
        <pt x="920" y="987" on="0"/>
        <pt x="844" y="1134" on="0"/>
        <pt x="782" y="1178" on="1"/>
        <pt x="747" y="1203" on="0"/>
        <pt x="602" y="1237" on="0"/>
        <pt x="562" y="1237" on="1"/>
        <pt x="438" y="1237" on="0"/>
        <pt x="415" y="1219" on="1"/>
        <pt x="414" y="1205" on="1"/>
        <pt x="418" y="1092" on="1"/>
        <pt x="417" y="1072" on="1"/>
        <pt x="415" y="1045" on="0"/>
        <pt x="415" y="989" on="1"/>
        <pt x="415" y="785" on="0"/>
        <pt x="421" y="735" on="1"/>
        <pt x="421" y="679" on="1"/>
        <pt x="434" y="222" on="1"/>
        <pt x="434" y="212" on="0"/>
        <pt x="429" y="158" on="0"/>
        <pt x="429" y="138" on="1"/>
        <pt x="429" y="90" on="0"/>
        <pt x="437" y="65" on="1"/>
        <pt x="461" y="58" on="0"/>
        <pt x="577" y="32" on="1"/>
        <pt x="631" y="19" on="0"/>
        <pt x="636" y="17" on="1"/>
        <pt x="644" y="14" on="0"/>
        <pt x="650" y="4" on="1"/>
        <pt x="646" y="-11" on="0"/>
        <pt x="633" y="-20" on="0"/>
        <pt x="614" y="-20" on="1"/>
        <pt x="602" y="-20" on="0"/>
        <pt x="558" y="-15" on="1"/>
        <pt x="472" y="-6" on="0"/>
        <pt x="423" y="-6" on="1"/>
        <pt x="247" y="-13" on="1"/>
        <pt x="142" y="-10" on="1"/>
        <pt x="132" y="-10" on="0"/>
        <pt x="84" y="-12" on="1"/>
        <pt x="83" y="14" on="1"/>
        <pt x="213" y="39" on="1"/>
        <pt x="245" y="48" on="0"/>
        <pt x="252" y="57" on="1"/>
        <pt x="262" y="71" on="0"/>
        <pt x="262" y="112" on="1"/>
        <pt x="262" y="121" on="0"/>
        <pt x="263" y="151" on="1"/>
        <pt x="264" y="172" on="0"/>
        <pt x="264" y="209" on="1"/>
        <pt x="264" y="327" on="0"/>
        <pt x="254" y="712" on="1"/>
        <pt x="250" y="892" on="0"/>
        <pt x="250" y="1078" on="1"/>
        <pt x="250" y="1095" on="1"/>
        <pt x="250" y="1167" on="0"/>
        <pt x="228" y="1186" on="1"/>
        <pt x="191" y="1219" on="0"/>
        <pt x="43" y="1240" on="1"/>
        <pt x="38" y="1251" on="0"/>
        <pt x="38" y="1258" on="1"/>
        <pt x="38" y="1266" on="0"/>
      </contour>
    </TTGlyph>
    <TTGlyph name="Phi" xMin="94" yMin="-8" xMax="1556" yMax="1284">
      <contour>
        <pt x="520" y="-5" on="1"/>
        <pt x="520" y="13" on="0"/>
        <pt x="523" y="25" on="1"/>
        <pt x="532" y="36" on="0"/>
        <pt x="594" y="37" on="1"/>
        <pt x="688" y="38" on="0"/>
        <pt x="735" y="86" on="0"/>
        <pt x="735" y="178" on="1"/>
        <pt x="502" y="178" on="0"/>
        <pt x="235" y="299" on="0"/>
        <pt x="94" y="514" on="0"/>
        <pt x="94" y="659" on="1"/>
        <pt x="94" y="868" on="0"/>
        <pt x="425" y="1098" on="0"/>
        <pt x="736" y="1098" on="1"/>
        <pt x="736" y="1208" on="0"/>
        <pt x="686" y="1232" on="0"/>
        <pt x="586" y="1244" on="1"/>
        <pt x="528" y="1251" on="0"/>
        <pt x="518" y="1254" on="1"/>
        <pt x="516" y="1267" on="0"/>
        <pt x="516" y="1284" on="1"/>
        <pt x="825" y="1278" on="1"/>
        <pt x="1134" y="1284" on="1"/>
        <pt x="1134" y="1267" on="0"/>
        <pt x="1131" y="1254" on="1"/>
        <pt x="1121" y="1251" on="0"/>
        <pt x="1064" y="1244" on="1"/>
        <pt x="955" y="1231" on="0"/>
        <pt x="913" y="1197" on="0"/>
        <pt x="913" y="1098" on="1"/>
        <pt x="1055" y="1098" on="0"/>
        <pt x="1271" y="1056" on="0"/>
        <pt x="1469" y="933" on="0"/>
        <pt x="1556" y="770" on="0"/>
        <pt x="1556" y="659" on="1"/>
        <pt x="1556" y="536" on="0"/>
        <pt x="1456" y="347" on="0"/>
        <pt x="1266" y="219" on="0"/>
        <pt x="1078" y="183" on="0"/>
        <pt x="914" y="178" on="1"/>
        <pt x="914" y="86" on="0"/>
        <pt x="962" y="38" on="0"/>
        <pt x="1055" y="37" on="1"/>
        <pt x="1117" y="36" on="0"/>
        <pt x="1126" y="25" on="1"/>
        <pt x="1130" y="13" on="0"/>
        <pt x="1130" y="-5" on="1"/>
        <pt x="1007" y="-8" on="1"/>
        <pt x="784" y="-6" on="1"/>
        <pt x="654" y="-8" on="1"/>
      </contour>
      <contour>
        <pt x="734" y="218" on="1"/>
        <pt x="733" y="366" on="1"/>
        <pt x="736" y="1059" on="1"/>
        <pt x="526" y="1052" on="0"/>
        <pt x="276" y="845" on="0"/>
        <pt x="276" y="658" on="1"/>
        <pt x="276" y="498" on="0"/>
        <pt x="507" y="228" on="0"/>
      </contour>
      <contour>
        <pt x="916" y="218" on="1"/>
        <pt x="1142" y="228" on="0"/>
        <pt x="1374" y="498" on="0"/>
        <pt x="1374" y="658" on="1"/>
        <pt x="1374" y="845" on="0"/>
        <pt x="1124" y="1052" on="0"/>
        <pt x="913" y="1059" on="1"/>
        <pt x="917" y="366" on="1"/>
      </contour>
    </TTGlyph>
    <TTGlyph name="Pi" xMin="39" yMin="-21" xMax="1486" yMax="1284">
      <contour>
        <pt x="1150" y="1199" on="1"/>
        <pt x="1138" y="1207" on="0"/>
        <pt x="835" y="1207" on="1"/>
        <pt x="566" y="1211" on="1"/>
        <pt x="498" y="1211" on="0"/>
        <pt x="418" y="1198" on="1"/>
        <pt x="411" y="1136" on="0"/>
        <pt x="411" y="1104" on="1"/>
        <pt x="415" y="866" on="1"/>
        <pt x="410" y="570" on="1"/>
        <pt x="406" y="311" on="1"/>
        <pt x="405" y="253" on="1"/>
        <pt x="405" y="131" on="0"/>
        <pt x="418" y="55" on="0"/>
        <pt x="439" y="36" on="0"/>
        <pt x="511" y="21" on="1"/>
        <pt x="564" y="10" on="0"/>
        <pt x="581" y="2" on="1"/>
        <pt x="587" y="-4" on="0"/>
        <pt x="587" y="-8" on="1"/>
        <pt x="587" y="-21" on="0"/>
        <pt x="566" y="-21" on="1"/>
        <pt x="558" y="-21" on="0"/>
        <pt x="546" y="-20" on="1"/>
        <pt x="504" y="-19" on="1"/>
        <pt x="453" y="-18" on="0"/>
        <pt x="377" y="-12" on="1"/>
        <pt x="328" y="-8" on="0"/>
        <pt x="290" y="-8" on="1"/>
        <pt x="85" y="-14" on="1"/>
        <pt x="39" y="-15" on="1"/>
        <pt x="40" y="7" on="1"/>
        <pt x="70" y="25" on="0"/>
        <pt x="119" y="31" on="1"/>
        <pt x="205" y="42" on="0"/>
        <pt x="250" y="85" on="0"/>
        <pt x="250" y="159" on="1"/>
        <pt x="250" y="181" on="0"/>
        <pt x="248" y="219" on="1"/>
        <pt x="247" y="384" on="1"/>
        <pt x="247" y="426" on="0"/>
        <pt x="251" y="503" on="1"/>
        <pt x="253" y="580" on="1"/>
        <pt x="256" y="1000" on="1"/>
        <pt x="259" y="1098" on="1"/>
        <pt x="259" y="1200" on="0"/>
        <pt x="242" y="1222" on="0"/>
        <pt x="168" y="1229" on="1"/>
        <pt x="112" y="1234" on="0"/>
        <pt x="103" y="1236" on="1"/>
        <pt x="98" y="1246" on="0"/>
        <pt x="98" y="1254" on="1"/>
        <pt x="98" y="1262" on="0"/>
        <pt x="99" y="1273" on="1"/>
        <pt x="122" y="1275" on="0"/>
        <pt x="145" y="1275" on="1"/>
        <pt x="592" y="1264" on="1"/>
        <pt x="738" y="1266" on="1"/>
        <pt x="787" y="1264" on="1"/>
        <pt x="867" y="1263" on="1"/>
        <pt x="1145" y="1270" on="1"/>
        <pt x="1296" y="1274" on="1"/>
        <pt x="1348" y="1275" on="0"/>
        <pt x="1478" y="1284" on="1"/>
        <pt x="1477" y="1263" on="0"/>
        <pt x="1473" y="1248" on="1"/>
        <pt x="1440" y="1233" on="0"/>
        <pt x="1382" y="1229" on="1"/>
        <pt x="1344" y="1226" on="0"/>
        <pt x="1325" y="1218" on="1"/>
        <pt x="1306" y="1204" on="0"/>
        <pt x="1306" y="1161" on="1"/>
        <pt x="1306" y="1152" on="0"/>
        <pt x="1307" y="1139" on="1"/>
        <pt x="1310" y="1068" on="0"/>
        <pt x="1310" y="981" on="1"/>
        <pt x="1307" y="757" on="1"/>
        <pt x="1309" y="504" on="1"/>
        <pt x="1304" y="311" on="1"/>
        <pt x="1303" y="253" on="1"/>
        <pt x="1303" y="131" on="0"/>
        <pt x="1316" y="55" on="0"/>
        <pt x="1337" y="36" on="0"/>
        <pt x="1410" y="21" on="1"/>
        <pt x="1463" y="10" on="0"/>
        <pt x="1480" y="2" on="1"/>
        <pt x="1486" y="-4" on="0"/>
        <pt x="1486" y="-8" on="1"/>
        <pt x="1486" y="-21" on="0"/>
        <pt x="1464" y="-21" on="1"/>
        <pt x="1457" y="-21" on="0"/>
        <pt x="1445" y="-20" on="1"/>
        <pt x="1402" y="-19" on="1"/>
        <pt x="1351" y="-18" on="0"/>
        <pt x="1276" y="-12" on="1"/>
        <pt x="1227" y="-8" on="0"/>
        <pt x="1189" y="-8" on="1"/>
        <pt x="984" y="-14" on="1"/>
        <pt x="938" y="-15" on="1"/>
        <pt x="939" y="7" on="1"/>
        <pt x="968" y="25" on="0"/>
        <pt x="1018" y="31" on="1"/>
        <pt x="1103" y="42" on="0"/>
        <pt x="1149" y="85" on="0"/>
        <pt x="1149" y="161" on="1"/>
        <pt x="1149" y="183" on="0"/>
        <pt x="1147" y="219" on="1"/>
        <pt x="1146" y="279" on="1"/>
        <pt x="1150" y="542" on="1"/>
        <pt x="1152" y="678" on="1"/>
      </contour>
    </TTGlyph>
    <TTGlyph name="Psi" xMin="12" yMin="0" xMax="1537" yMax="1292">
      <contour>
        <pt x="862" y="424" on="1"/>
        <pt x="862" y="375" on="0"/>
        <pt x="861" y="361" on="1"/>
        <pt x="860" y="311" on="1"/>
        <pt x="860" y="142" on="0"/>
        <pt x="877" y="80" on="0"/>
        <pt x="948" y="51" on="0"/>
        <pt x="1001" y="49" on="1"/>
        <pt x="1064" y="47" on="0"/>
        <pt x="1072" y="33" on="1"/>
        <pt x="1075" y="21" on="0"/>
        <pt x="1075" y="3" on="1"/>
        <pt x="955" y="0" on="1"/>
        <pt x="852" y="3" on="1"/>
        <pt x="714" y="1" on="1"/>
        <pt x="479" y="2" on="1"/>
        <pt x="460" y="2" on="1"/>
        <pt x="458" y="32" on="1"/>
        <pt x="463" y="40" on="0"/>
        <pt x="595" y="53" on="1"/>
        <pt x="653" y="59" on="0"/>
        <pt x="695" y="94" on="0"/>
        <pt x="695" y="152" on="1"/>
        <pt x="696" y="283" on="1"/>
        <pt x="699" y="395" on="1"/>
        <pt x="699" y="424" on="1"/>
        <pt x="494" y="434" on="0"/>
        <pt x="240" y="551" on="0"/>
        <pt x="147" y="750" on="0"/>
        <pt x="147" y="989" on="1"/>
        <pt x="147" y="1141" on="0"/>
        <pt x="138" y="1216" on="0"/>
        <pt x="77" y="1264" on="0"/>
        <pt x="17" y="1266" on="1"/>
        <pt x="12" y="1292" on="1"/>
        <pt x="116" y="1292" on="0"/>
        <pt x="201" y="1267" on="0"/>
        <pt x="283" y="1173" on="0"/>
        <pt x="307" y="1044" on="0"/>
        <pt x="312" y="883" on="1"/>
        <pt x="317" y="697" on="0"/>
        <pt x="366" y="570" on="0"/>
        <pt x="542" y="481" on="0"/>
        <pt x="698" y="472" on="1"/>
        <pt x="696" y="672" on="1"/>
        <pt x="697" y="749" on="1"/>
        <pt x="696" y="864" on="1"/>
        <pt x="697" y="1054" on="1"/>
        <pt x="697" y="1120" on="0"/>
        <pt x="691" y="1187" on="1"/>
        <pt x="687" y="1201" on="0"/>
        <pt x="680" y="1214" on="1"/>
        <pt x="651" y="1232" on="0"/>
        <pt x="553" y="1240" on="1"/>
        <pt x="480" y="1246" on="0"/>
        <pt x="458" y="1259" on="0"/>
        <pt x="458" y="1285" on="1"/>
        <pt x="643" y="1282" on="1"/>
        <pt x="807" y="1279" on="1"/>
        <pt x="1079" y="1285" on="1"/>
        <pt x="1079" y="1268" on="0"/>
        <pt x="1076" y="1255" on="1"/>
        <pt x="1067" y="1252" on="0"/>
        <pt x="1009" y="1244" on="1"/>
        <pt x="903" y="1231" on="0"/>
        <pt x="867" y="1206" on="0"/>
        <pt x="858" y="1091" on="0"/>
        <pt x="858" y="1014" on="1"/>
        <pt x="862" y="559" on="1"/>
        <pt x="861" y="472" on="1"/>
        <pt x="1021" y="486" on="0"/>
        <pt x="1188" y="570" on="0"/>
        <pt x="1239" y="696" on="0"/>
        <pt x="1244" y="883" on="1"/>
        <pt x="1248" y="1042" on="0"/>
        <pt x="1272" y="1174" on="0"/>
        <pt x="1346" y="1262" on="0"/>
        <pt x="1440" y="1292" on="0"/>
        <pt x="1537" y="1292" on="1"/>
        <pt x="1532" y="1266" on="1"/>
        <pt x="1457" y="1264" on="0"/>
        <pt x="1402" y="1192" on="0"/>
        <pt x="1402" y="1094" on="1"/>
        <pt x="1403" y="1014" on="1"/>
        <pt x="1407" y="882" on="1"/>
        <pt x="1407" y="643" on="0"/>
        <pt x="1130" y="442" on="0"/>
      </contour>
    </TTGlyph>
    <TTGlyph name="Q" xMin="97" yMin="-446" xMax="1532" yMax="1316">
      <contour>
        <pt x="476" y="1239" on="1"/>
        <pt x="632" y="1316" on="0"/>
        <pt x="818" y="1316" on="1"/>
        <pt x="998" y="1316" on="0"/>
        <pt x="1285" y="1150" on="0"/>
        <pt x="1371" y="1014" on="1"/>
        <pt x="1477" y="845" on="0"/>
        <pt x="1477" y="648" on="1"/>
        <pt x="1477" y="519" on="0"/>
        <pt x="1367" y="246" on="0"/>
        <pt x="1194" y="71" on="0"/>
        <pt x="1011" y="-15" on="0"/>
        <pt x="959" y="-21" on="1"/>
        <pt x="923" y="-26" on="0"/>
        <pt x="906" y="-35" on="1"/>
        <pt x="947" y="-84" on="0"/>
        <pt x="1146" y="-240" on="0"/>
        <pt x="1243" y="-283" on="1"/>
        <pt x="1252" y="-286" on="0"/>
        <pt x="1276" y="-298" on="1"/>
        <pt x="1329" y="-324" on="0"/>
        <pt x="1377" y="-344" on="1"/>
        <pt x="1400" y="-353" on="1"/>
        <pt x="1409" y="-354" on="1"/>
        <pt x="1435" y="-365" on="1"/>
        <pt x="1487" y="-387" on="0"/>
        <pt x="1531" y="-401" on="1"/>
        <pt x="1532" y="-410" on="0"/>
        <pt x="1532" y="-415" on="1"/>
        <pt x="1531" y="-427" on="1"/>
        <pt x="1531" y="-445" on="1"/>
        <pt x="1499" y="-446" on="0"/>
        <pt x="1492" y="-446" on="1"/>
        <pt x="1400" y="-446" on="0"/>
        <pt x="1157" y="-377" on="0"/>
        <pt x="954" y="-263" on="0"/>
        <pt x="835" y="-168" on="1"/>
        <pt x="755" y="-103" on="0"/>
        <pt x="702" y="-41" on="1"/>
        <pt x="527" y="-16" on="0"/>
        <pt x="246" y="176" on="0"/>
        <pt x="97" y="460" on="0"/>
        <pt x="97" y="609" on="1"/>
        <pt x="97" y="784" on="0"/>
        <pt x="281" y="1138" on="0"/>
      </contour>
      <contour>
        <pt x="672" y="10" on="1"/>
        <pt x="727" y="0" on="0"/>
        <pt x="775" y="0" on="1"/>
        <pt x="885" y="0" on="0"/>
        <pt x="1060" y="68" on="0"/>
        <pt x="1112" y="122" on="1"/>
        <pt x="1180" y="193" on="0"/>
        <pt x="1278" y="451" on="0"/>
        <pt x="1278" y="645" on="1"/>
        <pt x="1278" y="798" on="0"/>
        <pt x="1233" y="924" on="1"/>
        <pt x="1203" y="1011" on="0"/>
        <pt x="1063" y="1187" on="0"/>
        <pt x="912" y="1270" on="0"/>
        <pt x="797" y="1270" on="1"/>
        <pt x="662" y="1270" on="0"/>
        <pt x="426" y="1130" on="0"/>
        <pt x="347" y="957" on="1"/>
        <pt x="297" y="847" on="0"/>
        <pt x="297" y="651" on="1"/>
        <pt x="297" y="491" on="0"/>
        <pt x="408" y="186" on="0"/>
        <pt x="510" y="92" on="1"/>
        <pt x="569" y="37" on="0"/>
      </contour>
    </TTGlyph>
    <TTGlyph name="R" xMin="42" yMin="-5" xMax="1313" yMax="1289">
      <contour>
        <pt x="56" y="30" on="1"/>
        <pt x="202" y="47" on="0"/>
        <pt x="221" y="54" on="1"/>
        <pt x="234" y="59" on="0"/>
        <pt x="245" y="84" on="1"/>
        <pt x="245" y="95" on="1"/>
        <pt x="245" y="120" on="0"/>
        <pt x="253" y="276" on="1"/>
        <pt x="255" y="320" on="0"/>
        <pt x="255" y="362" on="1"/>
        <pt x="252" y="481" on="1"/>
        <pt x="254" y="616" on="1"/>
        <pt x="253" y="867" on="1"/>
        <pt x="254" y="1047" on="1"/>
        <pt x="255" y="1161" on="0"/>
        <pt x="218" y="1211" on="0"/>
        <pt x="64" y="1232" on="0"/>
        <pt x="48" y="1242" on="0"/>
        <pt x="48" y="1253" on="1"/>
        <pt x="48" y="1260" on="0"/>
        <pt x="51" y="1271" on="1"/>
        <pt x="61" y="1280" on="0"/>
        <pt x="97" y="1281" on="1"/>
        <pt x="102" y="1281" on="0"/>
        <pt x="147" y="1286" on="0"/>
        <pt x="167" y="1286" on="1"/>
        <pt x="249" y="1286" on="1"/>
        <pt x="512" y="1289" on="1"/>
        <pt x="735" y="1289" on="0"/>
        <pt x="914" y="1223" on="0"/>
        <pt x="1020" y="1066" on="0"/>
        <pt x="1020" y="969" on="1"/>
        <pt x="1020" y="785" on="0"/>
        <pt x="827" y="688" on="1"/>
        <pt x="794" y="671" on="0"/>
        <pt x="775" y="658" on="1"/>
        <pt x="809" y="586" on="0"/>
        <pt x="870" y="485" on="1"/>
        <pt x="997" y="267" on="1"/>
        <pt x="1073" y="147" on="0"/>
        <pt x="1131" y="86" on="0"/>
        <pt x="1214" y="46" on="0"/>
        <pt x="1312" y="28" on="1"/>
        <pt x="1313" y="18" on="0"/>
        <pt x="1313" y="12" on="1"/>
        <pt x="1313" y="6" on="0"/>
        <pt x="1312" y="-3" on="1"/>
        <pt x="1175" y="-5" on="0"/>
        <pt x="991" y="-5" on="1"/>
        <pt x="978" y="-5" on="0"/>
        <pt x="955" y="-3" on="1"/>
        <pt x="884" y="133" on="0"/>
        <pt x="788" y="296" on="1"/>
        <pt x="640" y="566" on="1"/>
        <pt x="610" y="608" on="0"/>
        <pt x="571" y="629" on="0"/>
        <pt x="539" y="629" on="1"/>
        <pt x="454" y="628" on="1"/>
        <pt x="426" y="629" on="1"/>
        <pt x="423" y="597" on="0"/>
        <pt x="423" y="498" on="1"/>
        <pt x="423" y="156" on="1"/>
        <pt x="422" y="137" on="0"/>
        <pt x="431" y="103" on="1"/>
        <pt x="439" y="84" on="0"/>
        <pt x="478" y="61" on="0"/>
        <pt x="571" y="38" on="1"/>
        <pt x="612" y="28" on="1"/>
        <pt x="620" y="18" on="0"/>
        <pt x="620" y="1" on="1"/>
        <pt x="593" y="-4" on="0"/>
        <pt x="582" y="-4" on="1"/>
        <pt x="492" y="-4" on="0"/>
        <pt x="455" y="-2" on="1"/>
        <pt x="436" y="-1" on="0"/>
        <pt x="424" y="-1" on="1"/>
        <pt x="288" y="-3" on="1"/>
        <pt x="155" y="-2" on="1"/>
        <pt x="146" y="-2" on="0"/>
        <pt x="64" y="-5" on="1"/>
        <pt x="44" y="-1" on="1"/>
        <pt x="42" y="9" on="1"/>
        <pt x="42" y="18" on="0"/>
      </contour>
      <contour>
        <pt x="428" y="684" on="1"/>
        <pt x="455" y="683" on="0"/>
        <pt x="468" y="683" on="1"/>
        <pt x="540" y="683" on="0"/>
        <pt x="634" y="700" on="1"/>
        <pt x="700" y="713" on="0"/>
        <pt x="782" y="772" on="0"/>
        <pt x="837" y="888" on="0"/>
        <pt x="837" y="950" on="1"/>
        <pt x="837" y="1018" on="0"/>
        <pt x="794" y="1094" on="1"/>
        <pt x="761" y="1152" on="0"/>
        <pt x="604" y="1230" on="0"/>
        <pt x="494" y="1230" on="1"/>
        <pt x="467" y="1230" on="0"/>
        <pt x="424" y="1227" on="1"/>
        <pt x="420" y="1175" on="0"/>
        <pt x="420" y="1147" on="1"/>
        <pt x="425" y="960" on="1"/>
        <pt x="424" y="883" on="1"/>
        <pt x="424" y="805" on="0"/>
      </contour>
    </TTGlyph>
    <TTGlyph name="Racute" xMin="42" yMin="-5" xMax="1313" yMax="1720">
      <component glyphName="R" x="0" y="0" flags="0x214"/>
      <component glyphName="acute" x="184" y="428" flags="0x14"/>
    </TTGlyph>
    <TTGlyph name="Rcaron" xMin="42" yMin="-5" xMax="1313" yMax="1768">
      <component glyphName="R" x="0" y="0" flags="0x214"/>
      <component glyphName="caron" x="212" y="436" flags="0x14"/>
    </TTGlyph>
    <TTGlyph name="Rcedilla" xMin="42" yMin="-435" xMax="1313" yMax="1289">
      <component glyphName="R" x="0" y="0" flags="0x214"/>
      <component glyphName="undercommaaccent" x="281" y="0" flags="0x14"/>
    </TTGlyph>
    <TTGlyph name="Rho" xMin="38" yMin="-20" xMax="1098" yMax="1295">
      <component glyphName="P" x="0" y="0" flags="0x214"/>
    </TTGlyph>
    <TTGlyph name="S" xMin="77" yMin="-33" xMax="895" yMax="1316">
      <contour>
        <pt x="795" y="1234" on="1"/>
        <pt x="803" y="1168" on="0"/>
        <pt x="803" y="1158" on="1"/>
        <pt x="799" y="1069" on="1"/>
        <pt x="797" y="1012" on="0"/>
        <pt x="794" y="996" on="1"/>
        <pt x="785" y="992" on="0"/>
        <pt x="779" y="992" on="1"/>
        <pt x="770" y="994" on="1"/>
        <pt x="738" y="1134" on="0"/>
        <pt x="585" y="1262" on="0"/>
        <pt x="475" y="1262" on="1"/>
        <pt x="361" y="1262" on="0"/>
        <pt x="215" y="1134" on="0"/>
        <pt x="215" y="1049" on="1"/>
        <pt x="215" y="984" on="0"/>
        <pt x="266" y="930" on="1"/>
        <pt x="317" y="876" on="0"/>
        <pt x="527" y="768" on="1"/>
        <pt x="687" y="685" on="0"/>
        <pt x="825" y="580" on="0"/>
        <pt x="895" y="442" on="0"/>
        <pt x="895" y="357" on="1"/>
        <pt x="895" y="250" on="0"/>
        <pt x="784" y="62" on="0"/>
        <pt x="596" y="-33" on="0"/>
        <pt x="441" y="-33" on="1"/>
        <pt x="306" y="-33" on="0"/>
        <pt x="182" y="10" on="1"/>
        <pt x="109" y="36" on="0"/>
        <pt x="77" y="68" on="0"/>
        <pt x="77" y="86" on="1"/>
        <pt x="77" y="97" on="0"/>
        <pt x="79" y="114" on="1"/>
        <pt x="93" y="232" on="0"/>
        <pt x="94" y="308" on="1"/>
        <pt x="96" y="355" on="0"/>
        <pt x="101" y="363" on="1"/>
        <pt x="105" y="370" on="0"/>
        <pt x="116" y="370" on="1"/>
        <pt x="125" y="370" on="0"/>
        <pt x="136" y="357" on="0"/>
        <pt x="138" y="339" on="1"/>
        <pt x="149" y="216" on="0"/>
        <pt x="252" y="119" on="1"/>
        <pt x="354" y="22" on="0"/>
        <pt x="483" y="22" on="1"/>
        <pt x="562" y="22" on="0"/>
        <pt x="695" y="88" on="0"/>
        <pt x="770" y="213" on="0"/>
        <pt x="770" y="272" on="1"/>
        <pt x="770" y="353" on="0"/>
        <pt x="713" y="420" on="1"/>
        <pt x="656" y="487" on="0"/>
        <pt x="312" y="666" on="0"/>
        <pt x="260" y="707" on="1"/>
        <pt x="176" y="774" on="0"/>
        <pt x="134" y="849" on="1"/>
        <pt x="103" y="907" on="0"/>
        <pt x="103" y="984" on="1"/>
        <pt x="103" y="1123" on="0"/>
        <pt x="323" y="1316" on="0"/>
        <pt x="508" y="1316" on="1"/>
        <pt x="610" y="1316" on="0"/>
        <pt x="684" y="1293" on="1"/>
        <pt x="738" y="1275" on="0"/>
      </contour>
    </TTGlyph>
    <TTGlyph name="SF010000" xMin="638" yMin="-621" xMax="1474" yMax="709">
      <contour>
        <pt x="1474" y="709" on="1"/>
        <pt x="1474" y="534" on="1"/>
        <pt x="813" y="534" on="1"/>
        <pt x="813" y="-621" on="1"/>
        <pt x="638" y="-621" on="1"/>
        <pt x="638" y="709" on="1"/>
      </contour>
    </TTGlyph>
    <TTGlyph name="SF020000" xMin="638" yMin="534" xMax="1474" yMax="1864">
      <contour>
        <pt x="638" y="534" on="1"/>
        <pt x="638" y="1864" on="1"/>
        <pt x="813" y="1864" on="1"/>
        <pt x="813" y="709" on="1"/>
        <pt x="1474" y="709" on="1"/>
        <pt x="1474" y="534" on="1"/>
      </contour>
    </TTGlyph>
    <TTGlyph name="SF030000" xMin="-23" yMin="-621" xMax="812" yMax="709">
      <contour>
        <pt x="637" y="534" on="1"/>
        <pt x="-23" y="534" on="1"/>
        <pt x="-23" y="709" on="1"/>
        <pt x="812" y="709" on="1"/>
        <pt x="812" y="-621" on="1"/>
        <pt x="637" y="-621" on="1"/>
      </contour>
    </TTGlyph>
    <TTGlyph name="SF040000" xMin="-23" yMin="534" xMax="812" yMax="1864">
      <contour>
        <pt x="812" y="534" on="1"/>
        <pt x="-23" y="534" on="1"/>
        <pt x="-23" y="709" on="1"/>
        <pt x="637" y="709" on="1"/>
        <pt x="637" y="1864" on="1"/>
        <pt x="812" y="1864" on="1"/>
      </contour>
    </TTGlyph>
    <TTGlyph name="SF050000" xMin="-23" yMin="-621" xMax="1473" yMax="1864">
      <contour>
        <pt x="637" y="534" on="1"/>
        <pt x="-23" y="534" on="1"/>
        <pt x="-23" y="709" on="1"/>
        <pt x="637" y="709" on="1"/>
        <pt x="637" y="1864" on="1"/>
        <pt x="812" y="1864" on="1"/>
        <pt x="812" y="709" on="1"/>
        <pt x="1473" y="709" on="1"/>
        <pt x="1473" y="534" on="1"/>
        <pt x="812" y="534" on="1"/>
        <pt x="812" y="-621" on="1"/>
        <pt x="637" y="-621" on="1"/>
      </contour>
    </TTGlyph>
    <TTGlyph name="SF060000" xMin="-23" yMin="-621" xMax="1473" yMax="709">
      <contour>
        <pt x="637" y="534" on="1"/>
        <pt x="-23" y="534" on="1"/>
        <pt x="-23" y="709" on="1"/>
        <pt x="1473" y="709" on="1"/>
        <pt x="1473" y="534" on="1"/>
        <pt x="812" y="534" on="1"/>
        <pt x="812" y="-621" on="1"/>
        <pt x="637" y="-621" on="1"/>
      </contour>
    </TTGlyph>
    <TTGlyph name="SF070000" xMin="-23" yMin="534" xMax="1473" yMax="1864">
      <contour>
        <pt x="1473" y="534" on="1"/>
        <pt x="-23" y="534" on="1"/>
        <pt x="-23" y="709" on="1"/>
        <pt x="637" y="709" on="1"/>
        <pt x="637" y="1864" on="1"/>
        <pt x="812" y="1864" on="1"/>
        <pt x="812" y="709" on="1"/>
        <pt x="1473" y="709" on="1"/>
      </contour>
    </TTGlyph>
    <TTGlyph name="SF080000" xMin="638" yMin="-621" xMax="1474" yMax="1864">
      <contour>
        <pt x="638" y="-621" on="1"/>
        <pt x="638" y="1864" on="1"/>
        <pt x="813" y="1864" on="1"/>
        <pt x="813" y="709" on="1"/>
        <pt x="1474" y="709" on="1"/>
        <pt x="1474" y="534" on="1"/>
        <pt x="813" y="534" on="1"/>
        <pt x="813" y="-621" on="1"/>
      </contour>
    </TTGlyph>
    <TTGlyph name="SF090000" xMin="-23" yMin="-621" xMax="812" yMax="1864">
      <contour>
        <pt x="637" y="-621" on="1"/>
        <pt x="637" y="534" on="1"/>
        <pt x="-23" y="534" on="1"/>
        <pt x="-23" y="709" on="1"/>
        <pt x="637" y="709" on="1"/>
        <pt x="637" y="1864" on="1"/>
        <pt x="812" y="1864" on="1"/>
        <pt x="812" y="-621" on="1"/>
      </contour>
    </TTGlyph>
    <TTGlyph name="SF100000" xMin="-23" yMin="534" xMax="1473" yMax="709">
      <contour>
        <pt x="1473" y="534" on="1"/>
        <pt x="-23" y="534" on="1"/>
        <pt x="-23" y="709" on="1"/>
        <pt x="1473" y="709" on="1"/>
      </contour>
    </TTGlyph>
    <TTGlyph name="SF110000" xMin="638" yMin="-621" xMax="813" yMax="1864">
      <contour>
        <pt x="638" y="-621" on="1"/>
        <pt x="638" y="1864" on="1"/>
        <pt x="813" y="1864" on="1"/>
        <pt x="813" y="-621" on="1"/>
      </contour>
    </TTGlyph>
    <TTGlyph name="SF190000" xMin="-23" yMin="-621" xMax="812" yMax="1864">
      <contour>
        <pt x="637" y="344" on="1"/>
        <pt x="-23" y="344" on="1"/>
        <pt x="-23" y="519" on="1"/>
        <pt x="637" y="519" on="1"/>
        <pt x="637" y="724" on="1"/>
        <pt x="-23" y="724" on="1"/>
        <pt x="-23" y="899" on="1"/>
        <pt x="637" y="899" on="1"/>
        <pt x="637" y="1864" on="1"/>
        <pt x="812" y="1864" on="1"/>
        <pt x="812" y="-621" on="1"/>
        <pt x="637" y="-621" on="1"/>
      </contour>
    </TTGlyph>
    <TTGlyph name="SF200000" xMin="-23" yMin="-621" xMax="1003" yMax="1864">
      <contour>
        <pt x="447" y="-621" on="1"/>
        <pt x="448" y="534" on="1"/>
        <pt x="-23" y="534" on="1"/>
        <pt x="-23" y="709" on="1"/>
        <pt x="447" y="709" on="1"/>
        <pt x="447" y="1864" on="1"/>
        <pt x="622" y="1864" on="1"/>
        <pt x="622" y="-621" on="1"/>
      </contour>
      <contour>
        <pt x="828" y="-621" on="1"/>
        <pt x="828" y="1864" on="1"/>
        <pt x="1003" y="1864" on="1"/>
        <pt x="1003" y="-621" on="1"/>
      </contour>
    </TTGlyph>
    <TTGlyph name="SF210000" xMin="-23" yMin="-621" xMax="1003" yMax="709">
      <contour>
        <pt x="448" y="-621" on="1"/>
        <pt x="448" y="534" on="1"/>
        <pt x="-23" y="534" on="1"/>
        <pt x="-23" y="709" on="1"/>
        <pt x="1003" y="709" on="1"/>
        <pt x="1003" y="-621" on="1"/>
        <pt x="828" y="-621" on="1"/>
        <pt x="828" y="534" on="1"/>
        <pt x="622" y="534" on="1"/>
        <pt x="622" y="-621" on="1"/>
      </contour>
    </TTGlyph>
    <TTGlyph name="SF220000" xMin="-23" yMin="-621" xMax="812" yMax="899">
      <contour>
        <pt x="637" y="344" on="1"/>
        <pt x="-23" y="344" on="1"/>
        <pt x="-23" y="519" on="1"/>
        <pt x="637" y="519" on="1"/>
        <pt x="637" y="724" on="1"/>
        <pt x="-23" y="724" on="1"/>
        <pt x="-23" y="899" on="1"/>
        <pt x="812" y="899" on="1"/>
        <pt x="812" y="-621" on="1"/>
        <pt x="637" y="-621" on="1"/>
      </contour>
    </TTGlyph>
    <TTGlyph name="SF230000" xMin="-23" yMin="-621" xMax="1003" yMax="1864">
      <contour>
        <pt x="828" y="-621" on="1"/>
        <pt x="828" y="1864" on="1"/>
        <pt x="1003" y="1864" on="1"/>
        <pt x="1003" y="-621" on="1"/>
      </contour>
      <contour>
        <pt x="622" y="1864" on="1"/>
        <pt x="622" y="724" on="1"/>
        <pt x="-23" y="724" on="1"/>
        <pt x="-23" y="899" on="1"/>
        <pt x="447" y="899" on="1"/>
        <pt x="447" y="1864" on="1"/>
      </contour>
      <contour>
        <pt x="447" y="344" on="1"/>
        <pt x="-23" y="344" on="1"/>
        <pt x="-23" y="519" on="1"/>
        <pt x="622" y="519" on="1"/>
        <pt x="622" y="-621" on="1"/>
        <pt x="447" y="-621" on="1"/>
      </contour>
    </TTGlyph>
    <TTGlyph name="SF240000" xMin="448" yMin="-621" xMax="1004" yMax="1864">
      <contour>
        <pt x="829" y="-621" on="1"/>
        <pt x="829" y="1864" on="1"/>
        <pt x="1004" y="1864" on="1"/>
        <pt x="1004" y="-621" on="1"/>
      </contour>
      <contour>
        <pt x="448" y="-621" on="1"/>
        <pt x="448" y="1864" on="1"/>
        <pt x="623" y="1864" on="1"/>
        <pt x="623" y="-621" on="1"/>
      </contour>
    </TTGlyph>
    <TTGlyph name="SF250000" xMin="-23" yMin="-621" xMax="1003" yMax="899">
      <contour>
        <pt x="828" y="-621" on="1"/>
        <pt x="828" y="724" on="1"/>
        <pt x="-23" y="724" on="1"/>
        <pt x="-23" y="899" on="1"/>
        <pt x="1003" y="899" on="1"/>
        <pt x="1003" y="-621" on="1"/>
      </contour>
      <contour>
        <pt x="447" y="344" on="1"/>
        <pt x="-23" y="344" on="1"/>
        <pt x="-23" y="519" on="1"/>
        <pt x="622" y="519" on="1"/>
        <pt x="622" y="-621" on="1"/>
        <pt x="447" y="-621" on="1"/>
      </contour>
    </TTGlyph>
    <TTGlyph name="SF260000" xMin="-23" yMin="344" xMax="1003" yMax="1864">
      <contour>
        <pt x="828" y="1864" on="1"/>
        <pt x="1003" y="1864" on="1"/>
        <pt x="1003" y="344" on="1"/>
        <pt x="-23" y="344" on="1"/>
        <pt x="-23" y="519" on="1"/>
        <pt x="828" y="519" on="1"/>
      </contour>
      <contour>
        <pt x="447" y="899" on="1"/>
        <pt x="447" y="1864" on="1"/>
        <pt x="622" y="1864" on="1"/>
        <pt x="622" y="724" on="1"/>
        <pt x="-23" y="724" on="1"/>
        <pt x="-23" y="899" on="1"/>
      </contour>
    </TTGlyph>
    <TTGlyph name="SF270000" xMin="-23" yMin="534" xMax="1003" yMax="1864">
      <contour>
        <pt x="1003" y="534" on="1"/>
        <pt x="-23" y="534" on="1"/>
        <pt x="-23" y="709" on="1"/>
        <pt x="447" y="709" on="1"/>
        <pt x="447" y="1864" on="1"/>
        <pt x="622" y="1864" on="1"/>
        <pt x="622" y="709" on="1"/>
        <pt x="828" y="709" on="1"/>
        <pt x="828" y="1864" on="1"/>
        <pt x="1003" y="1864" on="1"/>
      </contour>
    </TTGlyph>
    <TTGlyph name="SF280000" xMin="-23" yMin="344" xMax="812" yMax="1864">
      <contour>
        <pt x="812" y="344" on="1"/>
        <pt x="-23" y="344" on="1"/>
        <pt x="-23" y="519" on="1"/>
        <pt x="637" y="519" on="1"/>
        <pt x="637" y="724" on="1"/>
        <pt x="-23" y="724" on="1"/>
        <pt x="-23" y="899" on="1"/>
        <pt x="637" y="899" on="1"/>
        <pt x="637" y="1864" on="1"/>
        <pt x="812" y="1864" on="1"/>
      </contour>
    </TTGlyph>
    <TTGlyph name="SF360000" xMin="638" yMin="-621" xMax="1474" yMax="1864">
      <contour>
        <pt x="638" y="-621" on="1"/>
        <pt x="638" y="1864" on="1"/>
        <pt x="813" y="1864" on="1"/>
        <pt x="813" y="899" on="1"/>
        <pt x="1474" y="899" on="1"/>
        <pt x="1474" y="724" on="1"/>
        <pt x="813" y="724" on="1"/>
        <pt x="813" y="519" on="1"/>
        <pt x="1474" y="519" on="1"/>
        <pt x="1474" y="344" on="1"/>
        <pt x="813" y="344" on="1"/>
        <pt x="813" y="-621" on="1"/>
      </contour>
    </TTGlyph>
    <TTGlyph name="SF370000" xMin="448" yMin="-621" xMax="1474" yMax="1864">
      <contour>
        <pt x="829" y="-621" on="1"/>
        <pt x="829" y="1864" on="1"/>
        <pt x="1004" y="1864" on="1"/>
        <pt x="1004" y="709" on="1"/>
        <pt x="1474" y="709" on="1"/>
        <pt x="1474" y="534" on="1"/>
        <pt x="1004" y="534" on="1"/>
        <pt x="1004" y="-621" on="1"/>
      </contour>
      <contour>
        <pt x="448" y="-621" on="1"/>
        <pt x="448" y="1864" on="1"/>
        <pt x="623" y="1864" on="1"/>
        <pt x="623" y="-621" on="1"/>
      </contour>
    </TTGlyph>
    <TTGlyph name="SF380000" xMin="448" yMin="344" xMax="1474" yMax="1864">
      <contour>
        <pt x="623" y="1864" on="1"/>
        <pt x="623" y="519" on="1"/>
        <pt x="1473" y="519" on="1"/>
        <pt x="1473" y="344" on="1"/>
        <pt x="448" y="344" on="1"/>
        <pt x="448" y="1864" on="1"/>
      </contour>
      <contour>
        <pt x="1004" y="899" on="1"/>
        <pt x="1474" y="899" on="1"/>
        <pt x="1474" y="724" on="1"/>
        <pt x="829" y="724" on="1"/>
        <pt x="829" y="1864" on="1"/>
        <pt x="1004" y="1864" on="1"/>
      </contour>
    </TTGlyph>
    <TTGlyph name="SF390000" xMin="448" yMin="-621" xMax="1474" yMax="899">
      <contour>
        <pt x="623" y="-621" on="1"/>
        <pt x="448" y="-621" on="1"/>
        <pt x="448" y="899" on="1"/>
        <pt x="1474" y="899" on="1"/>
        <pt x="1474" y="724" on="1"/>
        <pt x="623" y="724" on="1"/>
      </contour>
      <contour>
        <pt x="1004" y="344" on="1"/>
        <pt x="1004" y="-621" on="1"/>
        <pt x="829" y="-621" on="1"/>
        <pt x="829" y="519" on="1"/>
        <pt x="1474" y="519" on="1"/>
        <pt x="1474" y="344" on="1"/>
      </contour>
    </TTGlyph>
    <TTGlyph name="SF400000" xMin="-23" yMin="344" xMax="1473" yMax="1864">
      <contour>
        <pt x="622" y="724" on="1"/>
        <pt x="-23" y="724" on="1"/>
        <pt x="-23" y="899" on="1"/>
        <pt x="447" y="899" on="1"/>
        <pt x="447" y="1864" on="1"/>
        <pt x="622" y="1864" on="1"/>
      </contour>
      <contour>
        <pt x="1473" y="724" on="1"/>
        <pt x="828" y="724" on="1"/>
        <pt x="828" y="1864" on="1"/>
        <pt x="1003" y="1864" on="1"/>
        <pt x="1003" y="899" on="1"/>
        <pt x="1473" y="899" on="1"/>
      </contour>
      <contour>
        <pt x="1473" y="344" on="1"/>
        <pt x="-23" y="344" on="1"/>
        <pt x="-23" y="519" on="1"/>
        <pt x="1473" y="519" on="1"/>
      </contour>
    </TTGlyph>
    <TTGlyph name="SF410000" xMin="-23" yMin="-621" xMax="1473" yMax="899">
      <contour>
        <pt x="1473" y="724" on="1"/>
        <pt x="-23" y="724" on="1"/>
        <pt x="-23" y="899" on="1"/>
        <pt x="1473" y="899" on="1"/>
      </contour>
      <contour>
        <pt x="447" y="344" on="1"/>
        <pt x="-23" y="344" on="1"/>
        <pt x="-23" y="519" on="1"/>
        <pt x="622" y="519" on="1"/>
        <pt x="622" y="-621" on="1"/>
        <pt x="447" y="-621" on="1"/>
      </contour>
      <contour>
        <pt x="828" y="-621" on="1"/>
        <pt x="828" y="519" on="1"/>
        <pt x="1473" y="519" on="1"/>
        <pt x="1473" y="344" on="1"/>
        <pt x="1003" y="344" on="1"/>
        <pt x="1003" y="-621" on="1"/>
      </contour>
    </TTGlyph>
    <TTGlyph name="SF420000" xMin="448" yMin="-621" xMax="1474" yMax="1864">
      <contour>
        <pt x="448" y="-621" on="1"/>
        <pt x="448" y="1864" on="1"/>
        <pt x="623" y="1864" on="1"/>
        <pt x="623" y="-621" on="1"/>
      </contour>
      <contour>
        <pt x="829" y="724" on="1"/>
        <pt x="829" y="1864" on="1"/>
        <pt x="1004" y="1864" on="1"/>
        <pt x="1004" y="899" on="1"/>
        <pt x="1474" y="899" on="1"/>
        <pt x="1474" y="724" on="1"/>
      </contour>
      <contour>
        <pt x="829" y="-621" on="1"/>
        <pt x="829" y="519" on="1"/>
        <pt x="1474" y="519" on="1"/>
        <pt x="1474" y="344" on="1"/>
        <pt x="1004" y="344" on="1"/>
        <pt x="1004" y="-621" on="1"/>
      </contour>
    </TTGlyph>
    <TTGlyph name="SF430000" xMin="-23" yMin="344" xMax="1473" yMax="899">
      <contour>
        <pt x="1473" y="724" on="1"/>
        <pt x="-23" y="724" on="1"/>
        <pt x="-23" y="899" on="1"/>
        <pt x="1473" y="899" on="1"/>
      </contour>
      <contour>
        <pt x="1473" y="344" on="1"/>
        <pt x="-23" y="344" on="1"/>
        <pt x="-23" y="519" on="1"/>
        <pt x="1473" y="519" on="1"/>
      </contour>
    </TTGlyph>
    <TTGlyph name="SF440000" xMin="-23" yMin="-621" xMax="1473" yMax="1864">
      <contour>
        <pt x="1003" y="899" on="1"/>
        <pt x="1473" y="899" on="1"/>
        <pt x="1473" y="724" on="1"/>
        <pt x="828" y="724" on="1"/>
        <pt x="828" y="1864" on="1"/>
        <pt x="1003" y="1864" on="1"/>
      </contour>
      <contour>
        <pt x="447" y="899" on="1"/>
        <pt x="447" y="1864" on="1"/>
        <pt x="622" y="1864" on="1"/>
        <pt x="622" y="724" on="1"/>
        <pt x="-23" y="724" on="1"/>
        <pt x="-23" y="899" on="1"/>
      </contour>
      <contour>
        <pt x="447" y="344" on="1"/>
        <pt x="-23" y="344" on="1"/>
        <pt x="-23" y="519" on="1"/>
        <pt x="622" y="519" on="1"/>
        <pt x="622" y="-621" on="1"/>
        <pt x="447" y="-621" on="1"/>
      </contour>
      <contour>
        <pt x="1003" y="344" on="1"/>
        <pt x="1003" y="-621" on="1"/>
        <pt x="828" y="-621" on="1"/>
        <pt x="828" y="519" on="1"/>
        <pt x="1473" y="519" on="1"/>
        <pt x="1473" y="344" on="1"/>
      </contour>
    </TTGlyph>
    <TTGlyph name="SF450000" xMin="-23" yMin="344" xMax="1473" yMax="1864">
      <contour>
        <pt x="1473" y="724" on="1"/>
        <pt x="-23" y="724" on="1"/>
        <pt x="-23" y="899" on="1"/>
        <pt x="637" y="899" on="1"/>
        <pt x="637" y="1864" on="1"/>
        <pt x="812" y="1864" on="1"/>
        <pt x="812" y="899" on="1"/>
        <pt x="1473" y="899" on="1"/>
      </contour>
      <contour>
        <pt x="1473" y="344" on="1"/>
        <pt x="-23" y="344" on="1"/>
        <pt x="-23" y="519" on="1"/>
        <pt x="1473" y="519" on="1"/>
      </contour>
    </TTGlyph>
    <TTGlyph name="SF460000" xMin="-23" yMin="534" xMax="1473" yMax="1864">
      <contour>
        <pt x="1473" y="534" on="1"/>
        <pt x="-23" y="534" on="1"/>
        <pt x="-23" y="709" on="1"/>
        <pt x="447" y="709" on="1"/>
        <pt x="447" y="1864" on="1"/>
        <pt x="622" y="1864" on="1"/>
        <pt x="622" y="709" on="1"/>
        <pt x="828" y="709" on="1"/>
        <pt x="828" y="1864" on="1"/>
        <pt x="1003" y="1864" on="1"/>
        <pt x="1003" y="709" on="1"/>
        <pt x="1473" y="709" on="1"/>
      </contour>
    </TTGlyph>
    <TTGlyph name="SF470000" xMin="-23" yMin="-621" xMax="1473" yMax="899">
      <contour>
        <pt x="1473" y="724" on="1"/>
        <pt x="-23" y="724" on="1"/>
        <pt x="-23" y="899" on="1"/>
        <pt x="1473" y="899" on="1"/>
      </contour>
      <contour>
        <pt x="637" y="344" on="1"/>
        <pt x="-23" y="344" on="1"/>
        <pt x="-23" y="519" on="1"/>
        <pt x="1473" y="519" on="1"/>
        <pt x="1473" y="344" on="1"/>
        <pt x="812" y="344" on="1"/>
        <pt x="812" y="-621" on="1"/>
        <pt x="637" y="-621" on="1"/>
      </contour>
    </TTGlyph>
    <TTGlyph name="SF480000" xMin="-23" yMin="-621" xMax="1473" yMax="709">
      <contour>
        <pt x="447" y="-621" on="1"/>
        <pt x="447" y="534" on="1"/>
        <pt x="-23" y="534" on="1"/>
        <pt x="-23" y="709" on="1"/>
        <pt x="1473" y="709" on="1"/>
        <pt x="1473" y="534" on="1"/>
        <pt x="1003" y="534" on="1"/>
        <pt x="1003" y="-621" on="1"/>
        <pt x="828" y="-621" on="1"/>
        <pt x="828" y="534" on="1"/>
        <pt x="622" y="534" on="1"/>
        <pt x="622" y="-621" on="1"/>
      </contour>
    </TTGlyph>
    <TTGlyph name="SF490000" xMin="448" yMin="534" xMax="1475" yMax="1864">
      <contour>
        <pt x="1475" y="534" on="1"/>
        <pt x="448" y="534" on="1"/>
        <pt x="448" y="1864" on="1"/>
        <pt x="623" y="1864" on="1"/>
        <pt x="623" y="709" on="1"/>
        <pt x="829" y="709" on="1"/>
        <pt x="829" y="1864" on="1"/>
        <pt x="1004" y="1864" on="1"/>
        <pt x="1004" y="709" on="1"/>
        <pt x="1475" y="709" on="1"/>
      </contour>
    </TTGlyph>
    <TTGlyph name="SF500000" xMin="638" yMin="344" xMax="1474" yMax="1864">
      <contour>
        <pt x="638" y="344" on="1"/>
        <pt x="638" y="1864" on="1"/>
        <pt x="813" y="1864" on="1"/>
        <pt x="813" y="899" on="1"/>
        <pt x="1474" y="899" on="1"/>
        <pt x="1474" y="724" on="1"/>
        <pt x="813" y="724" on="1"/>
        <pt x="813" y="519" on="1"/>
        <pt x="1474" y="519" on="1"/>
        <pt x="1474" y="344" on="1"/>
      </contour>
    </TTGlyph>
    <TTGlyph name="SF510000" xMin="638" yMin="-621" xMax="1474" yMax="899">
      <contour>
        <pt x="638" y="-621" on="1"/>
        <pt x="638" y="899" on="1"/>
        <pt x="1474" y="899" on="1"/>
        <pt x="1474" y="724" on="1"/>
        <pt x="813" y="724" on="1"/>
        <pt x="813" y="519" on="1"/>
        <pt x="1474" y="519" on="1"/>
        <pt x="1474" y="344" on="1"/>
        <pt x="813" y="344" on="1"/>
        <pt x="813" y="-621" on="1"/>
      </contour>
    </TTGlyph>
    <TTGlyph name="SF520000" xMin="448" yMin="-621" xMax="1475" yMax="709">
      <contour>
        <pt x="448" y="-621" on="1"/>
        <pt x="448" y="709" on="1"/>
        <pt x="1475" y="709" on="1"/>
        <pt x="1475" y="534" on="1"/>
        <pt x="1004" y="534" on="1"/>
        <pt x="1004" y="-621" on="1"/>
        <pt x="829" y="-621" on="1"/>
        <pt x="829" y="534" on="1"/>
        <pt x="623" y="534" on="1"/>
        <pt x="623" y="-621" on="1"/>
      </contour>
    </TTGlyph>
    <TTGlyph name="SF530000" xMin="-23" yMin="-621" xMax="1473" yMax="1864">
      <contour>
        <pt x="447" y="-621" on="1"/>
        <pt x="447" y="534" on="1"/>
        <pt x="-23" y="534" on="1"/>
        <pt x="-23" y="709" on="1"/>
        <pt x="447" y="709" on="1"/>
        <pt x="447" y="1864" on="1"/>
        <pt x="622" y="1864" on="1"/>
        <pt x="622" y="709" on="1"/>
        <pt x="828" y="709" on="1"/>
        <pt x="828" y="1864" on="1"/>
        <pt x="1003" y="1864" on="1"/>
        <pt x="1003" y="709" on="1"/>
        <pt x="1473" y="709" on="1"/>
        <pt x="1473" y="534" on="1"/>
        <pt x="1003" y="534" on="1"/>
        <pt x="1003" y="-621" on="1"/>
        <pt x="828" y="-621" on="1"/>
        <pt x="828" y="534" on="1"/>
        <pt x="622" y="534" on="1"/>
        <pt x="622" y="-621" on="1"/>
      </contour>
    </TTGlyph>
    <TTGlyph name="SF540000" xMin="-23" yMin="-621" xMax="1473" yMax="1864">
      <contour>
        <pt x="637" y="344" on="1"/>
        <pt x="-23" y="344" on="1"/>
        <pt x="-23" y="519" on="1"/>
        <pt x="637" y="519" on="1"/>
        <pt x="637" y="724" on="1"/>
        <pt x="-23" y="724" on="1"/>
        <pt x="-23" y="899" on="1"/>
        <pt x="637" y="899" on="1"/>
        <pt x="637" y="1864" on="1"/>
        <pt x="812" y="1864" on="1"/>
        <pt x="812" y="899" on="1"/>
        <pt x="1473" y="899" on="1"/>
        <pt x="1473" y="724" on="1"/>
        <pt x="812" y="724" on="1"/>
        <pt x="812" y="519" on="1"/>
        <pt x="1473" y="519" on="1"/>
        <pt x="1473" y="344" on="1"/>
        <pt x="812" y="344" on="1"/>
        <pt x="812" y="-621" on="1"/>
        <pt x="637" y="-621" on="1"/>
      </contour>
    </TTGlyph>
    <TTGlyph name="Sacute" xMin="77" yMin="-33" xMax="895" yMax="1720">
      <component glyphName="S" x="0" y="0" flags="0x214"/>
      <component glyphName="acute" x="128" y="428" flags="0x14"/>
    </TTGlyph>
    <TTGlyph name="Scaron" xMin="77" yMin="-33" xMax="895" yMax="1761">
      <component glyphName="S" x="0" y="0" flags="0x200"/>
      <component glyphName="caron" x="149" y="429" flags="0x4"/>
    </TTGlyph>
    <TTGlyph name="Scedilla" xMin="77" yMin="-431" xMax="895" yMax="1316">
      <component glyphName="S" x="0" y="0" flags="0x200"/>
      <component glyphName="cedilla" x="249" y="0" flags="0x4"/>
    </TTGlyph>
    <TTGlyph name="Scircumflex" xMin="77" yMin="-33" xMax="895" yMax="1764">
      <component glyphName="S" x="0" y="0" flags="0x214"/>
      <component glyphName="circumflex" x="124" y="432" flags="0x14"/>
    </TTGlyph>
    <TTGlyph name="Sigma" xMin="60" yMin="-15" xMax="1211" yMax="1272">
      <contour>
        <pt x="341" y="1211" on="1"/>
        <pt x="383" y="1140" on="0"/>
        <pt x="747" y="683" on="0"/>
        <pt x="755" y="682" on="1"/>
        <pt x="600" y="547" on="0"/>
        <pt x="337" y="228" on="1"/>
        <pt x="276" y="155" on="0"/>
        <pt x="255" y="133" on="1"/>
        <pt x="759" y="133" on="1"/>
        <pt x="1015" y="133" on="0"/>
        <pt x="1147" y="212" on="0"/>
        <pt x="1172" y="326" on="1"/>
        <pt x="1177" y="353" on="0"/>
        <pt x="1180" y="361" on="1"/>
        <pt x="1191" y="371" on="0"/>
        <pt x="1205" y="371" on="1"/>
        <pt x="1209" y="368" on="1"/>
        <pt x="1211" y="346" on="0"/>
        <pt x="1211" y="328" on="1"/>
        <pt x="1205" y="123" on="1"/>
        <pt x="1207" y="53" on="1"/>
        <pt x="1207" y="20" on="0"/>
        <pt x="1202" y="-2" on="1"/>
        <pt x="1167" y="-5" on="0"/>
        <pt x="1155" y="-5" on="1"/>
        <pt x="1089" y="-3" on="1"/>
        <pt x="1073" y="-2" on="0"/>
        <pt x="1056" y="-2" on="1"/>
        <pt x="949" y="-4" on="1"/>
        <pt x="830" y="-7" on="1"/>
        <pt x="575" y="0" on="1"/>
        <pt x="394" y="3" on="1"/>
        <pt x="247" y="3" on="0"/>
        <pt x="172" y="-7" on="1"/>
        <pt x="114" y="-15" on="0"/>
        <pt x="105" y="-15" on="1"/>
        <pt x="93" y="-15" on="0"/>
        <pt x="62" y="-12" on="1"/>
        <pt x="60" y="13" on="1"/>
        <pt x="215" y="155" on="0"/>
        <pt x="601" y="621" on="1"/>
        <pt x="576" y="655" on="0"/>
        <pt x="521" y="721" on="1"/>
        <pt x="374" y="906" on="1"/>
        <pt x="229" y="1088" on="1"/>
        <pt x="102" y="1239" on="0"/>
        <pt x="102" y="1259" on="1"/>
        <pt x="102" y="1271" on="0"/>
        <pt x="132" y="1271" on="1"/>
        <pt x="200" y="1269" on="1"/>
        <pt x="298" y="1270" on="1"/>
        <pt x="473" y="1267" on="1"/>
        <pt x="778" y="1272" on="1"/>
        <pt x="883" y="1268" on="1"/>
        <pt x="1024" y="1269" on="1"/>
        <pt x="1047" y="1265" on="0"/>
        <pt x="1056" y="1265" on="1"/>
        <pt x="1073" y="1265" on="0"/>
        <pt x="1104" y="1268" on="1"/>
        <pt x="1108" y="1269" on="0"/>
        <pt x="1113" y="1269" on="1"/>
        <pt x="1128" y="1269" on="0"/>
        <pt x="1135" y="1264" on="1"/>
        <pt x="1141" y="1256" on="0"/>
        <pt x="1141" y="1246" on="1"/>
        <pt x="1141" y="1235" on="0"/>
        <pt x="1138" y="1221" on="1"/>
        <pt x="1133" y="1189" on="0"/>
        <pt x="1133" y="1168" on="1"/>
        <pt x="1133" y="1064" on="0"/>
        <pt x="1140" y="992" on="1"/>
        <pt x="1138" y="986" on="0"/>
        <pt x="1133" y="984" on="1"/>
        <pt x="1122" y="984" on="0"/>
        <pt x="1114" y="987" on="1"/>
        <pt x="1106" y="998" on="0"/>
        <pt x="1085" y="1051" on="1"/>
        <pt x="1061" y="1114" on="0"/>
        <pt x="999" y="1212" on="0"/>
        <pt x="954" y="1226" on="0"/>
        <pt x="802" y="1226" on="1"/>
        <pt x="635" y="1226" on="0"/>
      </contour>
    </TTGlyph>
    <TTGlyph name="T" xMin="-4" yMin="-25" xMax="1233" yMax="1331">
      <contour>
        <pt x="36" y="1130" on="1"/>
        <pt x="77" y="1281" on="1"/>
        <pt x="81" y="1311" on="0"/>
        <pt x="95" y="1328" on="0"/>
        <pt x="104" y="1328" on="1"/>
        <pt x="122" y="1328" on="0"/>
        <pt x="145" y="1285" on="1"/>
        <pt x="162" y="1254" on="0"/>
        <pt x="184" y="1237" on="0"/>
        <pt x="205" y="1234" on="1"/>
        <pt x="215" y="1235" on="1"/>
        <pt x="258" y="1231" on="1"/>
        <pt x="494" y="1228" on="1"/>
        <pt x="773" y="1229" on="1"/>
        <pt x="855" y="1229" on="1"/>
        <pt x="1010" y="1232" on="1"/>
        <pt x="1020" y="1232" on="0"/>
        <pt x="1035" y="1230" on="1"/>
        <pt x="1103" y="1224" on="0"/>
        <pt x="1119" y="1224" on="1"/>
        <pt x="1134" y="1224" on="0"/>
        <pt x="1143" y="1234" on="1"/>
        <pt x="1146" y="1238" on="0"/>
        <pt x="1176" y="1302" on="1"/>
        <pt x="1189" y="1331" on="0"/>
        <pt x="1208" y="1331" on="1"/>
        <pt x="1216" y="1331" on="0"/>
        <pt x="1228" y="1327" on="1"/>
        <pt x="1233" y="1307" on="0"/>
        <pt x="1233" y="1291" on="1"/>
        <pt x="1232" y="1251" on="1"/>
        <pt x="1233" y="1166" on="1"/>
        <pt x="1233" y="1135" on="0"/>
        <pt x="1228" y="966" on="1"/>
        <pt x="1228" y="955" on="0"/>
        <pt x="1224" y="946" on="1"/>
        <pt x="1213" y="939" on="0"/>
        <pt x="1205" y="939" on="1"/>
        <pt x="1197" y="939" on="0"/>
        <pt x="1185" y="954" on="0"/>
        <pt x="1176" y="993" on="1"/>
        <pt x="1156" y="1083" on="0"/>
        <pt x="1126" y="1122" on="1"/>
        <pt x="1106" y="1147" on="0"/>
        <pt x="1031" y="1169" on="0"/>
        <pt x="889" y="1169" on="1"/>
        <pt x="775" y="1169" on="0"/>
        <pt x="720" y="1165" on="1"/>
        <pt x="718" y="1125" on="0"/>
        <pt x="718" y="1092" on="1"/>
        <pt x="726" y="471" on="1"/>
        <pt x="726" y="434" on="0"/>
        <pt x="722" y="331" on="1"/>
        <pt x="723" y="198" on="1"/>
        <pt x="722" y="124" on="1"/>
        <pt x="722" y="89" on="0"/>
        <pt x="746" y="59" on="0"/>
        <pt x="799" y="45" on="1"/>
        <pt x="891" y="22" on="0"/>
        <pt x="922" y="17" on="1"/>
        <pt x="941" y="15" on="0"/>
        <pt x="953" y="9" on="1"/>
        <pt x="953" y="-21" on="1"/>
        <pt x="811" y="-17" on="1"/>
        <pt x="694" y="-16" on="0"/>
        <pt x="635" y="-12" on="1"/>
        <pt x="489" y="-19" on="1"/>
        <pt x="382" y="-25" on="1"/>
        <pt x="337" y="-25" on="0"/>
        <pt x="327" y="-23" on="1"/>
        <pt x="313" y="-17" on="1"/>
        <pt x="315" y="6" on="0"/>
        <pt x="329" y="19" on="0"/>
        <pt x="359" y="23" on="1"/>
        <pt x="401" y="29" on="0"/>
        <pt x="515" y="60" on="0"/>
        <pt x="533" y="76" on="1"/>
        <pt x="543" y="85" on="0"/>
        <pt x="547" y="106" on="1"/>
        <pt x="556" y="150" on="0"/>
        <pt x="556" y="279" on="1"/>
        <pt x="556" y="449" on="1"/>
        <pt x="552" y="820" on="1"/>
        <pt x="548" y="900" on="1"/>
        <pt x="547" y="1167" on="1"/>
        <pt x="484" y="1174" on="0"/>
        <pt x="386" y="1174" on="1"/>
        <pt x="242" y="1174" on="0"/>
        <pt x="211" y="1156" on="1"/>
        <pt x="162" y="1128" on="0"/>
        <pt x="65" y="992" on="1"/>
        <pt x="33" y="941" on="0"/>
        <pt x="9" y="941" on="1"/>
        <pt x="0" y="943" on="1"/>
        <pt x="-4" y="949" on="0"/>
        <pt x="-4" y="954" on="1"/>
        <pt x="-4" y="966" on="0"/>
        <pt x="12" y="1026" on="1"/>
        <pt x="32" y="1103" on="0"/>
      </contour>
    </TTGlyph>
    <TTGlyph name="Tau" xMin="-4" yMin="-25" xMax="1233" yMax="1331">
      <component glyphName="T" x="0" y="0" flags="0x214"/>
    </TTGlyph>
</ttFont>
